<svg id="my-svg" width="100%" xmlns="http://www.w3.org/2000/svg" xmlns:xlink="http://www.w3.org/1999/xlink" class="classDiagram" style="max-width: 1277.98px; background-color: white;" viewBox="0 0 1277.984375 1396" role="graphics-document document" aria-roledescription="classDiagram"><style>#my-svg{font-family:"trebuchet ms",verdana,arial,sans-serif;font-size:16px;fill:#333;}@keyframes edge-animation-frame{from{stroke-dashoffset:0;}}@keyframes dash{to{stroke-dashoffset:0;}}#my-svg .edge-animation-slow{stroke-dasharray:9,5!important;stroke-dashoffset:900;animation:dash 50s linear infinite;stroke-linecap:round;}#my-svg .edge-animation-fast{stroke-dasharray:9,5!important;stroke-dashoffset:900;animation:dash 20s linear infinite;stroke-linecap:round;}#my-svg .error-icon{fill:#552222;}#my-svg .error-text{fill:#552222;stroke:#552222;}#my-svg .edge-thickness-normal{stroke-width:1px;}#my-svg .edge-thickness-thick{stroke-width:3.5px;}#my-svg .edge-pattern-solid{stroke-dasharray:0;}#my-svg .edge-thickness-invisible{stroke-width:0;fill:none;}#my-svg .edge-pattern-dashed{stroke-dasharray:3;}#my-svg .edge-pattern-dotted{stroke-dasharray:2;}#my-svg .marker{fill:#333333;stroke:#333333;}#my-svg .marker.cross{stroke:#333333;}#my-svg svg{font-family:"trebuchet ms",verdana,arial,sans-serif;font-size:16px;}#my-svg p{margin:0;}#my-svg g.classGroup text{fill:#9370DB;stroke:none;font-family:"trebuchet ms",verdana,arial,sans-serif;font-size:10px;}#my-svg g.classGroup text .title{font-weight:bolder;}#my-svg .cluster-label text{fill:#333;}#my-svg .cluster-label span{color:#333;}#my-svg .cluster-label span p{background-color:transparent;}#my-svg .cluster rect{fill:#ffffde;stroke:#aaaa33;stroke-width:1px;}#my-svg .cluster text{fill:#333;}#my-svg .cluster span{color:#333;}#my-svg .nodeLabel,#my-svg .edgeLabel{color:#131300;}#my-svg .noteLabel .nodeLabel,#my-svg .noteLabel .edgeLabel{color:black;}#my-svg .edgeLabel .label rect{fill:#ECECFF;}#my-svg .label text{fill:#131300;}#my-svg .labelBkg{background:#ECECFF;}#my-svg .edgeLabel .label span{background:#ECECFF;}#my-svg .classTitle{font-weight:bolder;}#my-svg .node rect,#my-svg .node circle,#my-svg .node ellipse,#my-svg .node polygon,#my-svg .node path{fill:#ECECFF;stroke:#9370DB;stroke-width:1;}#my-svg .divider{stroke:#9370DB;stroke-width:1;}#my-svg g.clickable{cursor:pointer;}#my-svg g.classGroup rect{fill:#ECECFF;stroke:#9370DB;}#my-svg g.classGroup line{stroke:#9370DB;stroke-width:1;}#my-svg .classLabel .box{stroke:none;stroke-width:0;fill:#ECECFF;opacity:0.5;}#my-svg .classLabel .label{fill:#9370DB;font-size:10px;}#my-svg .relation{stroke:#333333;stroke-width:1;fill:none;}#my-svg .dashed-line{stroke-dasharray:3;}#my-svg .dotted-line{stroke-dasharray:1 2;}#my-svg [id$="-compositionStart"],#my-svg .composition{fill:#333333!important;stroke:#333333!important;stroke-width:1;}#my-svg [id$="-compositionEnd"],#my-svg .composition{fill:#333333!important;stroke:#333333!important;stroke-width:1;}#my-svg [id$="-dependencyStart"],#my-svg .dependency{fill:#333333!important;stroke:#333333!important;stroke-width:1;}#my-svg [id$="-dependencyEnd"],#my-svg .dependency{fill:#333333!important;stroke:#333333!important;stroke-width:1;}#my-svg [id$="-extensionStart"],#my-svg .extension{fill:transparent!important;stroke:#333333!important;stroke-width:1;}#my-svg [id$="-extensionEnd"],#my-svg .extension{fill:transparent!important;stroke:#333333!important;stroke-width:1;}#my-svg [id$="-aggregationStart"],#my-svg .aggregation{fill:transparent!important;stroke:#333333!important;stroke-width:1;}#my-svg [id$="-aggregationEnd"],#my-svg .aggregation{fill:transparent!important;stroke:#333333!important;stroke-width:1;}#my-svg [id$="-lollipopStart"],#my-svg .lollipop{fill:#ECECFF!important;stroke:#333333!important;stroke-width:1;}#my-svg [id$="-lollipopEnd"],#my-svg .lollipop{fill:#ECECFF!important;stroke:#333333!important;stroke-width:1;}#my-svg .edgeTerminals{font-size:11px;line-height:initial;}#my-svg .classTitleText{text-anchor:middle;font-size:18px;fill:#333;}#my-svg .edgeLabel[data-look="neo"]{background-color:rgba(232,232,232, 0.8);text-align:center;}#my-svg .edgeLabel[data-look="neo"] p{background-color:rgba(232,232,232, 0.8);}#my-svg .edgeLabel[data-look="neo"] rect{opacity:0.5;background-color:rgba(232,232,232, 0.8);fill:rgba(232,232,232, 0.8);}#my-svg .label-icon{display:inline-block;height:1em;overflow:visible;vertical-align:-0.125em;}#my-svg .node .label-icon path{fill:currentColor;stroke:revert;stroke-width:revert;}#my-svg .node .neo-node{stroke:#9370DB;}#my-svg [data-look="neo"].node rect,#my-svg [data-look="neo"].cluster rect,#my-svg [data-look="neo"].node polygon{stroke:#9370DB;filter:drop-shadow(1px 2px 2px rgba(185, 185, 185, 1));}#my-svg [data-look="neo"].swimlane.cluster rect{filter:none;}#my-svg [data-look="neo"].node path{stroke:#9370DB;stroke-width:1px;}#my-svg [data-look="neo"].node .outer-path{filter:drop-shadow(1px 2px 2px rgba(185, 185, 185, 1));}#my-svg [data-look="neo"].node .neo-line path{stroke:#9370DB;filter:none;}#my-svg [data-look="neo"].node circle{stroke:#9370DB;filter:drop-shadow(1px 2px 2px rgba(185, 185, 185, 1));}#my-svg [data-look="neo"].node circle .state-start{fill:#000000;}#my-svg [data-look="neo"].icon-shape .icon{fill:#9370DB;filter:drop-shadow(1px 2px 2px rgba(185, 185, 185, 1));}#my-svg [data-look="neo"].icon-shape .icon-neo path{stroke:#9370DB;filter:drop-shadow(1px 2px 2px rgba(185, 185, 185, 1));}#my-svg :root{--mermaid-font-family:"trebuchet ms",verdana,arial,sans-serif;}</style><g><defs><marker id="my-svg_classDiagram-aggregationStart" class="marker aggregation classDiagram" refX="18" refY="7" markerWidth="190" markerHeight="240" orient="auto"><path d="M 18,7 L9,13 L1,7 L9,1 Z"/></marker></defs><defs><marker id="my-svg_classDiagram-aggregationEnd" class="marker aggregation classDiagram" refX="1" refY="7" markerWidth="20" markerHeight="28" orient="auto"><path d="M 18,7 L9,13 L1,7 L9,1 Z"/></marker></defs><defs><marker id="my-svg_classDiagram-aggregationStart-margin" class="marker aggregation classDiagram" refX="15" refY="7" markerWidth="190" markerHeight="240" orient="auto" markerUnits="userSpaceOnUse"><path d="M 18,7 L9,13 L1,7 L9,1 Z" style="stroke-width: 2;"/></marker></defs><defs><marker id="my-svg_classDiagram-aggregationEnd-margin" class="marker aggregation classDiagram" refX="1" refY="7" markerWidth="20" markerHeight="28" orient="auto" markerUnits="userSpaceOnUse"><path d="M 18,7 L9,13 L1,7 L9,1 Z" style="stroke-width: 2;"/></marker></defs><defs><marker id="my-svg_classDiagram-extensionStart" class="marker extension classDiagram" refX="18" refY="7" markerWidth="20" markerHeight="28" orient="auto" markerUnits="userSpaceOnUse"><path d="M 1,7 L18,13 V 1 Z"/></marker></defs><defs><marker id="my-svg_classDiagram-extensionEnd" class="marker extension classDiagram" refX="1" refY="7" markerWidth="20" markerHeight="28" orient="auto"><path d="M 1,1 V 13 L18,7 Z"/></marker></defs><marker id="my-svg_classDiagram-extensionStart-margin" class="marker extension classDiagram" refX="18" refY="7" markerWidth="20" markerHeight="28" orient="auto" markerUnits="userSpaceOnUse" viewBox="0 0 20 14"><polygon points="10,7 18,13 18,1" style="stroke-width: 2; stroke-dasharray: 0;"/></marker><defs><marker id="my-svg_classDiagram-extensionEnd-margin" class="marker extension classDiagram" refX="9" refY="7" markerWidth="20" markerHeight="28" orient="auto" markerUnits="userSpaceOnUse" viewBox="0 0 20 14"><polygon points="10,1 10,13 18,7" style="stroke-width: 2; stroke-dasharray: 0;"/></marker></defs><defs><marker id="my-svg_classDiagram-compositionStart" class="marker composition classDiagram" refX="18" refY="7" markerWidth="190" markerHeight="240" orient="auto"><path d="M 18,7 L9,13 L1,7 L9,1 Z"/></marker></defs><defs><marker id="my-svg_classDiagram-compositionEnd" class="marker composition classDiagram" refX="1" refY="7" markerWidth="20" markerHeight="28" orient="auto"><path d="M 18,7 L9,13 L1,7 L9,1 Z"/></marker></defs><defs><marker id="my-svg_classDiagram-compositionStart-margin" class="marker composition classDiagram" refX="15" refY="7" markerWidth="190" markerHeight="240" orient="auto" markerUnits="userSpaceOnUse"><path viewBox="0 0 15 15" d="M 18,7 L9,13 L1,7 L9,1 Z" style="stroke-width: 0;"/></marker></defs><defs><marker id="my-svg_classDiagram-compositionEnd-margin" class="marker composition classDiagram" refX="3.5" refY="7" markerWidth="20" markerHeight="28" orient="auto" markerUnits="userSpaceOnUse"><path d="M 18,7 L9,13 L1,7 L9,1 Z" style="stroke-width: 0;"/></marker></defs><defs><marker id="my-svg_classDiagram-dependencyStart" class="marker dependency classDiagram" refX="6" refY="7" markerWidth="190" markerHeight="240" orient="auto"><path d="M 5,7 L9,13 L1,7 L9,1 Z"/></marker></defs><defs><marker id="my-svg_classDiagram-dependencyEnd" class="marker dependency classDiagram" refX="13" refY="7" markerWidth="20" markerHeight="28" orient="auto"><path d="M 18,7 L9,13 L14,7 L9,1 Z"/></marker></defs><defs><marker id="my-svg_classDiagram-dependencyStart-margin" class="marker dependency classDiagram" refX="4" refY="7" markerWidth="190" markerHeight="240" orient="auto" markerUnits="userSpaceOnUse"><path d="M 5,7 L9,13 L1,7 L9,1 Z" style="stroke-width: 0;"/></marker></defs><defs><marker id="my-svg_classDiagram-dependencyEnd-margin" class="marker dependency classDiagram" refX="16" refY="7" markerWidth="20" markerHeight="28" orient="auto" markerUnits="userSpaceOnUse"><path d="M 18,7 L9,13 L14,7 L9,1 Z" style="stroke-width: 0;"/></marker></defs><defs><marker id="my-svg_classDiagram-lollipopStart" class="marker lollipop classDiagram" refX="13" refY="7" markerWidth="190" markerHeight="240" orient="auto"><circle fill="transparent" cx="7" cy="7" r="6"/></marker></defs><defs><marker id="my-svg_classDiagram-lollipopEnd" class="marker lollipop classDiagram" refX="1" refY="7" markerWidth="190" markerHeight="240" orient="auto"><circle fill="transparent" cx="7" cy="7" r="6"/></marker></defs><defs><marker id="my-svg_classDiagram-lollipopStart-margin" class="marker lollipop classDiagram" refX="13" refY="7" markerWidth="190" markerHeight="240" orient="auto" markerUnits="userSpaceOnUse"><circle fill="transparent" cx="7" cy="7" r="6" stroke-width="2"/></marker></defs><defs><marker id="my-svg_classDiagram-lollipopEnd-margin" class="marker lollipop classDiagram" refX="1" refY="7" markerWidth="190" markerHeight="240" orient="auto" markerUnits="userSpaceOnUse"><circle fill="transparent" cx="7" cy="7" r="6" stroke-width="2"/></marker></defs><g class="root"><g class="clusters"/><g class="edgePaths"><path d="M1120.398,44L1120.398,48.167C1120.398,52.333,1120.398,60.667,1120.398,69C1120.398,77.333,1120.398,85.667,1120.398,89.833L1120.398,94" id="my-svg-edgeNote0" class="edge-thickness-normal edge-pattern-dotted relation" style="fill: none;;;fill: none" data-edge="true" data-et="edge" data-id="edgeNote0" data-points="W3sieCI6MTEyMC4zOTg0Mzc1LCJ5Ijo0NH0seyJ4IjoxMTIwLjM5ODQzNzUsInkiOjY5fSx7IngiOjExMjAuMzk4NDM3NSwieSI6OTR9XQ==" data-look="classic"/><path d="M846.82,199L846.82,216.667C846.82,234.333,846.82,269.667,854.352,293.5C861.883,317.333,876.946,329.667,884.478,335.833L892.01,342" id="my-svg-edgeNote1" class="edge-thickness-normal edge-pattern-dotted relation" style="fill: none;;;fill: none" data-edge="true" data-et="edge" data-id="edgeNote1" data-points="W3sieCI6ODQ2LjgyMDMxMjUsInkiOjE5OX0seyJ4Ijo4NDYuODIwMzEyNSwieSI6MzA1fSx7IngiOjg5Mi4wMDk1NTYzNjE2MDcxLCJ5IjozNDJ9XQ==" data-look="classic"/><path d="M690.797,435L690.797,450.667C690.797,466.333,690.797,497.667,698.858,519.5C706.919,541.333,723.041,553.667,731.102,559.833L739.163,566" id="my-svg-edgeNote2" class="edge-thickness-normal edge-pattern-dotted relation" style="fill: none;;;fill: none" data-edge="true" data-et="edge" data-id="edgeNote2" data-points="W3sieCI6NjkwLjc5Njg3NSwieSI6NDM1fSx7IngiOjY5MC43OTY4NzUsInkiOjUyOX0seyJ4Ijo3MzkuMTYzMjI1NDQ2NDI4NiwieSI6NTY2fV0=" data-look="classic"/><path d="M548.313,659L548.313,674.667C548.313,690.333,548.313,721.667,556.266,743.5C564.219,765.333,580.125,777.667,588.078,783.833L596.031,790" id="my-svg-edgeNote3" class="edge-thickness-normal edge-pattern-dotted relation" style="fill: none;;;fill: none" data-edge="true" data-et="edge" data-id="edgeNote3" data-points="W3sieCI6NTQ4LjMxMjUsInkiOjY1OX0seyJ4Ijo1NDguMzEyNSwieSI6NzUzfSx7IngiOjU5Ni4wMzEwNDA3MzY2MDcxLCJ5Ijo3OTB9XQ==" data-look="classic"/><path d="M373.539,883L373.539,898.667C373.539,914.333,373.539,945.667,382.327,967.5C391.115,989.333,408.691,1001.667,417.479,1007.833L426.267,1014" id="my-svg-edgeNote4" class="edge-thickness-normal edge-pattern-dotted relation" style="fill: none;;;fill: none" data-edge="true" data-et="edge" data-id="edgeNote4" data-points="W3sieCI6MzczLjUzOTA2MjUsInkiOjg4M30seyJ4IjozNzMuNTM5MDYyNSwieSI6OTc3fSx7IngiOjQyNi4yNjcxNTk1OTgyMTQzLCJ5IjoxMDE0fV0=" data-look="classic"/><path d="M157.445,1107L157.445,1122.667C157.445,1138.333,157.445,1169.667,168.217,1191.756C178.99,1213.845,200.534,1226.69,211.306,1233.113L222.078,1239.535" id="my-svg-edgeNote5" class="edge-thickness-normal edge-pattern-dotted relation" style="fill: none;;;fill: none" data-edge="true" data-et="edge" data-id="edgeNote5" data-points="W3sieCI6MTU3LjQ0NTMxMjUsInkiOjExMDd9LHsieCI6MTU3LjQ0NTMxMjUsInkiOjEyMDF9LHsieCI6MjIyLjA3ODEyNSwieSI6MTIzOS41MzUwODAwNTgyMjQxfV0=" data-look="classic"/><path d="M1120.398,268L1120.398,274.167C1120.398,280.333,1120.398,292.667,1113.641,304.366C1106.883,316.066,1093.367,327.133,1086.609,332.666L1079.852,338.199" id="my-svg-id_EntryModule_Core1_1" class="edge-thickness-normal edge-pattern-dashed relation" style=";;;" data-edge="true" data-et="edge" data-id="id_EntryModule_Core1_1" data-points="W3sieCI6MTEyMC4zOTg0Mzc1LCJ5IjoyNjh9LHsieCI6MTEyMC4zOTg0Mzc1LCJ5IjozMDV9LHsieCI6MTA3NS4yMDkxOTM2MzgzOTMsInkiOjM0Mn1d" data-look="classic" marker-end="url(#my-svg_classDiagram-dependencyEnd)"/><path d="M983.609,492L983.609,498.167C983.609,504.333,983.609,516.667,976.343,528.392C969.076,540.118,954.542,551.236,947.275,556.795L940.009,562.354" id="my-svg-id_Core1_Core2_2" class="edge-thickness-normal edge-pattern-solid relation" style=";;;" data-edge="true" data-et="edge" data-id="id_Core1_Core2_2" data-points="W3sieCI6OTgzLjYwOTM3NSwieSI6NDkyfSx7IngiOjk4My42MDkzNzUsInkiOjUyOX0seyJ4Ijo5MzUuMjQzMDI0NTUzNTcxNCwieSI6NTY2fV0=" data-look="classic" marker-end="url(#my-svg_classDiagram-dependencyEnd)"/><path d="M837.203,716L837.203,722.167C837.203,728.333,837.203,740.667,830.04,752.387C822.877,764.108,808.552,775.216,801.389,780.77L794.226,786.323" id="my-svg-id_Core2_Core3_3" class="edge-thickness-normal edge-pattern-solid relation" style=";;;" data-edge="true" data-et="edge" data-id="id_Core2_Core3_3" data-points="W3sieCI6ODM3LjIwMzEyNSwieSI6NzE2fSx7IngiOjgzNy4yMDMxMjUsInkiOjc1M30seyJ4Ijo3ODkuNDg0NTg0MjYzMzkyOSwieSI6NzkwfV0=" data-look="classic" marker-end="url(#my-svg_classDiagram-dependencyEnd)"/><path d="M692.758,940L692.758,946.167C692.758,952.333,692.758,964.667,684.788,976.426C676.819,988.185,660.88,999.369,652.911,1004.961L644.941,1010.554" id="my-svg-id_Core3_Core4_4" class="edge-thickness-normal edge-pattern-solid relation" style=";;;" data-edge="true" data-et="edge" data-id="id_Core3_Core4_4" data-points="W3sieCI6NjkyLjc1NzgxMjUsInkiOjk0MH0seyJ4Ijo2OTIuNzU3ODEyNSwieSI6OTc3fSx7IngiOjY0MC4wMjk3MTU0MDE3ODU3LCJ5IjoxMDE0fV0=" data-look="classic" marker-end="url(#my-svg_classDiagram-dependencyEnd)"/><path d="M533.148,1164L533.148,1170.167C533.148,1176.333,533.148,1188.667,523.235,1200.744C513.322,1212.821,493.496,1224.642,483.582,1230.552L473.669,1236.462" id="my-svg-id_Core4_ExternalResource_5" class="edge-thickness-normal edge-pattern-dashed relation" style=";;;" data-edge="true" data-et="edge" data-id="id_Core4_ExternalResource_5" data-points="W3sieCI6NTMzLjE0ODQzNzUsInkiOjExNjR9LHsieCI6NTMzLjE0ODQzNzUsInkiOjEyMDF9LHsieCI6NDY4LjUxNTYyNSwieSI6MTIzOS41MzUwODAwNTgyMjQxfV0=" data-look="classic" marker-end="url(#my-svg_classDiagram-dependencyEnd)"/></g><g class="edgeLabels"><g class="edgeLabel"><g class="label" data-id="edgeNote0" transform="translate(0, 0)"><foreignObject width="0" height="0"><div xmlns="http://www.w3.org/1999/xhtml" class="labelBkg" style="display: table-cell; white-space: nowrap; line-height: 1.5; max-width: 200px; text-align: center;"><span class="edgeLabel"></span></div></foreignObject></g></g><g class="edgeLabel"><g class="label" data-id="edgeNote1" transform="translate(0, 0)"><foreignObject width="0" height="0"><div xmlns="http://www.w3.org/1999/xhtml" class="labelBkg" style="display: table-cell; white-space: nowrap; line-height: 1.5; max-width: 200px; text-align: center;"><span class="edgeLabel"></span></div></foreignObject></g></g><g class="edgeLabel"><g class="label" data-id="edgeNote2" transform="translate(0, 0)"><foreignObject width="0" height="0"><div xmlns="http://www.w3.org/1999/xhtml" class="labelBkg" style="display: table-cell; white-space: nowrap; line-height: 1.5; max-width: 200px; text-align: center;"><span class="edgeLabel"></span></div></foreignObject></g></g><g class="edgeLabel"><g class="label" data-id="edgeNote3" transform="translate(0, 0)"><foreignObject width="0" height="0"><div xmlns="http://www.w3.org/1999/xhtml" class="labelBkg" style="display: table-cell; white-space: nowrap; line-height: 1.5; max-width: 200px; text-align: center;"><span class="edgeLabel"></span></div></foreignObject></g></g><g class="edgeLabel"><g class="label" data-id="edgeNote4" transform="translate(0, 0)"><foreignObject width="0" height="0"><div xmlns="http://www.w3.org/1999/xhtml" class="labelBkg" style="display: table-cell; white-space: nowrap; line-height: 1.5; max-width: 200px; text-align: center;"><span class="edgeLabel"></span></div></foreignObject></g></g><g class="edgeLabel"><g class="label" data-id="edgeNote5" transform="translate(0, 0)"><foreignObject width="0" height="0"><div xmlns="http://www.w3.org/1999/xhtml" class="labelBkg" style="display: table-cell; white-space: nowrap; line-height: 1.5; max-width: 200px; text-align: center;"><span class="edgeLabel"></span></div></foreignObject></g></g><g class="edgeLabel" transform="translate(1120.3984375, 305)"><g class="label" data-id="id_EntryModule_Core1_1" transform="translate(-40, -12)"><foreignObject width="80" height="24"><div xmlns="http://www.w3.org/1999/xhtml" class="labelBkg" style="display: table-cell; white-space: nowrap; line-height: 1.5; max-width: 200px; text-align: center;"><span class="edgeLabel"><p>创建或调用</p></span></div></foreignObject></g></g><g class="edgeLabel" transform="translate(983.609375, 529)"><g class="label" data-id="id_Core1_Core2_2" transform="translate(-56, -12)"><foreignObject width="112" height="24"><div xmlns="http://www.w3.org/1999/xhtml" class="labelBkg" style="display: table-cell; white-space: nowrap; line-height: 1.5; max-width: 200px; text-align: center;"><span class="edgeLabel"><p>传递控制或数据</p></span></div></foreignObject></g></g><g class="edgeLabel" transform="translate(837.203125, 753)"><g class="label" data-id="id_Core2_Core3_3" transform="translate(-56, -12)"><foreignObject width="112" height="24"><div xmlns="http://www.w3.org/1999/xhtml" class="labelBkg" style="display: table-cell; white-space: nowrap; line-height: 1.5; max-width: 200px; text-align: center;"><span class="edgeLabel"><p>传递控制或数据</p></span></div></foreignObject></g></g><g class="edgeLabel" transform="translate(692.7578125, 977)"><g class="label" data-id="id_Core3_Core4_4" transform="translate(-56, -12)"><foreignObject width="112" height="24"><div xmlns="http://www.w3.org/1999/xhtml" class="labelBkg" style="display: table-cell; white-space: nowrap; line-height: 1.5; max-width: 200px; text-align: center;"><span class="edgeLabel"><p>传递控制或数据</p></span></div></foreignObject></g></g><g class="edgeLabel" transform="translate(533.1484375, 1201)"><g class="label" data-id="id_Core4_ExternalResource_5" transform="translate(-32, -12)"><foreignObject width="64" height="24"><div xmlns="http://www.w3.org/1999/xhtml" class="labelBkg" style="display: table-cell; white-space: nowrap; line-height: 1.5; max-width: 200px; text-align: center;"><span class="edgeLabel"><p>按需访问</p></span></div></foreignObject></g></g></g><g class="nodes"><g class="node default" id="my-svg-classId-EntryModule-0" data-look="classic" transform="translate(1120.3984375, 181)"><g class="basic label-container outer-path"><path d="M-126.6953125 -87 L126.6953125 -87 L126.6953125 87 L-126.6953125 87" stroke="none" stroke-width="0" fill="#ECECFF" style=""/><path d="M-126.6953125 -87 C-46.76215809021198 -87, 33.170996319576034 -87, 126.6953125 -87 M-126.6953125 -87 C-71.0926894661225 -87, -15.490066432244987 -87, 126.6953125 -87 M126.6953125 -87 C126.6953125 -38.717785352498574, 126.6953125 9.564429295002853, 126.6953125 87 M126.6953125 -87 C126.6953125 -32.90179212552299, 126.6953125 21.196415748954024, 126.6953125 87 M126.6953125 87 C58.286799260596354 87, -10.121713978807293 87, -126.6953125 87 M126.6953125 87 C60.38515529491221 87, -5.925001910175581 87, -126.6953125 87 M-126.6953125 87 C-126.6953125 38.975570286241826, -126.6953125 -9.048859427516348, -126.6953125 -87 M-126.6953125 87 C-126.6953125 43.68470751653758, -126.6953125 0.3694150330751569, -126.6953125 -87" stroke="#9370DB" stroke-width="1.3" fill="none" stroke-dasharray="0 0" style=""/></g><g class="annotation-group text" transform="translate(-40.390625, -63)"><g class="label" style="" transform="translate(0,-12)"><foreignObject width="80.78125" height="24"><div xmlns="http://www.w3.org/1999/xhtml" style="display: table-cell; white-space: nowrap; line-height: 1.5; max-width: 132px; text-align: center;"><span class="nodeLabel markdown-node-label" style=""><p>«入口模块»</p></span></div></foreignObject></g></g><g class="label-group text" transform="translate(-46.953125, -39)"><g class="label" style="font-weight: bolder" transform="translate(0,-12)"><foreignObject width="93.90625" height="24"><div xmlns="http://www.w3.org/1999/xhtml" style="display: table-cell; white-space: nowrap; line-height: 1.5; max-width: 143px; text-align: center;"><span class="nodeLabel markdown-node-label" style=""><p>EntryModule</p></span></div></foreignObject></g></g><g class="members-group text" transform="translate(-114.6953125, 9)"/><g class="methods-group text" transform="translate(-114.6953125, 39)"><g class="label" style="" transform="translate(0,-12)"><foreignObject width="182.4375" height="24"><div xmlns="http://www.w3.org/1999/xhtml" style="display: table-cell; white-space: nowrap; line-height: 1.5; max-width: 243px; text-align: center;"><span class="nodeLabel markdown-node-label" style=""><p>+load_config() : 读取配置</p></span></div></foreignObject></g><g class="label" style="" transform="translate(0,12)"><foreignObject width="123.359375" height="24"><div xmlns="http://www.w3.org/1999/xhtml" style="display: table-cell; white-space: nowrap; line-height: 1.5; max-width: 181px; text-align: center;"><span class="nodeLabel markdown-node-label" style=""><p>+run() : 启动实践</p></span></div></foreignObject></g></g><g class="divider" style=""><path d="M-126.6953125 -15 C-65.34830386664603 -14.999757895507644, -4.001295233292083 -14.99951579101529, 126.6953125 -14.999 M-126.6953125 -15 C-41.27525850482958 -14.999662891813795, 44.14479549034084 -14.99932578362759, 126.6953125 -14.999" stroke="#9370DB" stroke-width="1.3" fill="none" stroke-dasharray="0 0" style=""/></g><g class="divider" style=""><path d="M-126.6953125 9 C-47.92415139719121 9.000310868490509, 30.84700970561758 9.000621736981017, 126.6953125 9.001 M-126.6953125 9 C-64.48506805970531 9.00024551123168, -2.2748236194106255 9.000491022463363, 126.6953125 9.001" stroke="#9370DB" stroke-width="1.3" fill="none" stroke-dasharray="0 0" style=""/></g></g><g class="node default" id="my-svg-classId-Core1-1" data-look="classic" transform="translate(983.609375, 417)"><g class="basic label-container outer-path"><path d="M-164.8125 -75 L164.8125 -75 L164.8125 75 L-164.8125 75" stroke="none" stroke-width="0" fill="#ECECFF" style=""/><path d="M-164.8125 -75 C-73.71762100414928 -75, 17.37725799170144 -75, 164.8125 -75 M-164.8125 -75 C-39.9728711942321 -75, 84.8667576115358 -75, 164.8125 -75 M164.8125 -75 C164.8125 -41.70885707139788, 164.8125 -8.41771414279576, 164.8125 75 M164.8125 -75 C164.8125 -38.41115240767229, 164.8125 -1.8223048153445802, 164.8125 75 M164.8125 75 C74.20323660639394 75, -16.406026787212113 75, -164.8125 75 M164.8125 75 C67.70008563239412 75, -29.41232873521176 75, -164.8125 75 M-164.8125 75 C-164.8125 34.724944086848055, -164.8125 -5.55011182630389, -164.8125 -75 M-164.8125 75 C-164.8125 30.801130067198585, -164.8125 -13.39773986560283, -164.8125 -75" stroke="#9370DB" stroke-width="1.3" fill="none" stroke-dasharray="0 0" style=""/></g><g class="annotation-group text" transform="translate(-47, -51)"><g class="label" style="" transform="translate(0,-12)"><foreignObject width="94" height="24"><div xmlns="http://www.w3.org/1999/xhtml" style="display: table-cell; white-space: nowrap; line-height: 1.5; max-width: 144px; text-align: center;"><span class="nodeLabel markdown-node-label" style=""><p>«核心组件 1»</p></span></div></foreignObject></g></g><g class="label-group text" transform="translate(-22.125, -27)"><g class="label" style="font-weight: bolder" transform="translate(0,-12)"><foreignObject width="44.25" height="24"><div xmlns="http://www.w3.org/1999/xhtml" style="display: table-cell; white-space: nowrap; line-height: 1.5; max-width: 92px; text-align: center;"><span class="nodeLabel markdown-node-label" style=""><p>Core1</p></span></div></foreignObject></g></g><g class="members-group text" transform="translate(-152.8125, 21)"/><g class="methods-group text" transform="translate(-152.8125, 51)"><g class="label" style="" transform="translate(0,-12)"><foreignObject width="258.625" height="24"><div xmlns="http://www.w3.org/1999/xhtml" style="display: table-cell; white-space: nowrap; line-height: 1.5; max-width: 328px; text-align: center;"><span class="nodeLabel markdown-node-label" style=""><p>+execute() : 执行RLTrainingTool职责</p></span></div></foreignObject></g></g><g class="divider" style=""><path d="M-164.8125 -3 C-33.229240669639154 -2.999600809224633, 98.35401866072169 -2.999201618449266, 164.8125 -2.999 M-164.8125 -3 C-47.72949366979563 -2.9996447993740456, 69.35351266040874 -2.999289598748091, 164.8125 -2.999" stroke="#9370DB" stroke-width="1.3" fill="none" stroke-dasharray="0 0" style=""/></g><g class="divider" style=""><path d="M-164.8125 21 C-48.063857176049694 21.000354186250508, 68.68478564790061 21.00070837250102, 164.8125 21.001 M-164.8125 21 C-35.88214425346479 21.000391142527864, 93.04821149307043 21.000782285055724, 164.8125 21.001" stroke="#9370DB" stroke-width="1.3" fill="none" stroke-dasharray="0 0" style=""/></g></g><g class="node default" id="my-svg-classId-Core2-2" data-look="classic" transform="translate(837.203125, 641)"><g class="basic label-container outer-path"><path d="M-145.9296875 -75 L145.9296875 -75 L145.9296875 75 L-145.9296875 75" stroke="none" stroke-width="0" fill="#ECECFF" style=""/><path d="M-145.9296875 -75 C-82.95656687083901 -75, -19.983446241678024 -75, 145.9296875 -75 M-145.9296875 -75 C-33.09649846787805 -75, 79.7366905642439 -75, 145.9296875 -75 M145.9296875 -75 C145.9296875 -33.36748812747532, 145.9296875 8.265023745049362, 145.9296875 75 M145.9296875 -75 C145.9296875 -23.067244297139936, 145.9296875 28.865511405720127, 145.9296875 75 M145.9296875 75 C40.62457880304284 75, -64.68052989391433 75, -145.9296875 75 M145.9296875 75 C51.94731199716166 75, -42.035063505676675 75, -145.9296875 75 M-145.9296875 75 C-145.9296875 36.38168192787464, -145.9296875 -2.236636144250724, -145.9296875 -75 M-145.9296875 75 C-145.9296875 21.96715090676188, -145.9296875 -31.06569818647624, -145.9296875 -75" stroke="#9370DB" stroke-width="1.3" fill="none" stroke-dasharray="0 0" style=""/></g><g class="annotation-group text" transform="translate(-47, -51)"><g class="label" style="" transform="translate(0,-12)"><foreignObject width="94" height="24"><div xmlns="http://www.w3.org/1999/xhtml" style="display: table-cell; white-space: nowrap; line-height: 1.5; max-width: 147px; text-align: center;"><span class="nodeLabel markdown-node-label" style=""><p>«核心组件 2»</p></span></div></foreignObject></g></g><g class="label-group text" transform="translate(-22.125, -27)"><g class="label" style="font-weight: bolder" transform="translate(0,-12)"><foreignObject width="44.25" height="24"><div xmlns="http://www.w3.org/1999/xhtml" style="display: table-cell; white-space: nowrap; line-height: 1.5; max-width: 95px; text-align: center;"><span class="nodeLabel markdown-node-label" style=""><p>Core2</p></span></div></foreignObject></g></g><g class="members-group text" transform="translate(-133.9296875, 21)"/><g class="methods-group text" transform="translate(-133.9296875, 51)"><g class="label" style="" transform="translate(0,-12)"><foreignObject width="220.859375" height="24"><div xmlns="http://www.w3.org/1999/xhtml" style="display: table-cell; white-space: nowrap; line-height: 1.5; max-width: 279px; text-align: center;"><span class="nodeLabel markdown-node-label" style=""><p>+execute() : 执行数据加载职责</p></span></div></foreignObject></g></g><g class="divider" style=""><path d="M-145.9296875 -3 C-61.096155553336956 -2.999709334223214, 23.737376393326088 -2.999418668446428, 145.9296875 -2.999 M-145.9296875 -3 C-56.56576609781477 -2.9996938117153094, 32.798155304370454 -2.9993876234306183, 145.9296875 -2.999" stroke="#9370DB" stroke-width="1.3" fill="none" stroke-dasharray="0 0" style=""/></g><g class="divider" style=""><path d="M-145.9296875 21 C-35.3393881924588 21.000378916385014, 75.2509111150824 21.00075783277003, 145.9296875 21.001 M-145.9296875 21 C-41.916828349981074 21.000356380051695, 62.09603080003785 21.00071276010339, 145.9296875 21.001" stroke="#9370DB" stroke-width="1.3" fill="none" stroke-dasharray="0 0" style=""/></g></g><g class="node default" id="my-svg-classId-Core3-3" data-look="classic" transform="translate(692.7578125, 865)"><g class="basic label-container outer-path"><path d="M-160.890625 -75 L160.890625 -75 L160.890625 75 L-160.890625 75" stroke="none" stroke-width="0" fill="#ECECFF" style=""/><path d="M-160.890625 -75 C-59.89277380174741 -75, 41.10507739650518 -75, 160.890625 -75 M-160.890625 -75 C-35.033866256831644 -75, 90.82289248633671 -75, 160.890625 -75 M160.890625 -75 C160.890625 -40.84380997476596, 160.890625 -6.687619949531921, 160.890625 75 M160.890625 -75 C160.890625 -37.47544885770722, 160.890625 0.04910228458555821, 160.890625 75 M160.890625 75 C72.36322151241508 75, -16.16418197516984 75, -160.890625 75 M160.890625 75 C71.63138127441286 75, -17.62786245117428 75, -160.890625 75 M-160.890625 75 C-160.890625 25.990939082036057, -160.890625 -23.018121835927886, -160.890625 -75 M-160.890625 75 C-160.890625 36.49603064417177, -160.890625 -2.0079387116564646, -160.890625 -75" stroke="#9370DB" stroke-width="1.3" fill="none" stroke-dasharray="0 0" style=""/></g><g class="annotation-group text" transform="translate(-47, -51)"><g class="label" style="" transform="translate(0,-12)"><foreignObject width="94" height="24"><div xmlns="http://www.w3.org/1999/xhtml" style="display: table-cell; white-space: nowrap; line-height: 1.5; max-width: 147px; text-align: center;"><span class="nodeLabel markdown-node-label" style=""><p>«核心组件 3»</p></span></div></foreignObject></g></g><g class="label-group text" transform="translate(-22.125, -27)"><g class="label" style="font-weight: bolder" transform="translate(0,-12)"><foreignObject width="44.25" height="24"><div xmlns="http://www.w3.org/1999/xhtml" style="display: table-cell; white-space: nowrap; line-height: 1.5; max-width: 95px; text-align: center;"><span class="nodeLabel markdown-node-label" style=""><p>Core3</p></span></div></foreignObject></g></g><g class="members-group text" transform="translate(-148.890625, 21)"/><g class="methods-group text" transform="translate(-148.890625, 51)"><g class="label" style="" transform="translate(0,-12)"><foreignObject width="250.78125" height="24"><div xmlns="http://www.w3.org/1999/xhtml" style="display: table-cell; white-space: nowrap; line-height: 1.5; max-width: 314px; text-align: center;"><span class="nodeLabel markdown-node-label" style=""><p>+execute() : 执行SFT 快速训练职责</p></span></div></foreignObject></g></g><g class="divider" style=""><path d="M-160.890625 -3 C-65.48904294284523 -2.9997035203820697, 29.91253911430954 -2.9994070407641393, 160.890625 -2.999 M-160.890625 -3 C-56.779371202366974 -2.9996764533241214, 47.33188259526605 -2.9993529066482423, 160.890625 -2.999" stroke="#9370DB" stroke-width="1.3" fill="none" stroke-dasharray="0 0" style=""/></g><g class="divider" style=""><path d="M-160.890625 21 C-77.921079093198 21.00025784456337, 5.048466813603994 21.00051568912674, 160.890625 21.001 M-160.890625 21 C-54.495601949260674 21.00033064394849, 51.89942110147865 21.000661287896985, 160.890625 21.001" stroke="#9370DB" stroke-width="1.3" fill="none" stroke-dasharray="0 0" style=""/></g></g><g class="node default" id="my-svg-classId-Core4-4" data-look="classic" transform="translate(533.1484375, 1089)"><g class="basic label-container outer-path"><path d="M-176.2578125 -75 L176.2578125 -75 L176.2578125 75 L-176.2578125 75" stroke="none" stroke-width="0" fill="#ECECFF" style=""/><path d="M-176.2578125 -75 C-72.98716847962508 -75, 30.283475540749833 -75, 176.2578125 -75 M-176.2578125 -75 C-97.57202749111305 -75, -18.886242482226095 -75, 176.2578125 -75 M176.2578125 -75 C176.2578125 -30.762285662462382, 176.2578125 13.475428675075236, 176.2578125 75 M176.2578125 -75 C176.2578125 -32.6730619159392, 176.2578125 9.653876168121599, 176.2578125 75 M176.2578125 75 C98.91831839214198 75, 21.578824284283968 75, -176.2578125 75 M176.2578125 75 C70.29002098451272 75, -35.677770530974556 75, -176.2578125 75 M-176.2578125 75 C-176.2578125 33.87665145843009, -176.2578125 -7.246697083139821, -176.2578125 -75 M-176.2578125 75 C-176.2578125 23.163146193549203, -176.2578125 -28.673707612901595, -176.2578125 -75" stroke="#9370DB" stroke-width="1.3" fill="none" stroke-dasharray="0 0" style=""/></g><g class="annotation-group text" transform="translate(-47, -51)"><g class="label" style="" transform="translate(0,-12)"><foreignObject width="94" height="24"><div xmlns="http://www.w3.org/1999/xhtml" style="display: table-cell; white-space: nowrap; line-height: 1.5; max-width: 147px; text-align: center;"><span class="nodeLabel markdown-node-label" style=""><p>«核心组件 4»</p></span></div></foreignObject></g></g><g class="label-group text" transform="translate(-22.125, -27)"><g class="label" style="font-weight: bolder" transform="translate(0,-12)"><foreignObject width="44.25" height="24"><div xmlns="http://www.w3.org/1999/xhtml" style="display: table-cell; white-space: nowrap; line-height: 1.5; max-width: 95px; text-align: center;"><span class="nodeLabel markdown-node-label" style=""><p>Core4</p></span></div></foreignObject></g></g><g class="members-group text" transform="translate(-164.2578125, 21)"/><g class="methods-group text" transform="translate(-164.2578125, 51)"><g class="label" style="" transform="translate(0,-12)"><foreignObject width="281.515625" height="24"><div xmlns="http://www.w3.org/1999/xhtml" style="display: table-cell; white-space: nowrap; line-height: 1.5; max-width: 346px; text-align: center;"><span class="nodeLabel markdown-node-label" style=""><p>+execute() : 执行GRPO 与奖励函数职责</p></span></div></foreignObject></g></g><g class="divider" style=""><path d="M-176.2578125 -3 C-100.93691673493149 -2.999786333171005, -25.616020969862973 -2.9995726663420093, 176.2578125 -2.999 M-176.2578125 -3 C-58.017412746038445 -2.9996645811096916, 60.22298700792311 -2.9993291622193827, 176.2578125 -2.999" stroke="#9370DB" stroke-width="1.3" fill="none" stroke-dasharray="0 0" style=""/></g><g class="divider" style=""><path d="M-176.2578125 21 C-80.32177882392506 21.000272146897533, 15.614254852149884 21.00054429379507, 176.2578125 21.001 M-176.2578125 21 C-39.4436231916271 21.000388108156365, 97.3705661167458 21.00077621631273, 176.2578125 21.001" stroke="#9370DB" stroke-width="1.3" fill="none" stroke-dasharray="0 0" style=""/></g></g><g class="node default" id="my-svg-classId-ExternalResource-5" data-look="classic" transform="translate(345.296875, 1313)"><g class="basic label-container outer-path"><path d="M-123.21875 -75 L123.21875 -75 L123.21875 75 L-123.21875 75" stroke="none" stroke-width="0" fill="#ECECFF" style=""/><path d="M-123.21875 -75 C-49.233534003543426 -75, 24.75168199291315 -75, 123.21875 -75 M-123.21875 -75 C-62.263561632679085 -75, -1.3083732653581706 -75, 123.21875 -75 M123.21875 -75 C123.21875 -25.256705467797254, 123.21875 24.486589064405493, 123.21875 75 M123.21875 -75 C123.21875 -40.86953585297511, 123.21875 -6.739071705950224, 123.21875 75 M123.21875 75 C39.08359393567977 75, -45.051562128640455 75, -123.21875 75 M123.21875 75 C70.45301068465398 75, 17.68727136930795 75, -123.21875 75 M-123.21875 75 C-123.21875 30.960476916367803, -123.21875 -13.079046167264394, -123.21875 -75 M-123.21875 75 C-123.21875 39.194913178355705, -123.21875 3.38982635671141, -123.21875 -75" stroke="#9370DB" stroke-width="1.3" fill="none" stroke-dasharray="0 0" style=""/></g><g class="annotation-group text" transform="translate(-40.390625, -51)"><g class="label" style="" transform="translate(0,-12)"><foreignObject width="80.78125" height="24"><div xmlns="http://www.w3.org/1999/xhtml" style="display: table-cell; white-space: nowrap; line-height: 1.5; max-width: 132px; text-align: center;"><span class="nodeLabel markdown-node-label" style=""><p>«外部资源»</p></span></div></foreignObject></g></g><g class="label-group text" transform="translate(-65.796875, -27)"><g class="label" style="font-weight: bolder" transform="translate(0,-12)"><foreignObject width="131.59375" height="24"><div xmlns="http://www.w3.org/1999/xhtml" style="display: table-cell; white-space: nowrap; line-height: 1.5; max-width: 180px; text-align: center;"><span class="nodeLabel markdown-node-label" style=""><p>ExternalResource</p></span></div></foreignObject></g></g><g class="members-group text" transform="translate(-111.21875, 21)"/><g class="methods-group text" transform="translate(-111.21875, 51)"><g class="label" style="" transform="translate(0,-12)"><foreignObject width="156.640625" height="24"><div xmlns="http://www.w3.org/1999/xhtml" style="display: table-cell; white-space: nowrap; line-height: 1.5; max-width: 217px; text-align: center;"><span class="nodeLabel markdown-node-label" style=""><p>+connect() : 建立连接</p></span></div></foreignObject></g></g><g class="divider" style=""><path d="M-123.21875 -3 C-57.55900998846428 -2.9997335643316805, 8.100730023071435 -2.9994671286633605, 123.21875 -2.999 M-123.21875 -3 C-53.52769986428616 -2.99971720598474, 16.163350271427674 -2.9994344119694794, 123.21875 -2.999" stroke="#9370DB" stroke-width="1.3" fill="none" stroke-dasharray="0 0" style=""/></g><g class="divider" style=""><path d="M-123.21875 21 C-73.66548403905017 21.00020107843149, -24.11221807810034 21.000402156862986, 123.21875 21.001 M-123.21875 21 C-55.65639416860971 21.000274156148443, 11.905961662780584 21.000548312296882, 123.21875 21.001" stroke="#9370DB" stroke-width="1.3" fill="none" stroke-dasharray="0 0" style=""/></g></g><g class="node undefined" id="my-svg-note0" data-look="classic" transform="translate(1120.3984375, 26)"><g class="basic label-container outer-path"><path d="M-149.5859375 -18 L149.5859375 -18 L149.5859375 18 L-149.5859375 18" stroke="none" stroke-width="0" fill="#fff5ad" style="fill:#fff5ad !important;stroke:#aaaa33 !important"/><path d="M-149.5859375 -18 C-67.48567593517113 -18, 14.61458562965774 -18, 149.5859375 -18 M-149.5859375 -18 C-47.81215843000888 -18, 53.96162063998224 -18, 149.5859375 -18 M149.5859375 -18 C149.5859375 -7.993331725301243, 149.5859375 2.013336549397515, 149.5859375 18 M149.5859375 -18 C149.5859375 -4.043359289169395, 149.5859375 9.91328142166121, 149.5859375 18 M149.5859375 18 C67.39831105074892 18, -14.789315398502168 18, -149.5859375 18 M149.5859375 18 C68.29118894957465 18, -13.003559600850707 18, -149.5859375 18 M-149.5859375 18 C-149.5859375 4.164808471452822, -149.5859375 -9.670383057094355, -149.5859375 -18 M-149.5859375 18 C-149.5859375 8.041191350725544, -149.5859375 -1.9176172985489117, -149.5859375 -18" stroke="#aaaa33" stroke-width="1.3" fill="none" stroke-dasharray="0 0" style="fill:#fff5ad !important;stroke:#aaaa33 !important"/></g><g class="label noteLabel" style="text-align:left !important;white-space:nowrap !important" transform="translate(-143.5859375, -12)"><rect/><foreignObject width="287.171875" height="24"><div style="text-align: center; white-space: break-spaces; display: table; line-height: 1.5; max-width: 200px; width: 200px;" xmlns="http://www.w3.org/1999/xhtml"><span style="text-align:left !important;white-space:nowrap !important" class="nodeLabel markdown-node-label"><p>中文注释：实际入口为 00_quick_test.py</p></span></div></foreignObject></g></g><g class="node undefined" id="my-svg-note1" data-look="classic" transform="translate(846.8203125, 181)"><g class="basic label-container outer-path"><path d="M-96.8828125 -18 L96.8828125 -18 L96.8828125 18 L-96.8828125 18" stroke="none" stroke-width="0" fill="#fff5ad" style="fill:#fff5ad !important;stroke:#aaaa33 !important"/><path d="M-96.8828125 -18 C-21.301130220129025 -18, 54.28055205974195 -18, 96.8828125 -18 M-96.8828125 -18 C-22.42731735086913 -18, 52.02817779826174 -18, 96.8828125 -18 M96.8828125 -18 C96.8828125 -4.833365064511879, 96.8828125 8.333269870976242, 96.8828125 18 M96.8828125 -18 C96.8828125 -3.666424001589446, 96.8828125 10.667151996821108, 96.8828125 18 M96.8828125 18 C31.70698867727259 18, -33.46883514545482 18, -96.8828125 18 M96.8828125 18 C56.80513380038052 18, 16.727455100761034 18, -96.8828125 18 M-96.8828125 18 C-96.8828125 8.271055996411752, -96.8828125 -1.4578880071764964, -96.8828125 -18 M-96.8828125 18 C-96.8828125 9.015236304086539, -96.8828125 0.03047260817307773, -96.8828125 -18" stroke="#aaaa33" stroke-width="1.3" fill="none" stroke-dasharray="0 0" style="fill:#fff5ad !important;stroke:#aaaa33 !important"/></g><g class="label noteLabel" style="text-align:left !important;white-space:nowrap !important" transform="translate(-90.8828125, -12)"><rect/><foreignObject width="181.765625" height="24"><div style="text-align: center; white-space: nowrap; display: table-cell; line-height: 1.5; max-width: 200px;" xmlns="http://www.w3.org/1999/xhtml"><span style="text-align:left !important;white-space:nowrap !important" class="nodeLabel markdown-node-label"><p>中文职责：RLTrainingTool</p></span></div></foreignObject></g></g><g class="node undefined" id="my-svg-note2" data-look="classic" transform="translate(690.796875, 417)"><g class="basic label-container outer-path"><path d="M-78 -18 L78 -18 L78 18 L-78 18" stroke="none" stroke-width="0" fill="#fff5ad" style="fill:#fff5ad !important;stroke:#aaaa33 !important"/><path d="M-78 -18 C-22.167435712121986 -18, 33.66512857575603 -18, 78 -18 M-78 -18 C-28.015765475597775 -18, 21.96846904880445 -18, 78 -18 M78 -18 C78 -9.97800863995329, 78 -1.956017279906579, 78 18 M78 -18 C78 -9.899435711841946, 78 -1.7988714236838916, 78 18 M78 18 C43.4645723171681 18, 8.929144634336197 18, -78 18 M78 18 C42.54372897864732 18, 7.087457957294646 18, -78 18 M-78 18 C-78 6.057871942314767, -78 -5.884256115370466, -78 -18 M-78 18 C-78 8.379166336170137, -78 -1.2416673276597265, -78 -18" stroke="#aaaa33" stroke-width="1.3" fill="none" stroke-dasharray="0 0" style="fill:#fff5ad !important;stroke:#aaaa33 !important"/></g><g class="label noteLabel" style="text-align:left !important;white-space:nowrap !important" transform="translate(-72, -12)"><rect/><foreignObject width="144" height="24"><div style="text-align: center; white-space: nowrap; display: table-cell; line-height: 1.5; max-width: 200px;" xmlns="http://www.w3.org/1999/xhtml"><span style="text-align:left !important;white-space:nowrap !important" class="nodeLabel markdown-node-label"><p>中文职责：数据加载</p></span></div></foreignObject></g></g><g class="node undefined" id="my-svg-note3" data-look="classic" transform="translate(548.3125, 641)"><g class="basic label-container outer-path"><path d="M-92.9609375 -18 L92.9609375 -18 L92.9609375 18 L-92.9609375 18" stroke="none" stroke-width="0" fill="#fff5ad" style="fill:#fff5ad !important;stroke:#aaaa33 !important"/><path d="M-92.9609375 -18 C-34.539211375766136 -18, 23.882514748467727 -18, 92.9609375 -18 M-92.9609375 -18 C-40.653303488650025 -18, 11.65433052269995 -18, 92.9609375 -18 M92.9609375 -18 C92.9609375 -10.057385671377798, 92.9609375 -2.114771342755594, 92.9609375 18 M92.9609375 -18 C92.9609375 -6.4164400106418285, 92.9609375 5.167119978716343, 92.9609375 18 M92.9609375 18 C46.884130950908826 18, 0.8073244018176524 18, -92.9609375 18 M92.9609375 18 C35.76348897842574 18, -21.433959543148518 18, -92.9609375 18 M-92.9609375 18 C-92.9609375 7.113913920108665, -92.9609375 -3.77217215978267, -92.9609375 -18 M-92.9609375 18 C-92.9609375 10.233544341465858, -92.9609375 2.4670886829317187, -92.9609375 -18" stroke="#aaaa33" stroke-width="1.3" fill="none" stroke-dasharray="0 0" style="fill:#fff5ad !important;stroke:#aaaa33 !important"/></g><g class="label noteLabel" style="text-align:left !important;white-space:nowrap !important" transform="translate(-86.9609375, -12)"><rect/><foreignObject width="173.921875" height="24"><div style="text-align: center; white-space: nowrap; display: table-cell; line-height: 1.5; max-width: 200px;" xmlns="http://www.w3.org/1999/xhtml"><span style="text-align:left !important;white-space:nowrap !important" class="nodeLabel markdown-node-label"><p>中文职责：SFT 快速训练</p></span></div></foreignObject></g></g><g class="node undefined" id="my-svg-note4" data-look="classic" transform="translate(373.5390625, 865)"><g class="basic label-container outer-path"><path d="M-108.328125 -18 L108.328125 -18 L108.328125 18 L-108.328125 18" stroke="none" stroke-width="0" fill="#fff5ad" style="fill:#fff5ad !important;stroke:#aaaa33 !important"/><path d="M-108.328125 -18 C-48.19667387724668 -18, 11.934777245506638 -18, 108.328125 -18 M-108.328125 -18 C-62.17520226216999 -18, -16.02227952433998 -18, 108.328125 -18 M108.328125 -18 C108.328125 -8.25827561606641, 108.328125 1.4834487678671806, 108.328125 18 M108.328125 -18 C108.328125 -5.405469083337412, 108.328125 7.189061833325177, 108.328125 18 M108.328125 18 C21.781977969046594 18, -64.76416906190681 18, -108.328125 18 M108.328125 18 C51.79101814719282 18, -4.746088705614355 18, -108.328125 18 M-108.328125 18 C-108.328125 10.658297697201643, -108.328125 3.3165953944032864, -108.328125 -18 M-108.328125 18 C-108.328125 6.45506140824687, -108.328125 -5.08987718350626, -108.328125 -18" stroke="#aaaa33" stroke-width="1.3" fill="none" stroke-dasharray="0 0" style="fill:#fff5ad !important;stroke:#aaaa33 !important"/></g><g class="label noteLabel" style="text-align:left !important;white-space:nowrap !important" transform="translate(-102.328125, -12)"><rect/><foreignObject width="204.65625" height="24"><div style="text-align: center; white-space: break-spaces; display: table; line-height: 1.5; max-width: 200px; width: 200px;" xmlns="http://www.w3.org/1999/xhtml"><span style="text-align:left !important;white-space:nowrap !important" class="nodeLabel markdown-node-label"><p>中文职责：GRPO 与奖励函数</p></span></div></foreignObject></g></g><g class="node undefined" id="my-svg-note5" data-look="classic" transform="translate(157.4453125, 1089)"><g class="basic label-container outer-path"><path d="M-149.4453125 -18 L149.4453125 -18 L149.4453125 18 L-149.4453125 18" stroke="none" stroke-width="0" fill="#fff5ad" style="fill:#fff5ad !important;stroke:#aaaa33 !important"/><path d="M-149.4453125 -18 C-84.23920726544394 -18, -19.033102030887875 -18, 149.4453125 -18 M-149.4453125 -18 C-60.72172223706961 -18, 28.001868025860773 -18, 149.4453125 -18 M149.4453125 -18 C149.4453125 -4.204751812244263, 149.4453125 9.590496375511474, 149.4453125 18 M149.4453125 -18 C149.4453125 -8.10396547201617, 149.4453125 1.7920690559676586, 149.4453125 18 M149.4453125 18 C57.10458711189871 18, -35.23613827620258 18, -149.4453125 18 M149.4453125 18 C88.945798453542 18, 28.446284407083994 18, -149.4453125 18 M-149.4453125 18 C-149.4453125 10.256220852934572, -149.4453125 2.5124417058691435, -149.4453125 -18 M-149.4453125 18 C-149.4453125 7.374233887508918, -149.4453125 -3.2515322249821637, -149.4453125 -18" stroke="#aaaa33" stroke-width="1.3" fill="none" stroke-dasharray="0 0" style="fill:#fff5ad !important;stroke:#aaaa33 !important"/></g><g class="label noteLabel" style="text-align:left !important;white-space:nowrap !important" transform="translate(-143.4453125, -12)"><rect/><foreignObject width="286.890625" height="24"><div style="text-align: center; white-space: break-spaces; display: table; line-height: 1.5; max-width: 200px; width: 200px;" xmlns="http://www.w3.org/1999/xhtml"><span style="text-align:left !important;white-space:nowrap !important" class="nodeLabel markdown-node-label"><p>中文注释：Hugging Face、本地训练设备</p></span></div></foreignObject></g></g></g></g></g><defs><filter id="my-svg-drop-shadow" height="130%" width="130%"><feDropShadow dx="4" dy="4" stdDeviation="0" flood-opacity="0.06" flood-color="#000000"/></filter></defs><defs><filter id="my-svg-drop-shadow-small" height="150%" width="150%"><feDropShadow dx="2" dy="2" stdDeviation="0" flood-opacity="0.06" flood-color="#000000"/></filter></defs></svg>