<svg id="my-svg" width="100%" xmlns="http://www.w3.org/2000/svg" xmlns:xlink="http://www.w3.org/1999/xlink" class="classDiagram" style="max-width: 1366.79px; background-color: white;" viewBox="0 0 1366.78515625 1396" role="graphics-document document" aria-roledescription="classDiagram"><style>#my-svg{font-family:"trebuchet ms",verdana,arial,sans-serif;font-size:16px;fill:#333;}@keyframes edge-animation-frame{from{stroke-dashoffset:0;}}@keyframes dash{to{stroke-dashoffset:0;}}#my-svg .edge-animation-slow{stroke-dasharray:9,5!important;stroke-dashoffset:900;animation:dash 50s linear infinite;stroke-linecap:round;}#my-svg .edge-animation-fast{stroke-dasharray:9,5!important;stroke-dashoffset:900;animation:dash 20s linear infinite;stroke-linecap:round;}#my-svg .error-icon{fill:#552222;}#my-svg .error-text{fill:#552222;stroke:#552222;}#my-svg .edge-thickness-normal{stroke-width:1px;}#my-svg .edge-thickness-thick{stroke-width:3.5px;}#my-svg .edge-pattern-solid{stroke-dasharray:0;}#my-svg .edge-thickness-invisible{stroke-width:0;fill:none;}#my-svg .edge-pattern-dashed{stroke-dasharray:3;}#my-svg .edge-pattern-dotted{stroke-dasharray:2;}#my-svg .marker{fill:#333333;stroke:#333333;}#my-svg .marker.cross{stroke:#333333;}#my-svg svg{font-family:"trebuchet ms",verdana,arial,sans-serif;font-size:16px;}#my-svg p{margin:0;}#my-svg g.classGroup text{fill:#9370DB;stroke:none;font-family:"trebuchet ms",verdana,arial,sans-serif;font-size:10px;}#my-svg g.classGroup text .title{font-weight:bolder;}#my-svg .cluster-label text{fill:#333;}#my-svg .cluster-label span{color:#333;}#my-svg .cluster-label span p{background-color:transparent;}#my-svg .cluster rect{fill:#ffffde;stroke:#aaaa33;stroke-width:1px;}#my-svg .cluster text{fill:#333;}#my-svg .cluster span{color:#333;}#my-svg .nodeLabel,#my-svg .edgeLabel{color:#131300;}#my-svg .noteLabel .nodeLabel,#my-svg .noteLabel .edgeLabel{color:black;}#my-svg .edgeLabel .label rect{fill:#ECECFF;}#my-svg .label text{fill:#131300;}#my-svg .labelBkg{background:#ECECFF;}#my-svg .edgeLabel .label span{background:#ECECFF;}#my-svg .classTitle{font-weight:bolder;}#my-svg .node rect,#my-svg .node circle,#my-svg .node ellipse,#my-svg .node polygon,#my-svg .node path{fill:#ECECFF;stroke:#9370DB;stroke-width:1;}#my-svg .divider{stroke:#9370DB;stroke-width:1;}#my-svg g.clickable{cursor:pointer;}#my-svg g.classGroup rect{fill:#ECECFF;stroke:#9370DB;}#my-svg g.classGroup line{stroke:#9370DB;stroke-width:1;}#my-svg .classLabel .box{stroke:none;stroke-width:0;fill:#ECECFF;opacity:0.5;}#my-svg .classLabel .label{fill:#9370DB;font-size:10px;}#my-svg .relation{stroke:#333333;stroke-width:1;fill:none;}#my-svg .dashed-line{stroke-dasharray:3;}#my-svg .dotted-line{stroke-dasharray:1 2;}#my-svg [id$="-compositionStart"],#my-svg .composition{fill:#333333!important;stroke:#333333!important;stroke-width:1;}#my-svg [id$="-compositionEnd"],#my-svg .composition{fill:#333333!important;stroke:#333333!important;stroke-width:1;}#my-svg [id$="-dependencyStart"],#my-svg .dependency{fill:#333333!important;stroke:#333333!important;stroke-width:1;}#my-svg [id$="-dependencyEnd"],#my-svg .dependency{fill:#333333!important;stroke:#333333!important;stroke-width:1;}#my-svg [id$="-extensionStart"],#my-svg .extension{fill:transparent!important;stroke:#333333!important;stroke-width:1;}#my-svg [id$="-extensionEnd"],#my-svg .extension{fill:transparent!important;stroke:#333333!important;stroke-width:1;}#my-svg [id$="-aggregationStart"],#my-svg .aggregation{fill:transparent!important;stroke:#333333!important;stroke-width:1;}#my-svg [id$="-aggregationEnd"],#my-svg .aggregation{fill:transparent!important;stroke:#333333!important;stroke-width:1;}#my-svg [id$="-lollipopStart"],#my-svg .lollipop{fill:#ECECFF!important;stroke:#333333!important;stroke-width:1;}#my-svg [id$="-lollipopEnd"],#my-svg .lollipop{fill:#ECECFF!important;stroke:#333333!important;stroke-width:1;}#my-svg .edgeTerminals{font-size:11px;line-height:initial;}#my-svg .classTitleText{text-anchor:middle;font-size:18px;fill:#333;}#my-svg .edgeLabel[data-look="neo"]{background-color:rgba(232,232,232, 0.8);text-align:center;}#my-svg .edgeLabel[data-look="neo"] p{background-color:rgba(232,232,232, 0.8);}#my-svg .edgeLabel[data-look="neo"] rect{opacity:0.5;background-color:rgba(232,232,232, 0.8);fill:rgba(232,232,232, 0.8);}#my-svg .label-icon{display:inline-block;height:1em;overflow:visible;vertical-align:-0.125em;}#my-svg .node .label-icon path{fill:currentColor;stroke:revert;stroke-width:revert;}#my-svg .node .neo-node{stroke:#9370DB;}#my-svg [data-look="neo"].node rect,#my-svg [data-look="neo"].cluster rect,#my-svg [data-look="neo"].node polygon{stroke:#9370DB;filter:drop-shadow(1px 2px 2px rgba(185, 185, 185, 1));}#my-svg [data-look="neo"].swimlane.cluster rect{filter:none;}#my-svg [data-look="neo"].node path{stroke:#9370DB;stroke-width:1px;}#my-svg [data-look="neo"].node .outer-path{filter:drop-shadow(1px 2px 2px rgba(185, 185, 185, 1));}#my-svg [data-look="neo"].node .neo-line path{stroke:#9370DB;filter:none;}#my-svg [data-look="neo"].node circle{stroke:#9370DB;filter:drop-shadow(1px 2px 2px rgba(185, 185, 185, 1));}#my-svg [data-look="neo"].node circle .state-start{fill:#000000;}#my-svg [data-look="neo"].icon-shape .icon{fill:#9370DB;filter:drop-shadow(1px 2px 2px rgba(185, 185, 185, 1));}#my-svg [data-look="neo"].icon-shape .icon-neo path{stroke:#9370DB;filter:drop-shadow(1px 2px 2px rgba(185, 185, 185, 1));}#my-svg :root{--mermaid-font-family:"trebuchet ms",verdana,arial,sans-serif;}</style><g><defs><marker id="my-svg_classDiagram-aggregationStart" class="marker aggregation classDiagram" refX="18" refY="7" markerWidth="190" markerHeight="240" orient="auto"><path d="M 18,7 L9,13 L1,7 L9,1 Z"/></marker></defs><defs><marker id="my-svg_classDiagram-aggregationEnd" class="marker aggregation classDiagram" refX="1" refY="7" markerWidth="20" markerHeight="28" orient="auto"><path d="M 18,7 L9,13 L1,7 L9,1 Z"/></marker></defs><defs><marker id="my-svg_classDiagram-aggregationStart-margin" class="marker aggregation classDiagram" refX="15" refY="7" markerWidth="190" markerHeight="240" orient="auto" markerUnits="userSpaceOnUse"><path d="M 18,7 L9,13 L1,7 L9,1 Z" style="stroke-width: 2;"/></marker></defs><defs><marker id="my-svg_classDiagram-aggregationEnd-margin" class="marker aggregation classDiagram" refX="1" refY="7" markerWidth="20" markerHeight="28" orient="auto" markerUnits="userSpaceOnUse"><path d="M 18,7 L9,13 L1,7 L9,1 Z" style="stroke-width: 2;"/></marker></defs><defs><marker id="my-svg_classDiagram-extensionStart" class="marker extension classDiagram" refX="18" refY="7" markerWidth="20" markerHeight="28" orient="auto" markerUnits="userSpaceOnUse"><path d="M 1,7 L18,13 V 1 Z"/></marker></defs><defs><marker id="my-svg_classDiagram-extensionEnd" class="marker extension classDiagram" refX="1" refY="7" markerWidth="20" markerHeight="28" orient="auto"><path d="M 1,1 V 13 L18,7 Z"/></marker></defs><marker id="my-svg_classDiagram-extensionStart-margin" class="marker extension classDiagram" refX="18" refY="7" markerWidth="20" markerHeight="28" orient="auto" markerUnits="userSpaceOnUse" viewBox="0 0 20 14"><polygon points="10,7 18,13 18,1" style="stroke-width: 2; stroke-dasharray: 0;"/></marker><defs><marker id="my-svg_classDiagram-extensionEnd-margin" class="marker extension classDiagram" refX="9" refY="7" markerWidth="20" markerHeight="28" orient="auto" markerUnits="userSpaceOnUse" viewBox="0 0 20 14"><polygon points="10,1 10,13 18,7" style="stroke-width: 2; stroke-dasharray: 0;"/></marker></defs><defs><marker id="my-svg_classDiagram-compositionStart" class="marker composition classDiagram" refX="18" refY="7" markerWidth="190" markerHeight="240" orient="auto"><path d="M 18,7 L9,13 L1,7 L9,1 Z"/></marker></defs><defs><marker id="my-svg_classDiagram-compositionEnd" class="marker composition classDiagram" refX="1" refY="7" markerWidth="20" markerHeight="28" orient="auto"><path d="M 18,7 L9,13 L1,7 L9,1 Z"/></marker></defs><defs><marker id="my-svg_classDiagram-compositionStart-margin" class="marker composition classDiagram" refX="15" refY="7" markerWidth="190" markerHeight="240" orient="auto" markerUnits="userSpaceOnUse"><path viewBox="0 0 15 15" d="M 18,7 L9,13 L1,7 L9,1 Z" style="stroke-width: 0;"/></marker></defs><defs><marker id="my-svg_classDiagram-compositionEnd-margin" class="marker composition classDiagram" refX="3.5" refY="7" markerWidth="20" markerHeight="28" orient="auto" markerUnits="userSpaceOnUse"><path d="M 18,7 L9,13 L1,7 L9,1 Z" style="stroke-width: 0;"/></marker></defs><defs><marker id="my-svg_classDiagram-dependencyStart" class="marker dependency classDiagram" refX="6" refY="7" markerWidth="190" markerHeight="240" orient="auto"><path d="M 5,7 L9,13 L1,7 L9,1 Z"/></marker></defs><defs><marker id="my-svg_classDiagram-dependencyEnd" class="marker dependency classDiagram" refX="13" refY="7" markerWidth="20" markerHeight="28" orient="auto"><path d="M 18,7 L9,13 L14,7 L9,1 Z"/></marker></defs><defs><marker id="my-svg_classDiagram-dependencyStart-margin" class="marker dependency classDiagram" refX="4" refY="7" markerWidth="190" markerHeight="240" orient="auto" markerUnits="userSpaceOnUse"><path d="M 5,7 L9,13 L1,7 L9,1 Z" style="stroke-width: 0;"/></marker></defs><defs><marker id="my-svg_classDiagram-dependencyEnd-margin" class="marker dependency classDiagram" refX="16" refY="7" markerWidth="20" markerHeight="28" orient="auto" markerUnits="userSpaceOnUse"><path d="M 18,7 L9,13 L14,7 L9,1 Z" style="stroke-width: 0;"/></marker></defs><defs><marker id="my-svg_classDiagram-lollipopStart" class="marker lollipop classDiagram" refX="13" refY="7" markerWidth="190" markerHeight="240" orient="auto"><circle fill="transparent" cx="7" cy="7" r="6"/></marker></defs><defs><marker id="my-svg_classDiagram-lollipopEnd" class="marker lollipop classDiagram" refX="1" refY="7" markerWidth="190" markerHeight="240" orient="auto"><circle fill="transparent" cx="7" cy="7" r="6"/></marker></defs><defs><marker id="my-svg_classDiagram-lollipopStart-margin" class="marker lollipop classDiagram" refX="13" refY="7" markerWidth="190" markerHeight="240" orient="auto" markerUnits="userSpaceOnUse"><circle fill="transparent" cx="7" cy="7" r="6" stroke-width="2"/></marker></defs><defs><marker id="my-svg_classDiagram-lollipopEnd-margin" class="marker lollipop classDiagram" refX="1" refY="7" markerWidth="190" markerHeight="240" orient="auto" markerUnits="userSpaceOnUse"><circle fill="transparent" cx="7" cy="7" r="6" stroke-width="2"/></marker></defs><g class="root"><g class="clusters"/><g class="edgePaths"><path d="M1146.793,44L1146.793,48.167C1146.793,52.333,1146.793,60.667,1146.793,69C1146.793,77.333,1146.793,85.667,1146.793,89.833L1146.793,94" id="my-svg-edgeNote0" class="edge-thickness-normal edge-pattern-dotted relation" style="fill: none;;;fill: none" data-edge="true" data-et="edge" data-id="edgeNote0" data-points="W3sieCI6MTE0Ni43OTI5Njg3NSwieSI6NDR9LHsieCI6MTE0Ni43OTI5Njg3NSwieSI6Njl9LHsieCI6MTE0Ni43OTI5Njg3NSwieSI6OTR9XQ==" data-look="classic"/><path d="M879.504,199L879.504,216.667C879.504,234.333,879.504,269.667,886.862,293.5C894.221,317.333,908.938,329.667,916.296,335.833L923.654,342" id="my-svg-edgeNote1" class="edge-thickness-normal edge-pattern-dotted relation" style="fill: none;;;fill: none" data-edge="true" data-et="edge" data-id="edgeNote1" data-points="W3sieCI6ODc5LjUwMzkwNjI1LCJ5IjoxOTl9LHsieCI6ODc5LjUwMzkwNjI1LCJ5IjozMDV9LHsieCI6OTIzLjY1NDMzMTc1MjIzMjEsInkiOjM0Mn1d" data-look="classic"/><path d="M717.438,435L717.438,450.667C717.438,466.333,717.438,497.667,725.578,519.5C733.719,541.333,750.001,553.667,758.142,559.833L766.283,566" id="my-svg-edgeNote2" class="edge-thickness-normal edge-pattern-dotted relation" style="fill: none;;;fill: none" data-edge="true" data-et="edge" data-id="edgeNote2" data-points="W3sieCI6NzE3LjQzNzUsInkiOjQzNX0seyJ4Ijo3MTcuNDM3NSwieSI6NTI5fSx7IngiOjc2Ni4yODI2MTAyMTIwNTM2LCJ5Ijo1NjZ9XQ==" data-look="classic"/><path d="M557.082,659L557.082,674.667C557.082,690.333,557.082,721.667,565.567,743.5C574.052,765.333,591.022,777.667,599.507,783.833L607.992,790" id="my-svg-edgeNote3" class="edge-thickness-normal edge-pattern-dotted relation" style="fill: none;;;fill: none" data-edge="true" data-et="edge" data-id="edgeNote3" data-points="W3sieCI6NTU3LjA4MjAzMTI1LCJ5Ijo2NTl9LHsieCI6NTU3LjA4MjAzMTI1LCJ5Ijo3NTN9LHsieCI6NjA3Ljk5MTg3MzYwNDkxMDcsInkiOjc5MH1d" data-look="classic"/><path d="M352.438,883L352.438,898.667C352.438,914.333,352.438,945.667,362.314,967.5C372.19,989.333,391.943,1001.667,401.819,1007.833L411.695,1014" id="my-svg-edgeNote4" class="edge-thickness-normal edge-pattern-dotted relation" style="fill: none;;;fill: none" data-edge="true" data-et="edge" data-id="edgeNote4" data-points="W3sieCI6MzUyLjQzNzUsInkiOjg4M30seyJ4IjozNTIuNDM3NSwieSI6OTc3fSx7IngiOjQxMS42OTUzMTI1LCJ5IjoxMDE0fV0=" data-look="classic"/><path d="M142.078,1107L142.078,1122.667C142.078,1138.333,142.078,1169.667,154.02,1192.197C165.961,1214.727,189.844,1228.453,201.785,1235.317L213.727,1242.18" id="my-svg-edgeNote5" class="edge-thickness-normal edge-pattern-dotted relation" style="fill: none;;;fill: none" data-edge="true" data-et="edge" data-id="edgeNote5" data-points="W3sieCI6MTQyLjA3ODEyNSwieSI6MTEwN30seyJ4IjoxNDIuMDc4MTI1LCJ5IjoxMjAxfSx7IngiOjIxMy43MjY1NjI1LCJ5IjoxMjQyLjE3OTk3MDMzMjM1Nzd9XQ==" data-look="classic"/><path d="M1146.793,268L1146.793,274.167C1146.793,280.333,1146.793,292.667,1140.201,304.358C1133.609,316.049,1120.425,327.097,1113.833,332.622L1107.241,338.146" id="my-svg-id_EntryModule_Core1_1" class="edge-thickness-normal edge-pattern-dashed relation" style=";;;" data-edge="true" data-et="edge" data-id="id_EntryModule_Core1_1" data-points="W3sieCI6MTE0Ni43OTI5Njg3NSwieSI6MjY4fSx7IngiOjExNDYuNzkyOTY4NzUsInkiOjMwNX0seyJ4IjoxMTAyLjY0MjU0MzI0Nzc2OCwieSI6MzQyfV0=" data-look="classic" marker-end="url(#my-svg_classDiagram-dependencyEnd)"/><path d="M1013.148,492L1013.148,498.167C1013.148,504.333,1013.148,516.667,1005.805,528.396C998.461,540.126,983.774,551.251,976.43,556.814L969.086,562.377" id="my-svg-id_Core1_Core2_2" class="edge-thickness-normal edge-pattern-solid relation" style=";;;" data-edge="true" data-et="edge" data-id="id_Core1_Core2_2" data-points="W3sieCI6MTAxMy4xNDg0Mzc1LCJ5Ijo0OTJ9LHsieCI6MTAxMy4xNDg0Mzc1LCJ5Ijo1Mjl9LHsieCI6OTY0LjMwMzMyNzI4Nzk0NjQsInkiOjU2Nn1d" data-look="classic" marker-end="url(#my-svg_classDiagram-dependencyEnd)"/><path d="M865.293,716L865.293,722.167C865.293,728.333,865.293,740.667,857.617,752.412C849.941,764.158,834.589,775.315,826.913,780.894L819.237,786.473" id="my-svg-id_Core2_Core3_3" class="edge-thickness-normal edge-pattern-solid relation" style=";;;" data-edge="true" data-et="edge" data-id="id_Core2_Core3_3" data-points="W3sieCI6ODY1LjI5Mjk2ODc1LCJ5Ijo3MTZ9LHsieCI6ODY1LjI5Mjk2ODc1LCJ5Ijo3NTN9LHsieCI6ODE0LjM4MzEyNjM5NTA4OTMsInkiOjc5MH1d" data-look="classic" marker-end="url(#my-svg_classDiagram-dependencyEnd)"/><path d="M711.188,940L711.188,946.167C711.188,952.333,711.188,964.667,702.159,976.47C693.131,988.274,675.075,999.548,666.047,1005.185L657.019,1010.822" id="my-svg-id_Core3_Core4_4" class="edge-thickness-normal edge-pattern-solid relation" style=";;;" data-edge="true" data-et="edge" data-id="id_Core3_Core4_4" data-points="W3sieCI6NzExLjE4NzUsInkiOjk0MH0seyJ4Ijo3MTEuMTg3NSwieSI6OTc3fSx7IngiOjY1MS45Mjk2ODc1LCJ5IjoxMDE0fV0=" data-look="classic" marker-end="url(#my-svg_classDiagram-dependencyEnd)"/><path d="M531.813,1164L531.813,1170.167C531.813,1176.333,531.813,1188.667,520.738,1201.198C509.664,1213.73,487.515,1226.46,476.44,1232.825L465.366,1239.19" id="my-svg-id_Core4_ExternalResource_5" class="edge-thickness-normal edge-pattern-dashed relation" style=";;;" data-edge="true" data-et="edge" data-id="id_Core4_ExternalResource_5" data-points="W3sieCI6NTMxLjgxMjUsInkiOjExNjR9LHsieCI6NTMxLjgxMjUsInkiOjEyMDF9LHsieCI6NDYwLjE2NDA2MjUsInkiOjEyNDIuMTc5OTcwMzMyMzU3N31d" data-look="classic" marker-end="url(#my-svg_classDiagram-dependencyEnd)"/></g><g class="edgeLabels"><g class="edgeLabel"><g class="label" data-id="edgeNote0" transform="translate(0, 0)"><foreignObject width="0" height="0"><div xmlns="http://www.w3.org/1999/xhtml" class="labelBkg" style="display: table-cell; white-space: nowrap; line-height: 1.5; max-width: 200px; text-align: center;"><span class="edgeLabel"></span></div></foreignObject></g></g><g class="edgeLabel"><g class="label" data-id="edgeNote1" transform="translate(0, 0)"><foreignObject width="0" height="0"><div xmlns="http://www.w3.org/1999/xhtml" class="labelBkg" style="display: table-cell; white-space: nowrap; line-height: 1.5; max-width: 200px; text-align: center;"><span class="edgeLabel"></span></div></foreignObject></g></g><g class="edgeLabel"><g class="label" data-id="edgeNote2" transform="translate(0, 0)"><foreignObject width="0" height="0"><div xmlns="http://www.w3.org/1999/xhtml" class="labelBkg" style="display: table-cell; white-space: nowrap; line-height: 1.5; max-width: 200px; text-align: center;"><span class="edgeLabel"></span></div></foreignObject></g></g><g class="edgeLabel"><g class="label" data-id="edgeNote3" transform="translate(0, 0)"><foreignObject width="0" height="0"><div xmlns="http://www.w3.org/1999/xhtml" class="labelBkg" style="display: table-cell; white-space: nowrap; line-height: 1.5; max-width: 200px; text-align: center;"><span class="edgeLabel"></span></div></foreignObject></g></g><g class="edgeLabel"><g class="label" data-id="edgeNote4" transform="translate(0, 0)"><foreignObject width="0" height="0"><div xmlns="http://www.w3.org/1999/xhtml" class="labelBkg" style="display: table-cell; white-space: nowrap; line-height: 1.5; max-width: 200px; text-align: center;"><span class="edgeLabel"></span></div></foreignObject></g></g><g class="edgeLabel"><g class="label" data-id="edgeNote5" transform="translate(0, 0)"><foreignObject width="0" height="0"><div xmlns="http://www.w3.org/1999/xhtml" class="labelBkg" style="display: table-cell; white-space: nowrap; line-height: 1.5; max-width: 200px; text-align: center;"><span class="edgeLabel"></span></div></foreignObject></g></g><g class="edgeLabel" transform="translate(1146.79296875, 305)"><g class="label" data-id="id_EntryModule_Core1_1" transform="translate(-40, -12)"><foreignObject width="80" height="24"><div xmlns="http://www.w3.org/1999/xhtml" class="labelBkg" style="display: table-cell; white-space: nowrap; line-height: 1.5; max-width: 200px; text-align: center;"><span class="edgeLabel"><p>创建或调用</p></span></div></foreignObject></g></g><g class="edgeLabel" transform="translate(1013.1484375, 529)"><g class="label" data-id="id_Core1_Core2_2" transform="translate(-56, -12)"><foreignObject width="112" height="24"><div xmlns="http://www.w3.org/1999/xhtml" class="labelBkg" style="display: table-cell; white-space: nowrap; line-height: 1.5; max-width: 200px; text-align: center;"><span class="edgeLabel"><p>传递控制或数据</p></span></div></foreignObject></g></g><g class="edgeLabel" transform="translate(865.29296875, 753)"><g class="label" data-id="id_Core2_Core3_3" transform="translate(-56, -12)"><foreignObject width="112" height="24"><div xmlns="http://www.w3.org/1999/xhtml" class="labelBkg" style="display: table-cell; white-space: nowrap; line-height: 1.5; max-width: 200px; text-align: center;"><span class="edgeLabel"><p>传递控制或数据</p></span></div></foreignObject></g></g><g class="edgeLabel" transform="translate(711.1875, 977)"><g class="label" data-id="id_Core3_Core4_4" transform="translate(-56, -12)"><foreignObject width="112" height="24"><div xmlns="http://www.w3.org/1999/xhtml" class="labelBkg" style="display: table-cell; white-space: nowrap; line-height: 1.5; max-width: 200px; text-align: center;"><span class="edgeLabel"><p>传递控制或数据</p></span></div></foreignObject></g></g><g class="edgeLabel" transform="translate(531.8125, 1201)"><g class="label" data-id="id_Core4_ExternalResource_5" transform="translate(-32, -12)"><foreignObject width="64" height="24"><div xmlns="http://www.w3.org/1999/xhtml" class="labelBkg" style="display: table-cell; white-space: nowrap; line-height: 1.5; max-width: 200px; text-align: center;"><span class="edgeLabel"><p>按需访问</p></span></div></foreignObject></g></g></g><g class="nodes"><g class="node default" id="my-svg-classId-EntryModule-0" data-look="classic" transform="translate(1146.79296875, 181)"><g class="basic label-container outer-path"><path d="M-126.6953125 -87 L126.6953125 -87 L126.6953125 87 L-126.6953125 87" stroke="none" stroke-width="0" fill="#ECECFF" style=""/><path d="M-126.6953125 -87 C-54.865592097198046 -87, 16.964128305603907 -87, 126.6953125 -87 M-126.6953125 -87 C-52.319909759331324 -87, 22.055492981337352 -87, 126.6953125 -87 M126.6953125 -87 C126.6953125 -41.25479754476765, 126.6953125 4.490404910464704, 126.6953125 87 M126.6953125 -87 C126.6953125 -42.70001734065072, 126.6953125 1.5999653186985654, 126.6953125 87 M126.6953125 87 C39.95721796876667 87, -46.78087656246666 87, -126.6953125 87 M126.6953125 87 C25.46898610348923 87, -75.75734029302154 87, -126.6953125 87 M-126.6953125 87 C-126.6953125 24.373153517440898, -126.6953125 -38.253692965118205, -126.6953125 -87 M-126.6953125 87 C-126.6953125 38.77551888753006, -126.6953125 -9.448962224939876, -126.6953125 -87" stroke="#9370DB" stroke-width="1.3" fill="none" stroke-dasharray="0 0" style=""/></g><g class="annotation-group text" transform="translate(-40.390625, -63)"><g class="label" style="" transform="translate(0,-12)"><foreignObject width="80.78125" height="24"><div xmlns="http://www.w3.org/1999/xhtml" style="display: table-cell; white-space: nowrap; line-height: 1.5; max-width: 132px; text-align: center;"><span class="nodeLabel markdown-node-label" style=""><p>«入口模块»</p></span></div></foreignObject></g></g><g class="label-group text" transform="translate(-46.953125, -39)"><g class="label" style="font-weight: bolder" transform="translate(0,-12)"><foreignObject width="93.90625" height="24"><div xmlns="http://www.w3.org/1999/xhtml" style="display: table-cell; white-space: nowrap; line-height: 1.5; max-width: 143px; text-align: center;"><span class="nodeLabel markdown-node-label" style=""><p>EntryModule</p></span></div></foreignObject></g></g><g class="members-group text" transform="translate(-114.6953125, 9)"/><g class="methods-group text" transform="translate(-114.6953125, 39)"><g class="label" style="" transform="translate(0,-12)"><foreignObject width="182.4375" height="24"><div xmlns="http://www.w3.org/1999/xhtml" style="display: table-cell; white-space: nowrap; line-height: 1.5; max-width: 243px; text-align: center;"><span class="nodeLabel markdown-node-label" style=""><p>+load_config() : 读取配置</p></span></div></foreignObject></g><g class="label" style="" transform="translate(0,12)"><foreignObject width="123.359375" height="24"><div xmlns="http://www.w3.org/1999/xhtml" style="display: table-cell; white-space: nowrap; line-height: 1.5; max-width: 181px; text-align: center;"><span class="nodeLabel markdown-node-label" style=""><p>+run() : 启动实践</p></span></div></foreignObject></g></g><g class="divider" style=""><path d="M-126.6953125 -15 C-60.11624255997272 -14.999737247303683, 6.462827380054563 -14.999474494607368, 126.6953125 -14.999 M-126.6953125 -15 C-37.461982329085316 -14.99964784281119, 51.77134784182937 -14.99929568562238, 126.6953125 -14.999" stroke="#9370DB" stroke-width="1.3" fill="none" stroke-dasharray="0 0" style=""/></g><g class="divider" style=""><path d="M-126.6953125 9 C-57.7332481624653 9.000272157126323, 11.228816175069397 9.000544314252648, 126.6953125 9.001 M-126.6953125 9 C-69.18725423499127 9.000226954167168, -11.679195969982544 9.000453908334336, 126.6953125 9.001" stroke="#9370DB" stroke-width="1.3" fill="none" stroke-dasharray="0 0" style=""/></g></g><g class="node default" id="my-svg-classId-Core1-1" data-look="classic" transform="translate(1013.1484375, 417)"><g class="basic label-container outer-path"><path d="M-158.5234375 -75 L158.5234375 -75 L158.5234375 75 L-158.5234375 75" stroke="none" stroke-width="0" fill="#ECECFF" style=""/><path d="M-158.5234375 -75 C-35.79857651975148 -75, 86.92628446049704 -75, 158.5234375 -75 M-158.5234375 -75 C-62.7610538117368 -75, 33.0013298765264 -75, 158.5234375 -75 M158.5234375 -75 C158.5234375 -41.55425164219884, 158.5234375 -8.108503284397685, 158.5234375 75 M158.5234375 -75 C158.5234375 -35.362201026863104, 158.5234375 4.275597946273791, 158.5234375 75 M158.5234375 75 C53.39164242704666 75, -51.740152645906676 75, -158.5234375 75 M158.5234375 75 C94.92655178629653 75, 31.329666072593042 75, -158.5234375 75 M-158.5234375 75 C-158.5234375 22.01842894993007, -158.5234375 -30.963142100139862, -158.5234375 -75 M-158.5234375 75 C-158.5234375 31.61682986296848, -158.5234375 -11.76634027406304, -158.5234375 -75" stroke="#9370DB" stroke-width="1.3" fill="none" stroke-dasharray="0 0" style=""/></g><g class="annotation-group text" transform="translate(-47, -51)"><g class="label" style="" transform="translate(0,-12)"><foreignObject width="94" height="24"><div xmlns="http://www.w3.org/1999/xhtml" style="display: table-cell; white-space: nowrap; line-height: 1.5; max-width: 144px; text-align: center;"><span class="nodeLabel markdown-node-label" style=""><p>«核心组件 1»</p></span></div></foreignObject></g></g><g class="label-group text" transform="translate(-22.125, -27)"><g class="label" style="font-weight: bolder" transform="translate(0,-12)"><foreignObject width="44.25" height="24"><div xmlns="http://www.w3.org/1999/xhtml" style="display: table-cell; white-space: nowrap; line-height: 1.5; max-width: 92px; text-align: center;"><span class="nodeLabel markdown-node-label" style=""><p>Core1</p></span></div></foreignObject></g></g><g class="members-group text" transform="translate(-146.5234375, 21)"/><g class="methods-group text" transform="translate(-146.5234375, 51)"><g class="label" style="" transform="translate(0,-12)"><foreignObject width="246.046875" height="24"><div xmlns="http://www.w3.org/1999/xhtml" style="display: table-cell; white-space: nowrap; line-height: 1.5; max-width: 309px; text-align: center;"><span class="nodeLabel markdown-node-label" style=""><p>+execute() : 执行SimpleAgent职责</p></span></div></foreignObject></g></g><g class="divider" style=""><path d="M-158.5234375 -3 C-76.15615281870618 -2.9997402047104824, 6.211131862587649 -2.999480409420965, 158.5234375 -2.999 M-158.5234375 -3 C-90.66686313899096 -2.9997859730541077, -22.810288777981924 -2.999571946108215, 158.5234375 -2.999" stroke="#9370DB" stroke-width="1.3" fill="none" stroke-dasharray="0 0" style=""/></g><g class="divider" style=""><path d="M-158.5234375 21 C-67.91778356003178 21.0002857799937, 22.68787037993644 21.0005715599874, 158.5234375 21.001 M-158.5234375 21 C-45.92055174701065 21.000355161632655, 66.6823340059787 21.00071032326531, 158.5234375 21.001" stroke="#9370DB" stroke-width="1.3" fill="none" stroke-dasharray="0 0" style=""/></g></g><g class="node default" id="my-svg-classId-Core2-2" data-look="classic" transform="translate(865.29296875, 641)"><g class="basic label-container outer-path"><path d="M-155.1171875 -75 L155.1171875 -75 L155.1171875 75 L-155.1171875 75" stroke="none" stroke-width="0" fill="#ECECFF" style=""/><path d="M-155.1171875 -75 C-64.83489147468393 -75, 25.447404550632143 -75, 155.1171875 -75 M-155.1171875 -75 C-76.1990803744234 -75, 2.7190267511531943 -75, 155.1171875 -75 M155.1171875 -75 C155.1171875 -38.408639342424706, 155.1171875 -1.8172786848494127, 155.1171875 75 M155.1171875 -75 C155.1171875 -29.7194570272153, 155.1171875 15.561085945569403, 155.1171875 75 M155.1171875 75 C60.22891897475495 75, -34.659349550490106 75, -155.1171875 75 M155.1171875 75 C41.47214809624339 75, -72.17289130751323 75, -155.1171875 75 M-155.1171875 75 C-155.1171875 37.17663663216161, -155.1171875 -0.6467267356767792, -155.1171875 -75 M-155.1171875 75 C-155.1171875 40.31308921038982, -155.1171875 5.626178420779638, -155.1171875 -75" stroke="#9370DB" stroke-width="1.3" fill="none" stroke-dasharray="0 0" style=""/></g><g class="annotation-group text" transform="translate(-47, -51)"><g class="label" style="" transform="translate(0,-12)"><foreignObject width="94" height="24"><div xmlns="http://www.w3.org/1999/xhtml" style="display: table-cell; white-space: nowrap; line-height: 1.5; max-width: 147px; text-align: center;"><span class="nodeLabel markdown-node-label" style=""><p>«核心组件 2»</p></span></div></foreignObject></g></g><g class="label-group text" transform="translate(-22.125, -27)"><g class="label" style="font-weight: bolder" transform="translate(0,-12)"><foreignObject width="44.25" height="24"><div xmlns="http://www.w3.org/1999/xhtml" style="display: table-cell; white-space: nowrap; line-height: 1.5; max-width: 95px; text-align: center;"><span class="nodeLabel markdown-node-label" style=""><p>Core2</p></span></div></foreignObject></g></g><g class="members-group text" transform="translate(-143.1171875, 21)"/><g class="methods-group text" transform="translate(-143.1171875, 51)"><g class="label" style="" transform="translate(0,-12)"><foreignObject width="239.234375" height="24"><div xmlns="http://www.w3.org/1999/xhtml" style="display: table-cell; white-space: nowrap; line-height: 1.5; max-width: 304px; text-align: center;"><span class="nodeLabel markdown-node-label" style=""><p>+execute() : 执行ReActAgent职责</p></span></div></foreignObject></g></g><g class="divider" style=""><path d="M-155.1171875 -3 C-75.96807260652417 -2.999744873162771, 3.1810422869516515 -2.999489746325542, 155.1171875 -2.999 M-155.1171875 -3 C-32.45755434112402 -2.9996046226883823, 90.20207881775195 -2.9992092453767647, 155.1171875 -2.999" stroke="#9370DB" stroke-width="1.3" fill="none" stroke-dasharray="0 0" style=""/></g><g class="divider" style=""><path d="M-155.1171875 21 C-87.70182404953509 21.000217304621547, -20.286460599070182 21.000434609243097, 155.1171875 21.001 M-155.1171875 21 C-51.30711229304704 21.000334618222777, 52.50296291390592 21.000669236445557, 155.1171875 21.001" stroke="#9370DB" stroke-width="1.3" fill="none" stroke-dasharray="0 0" style=""/></g></g><g class="node default" id="my-svg-classId-Core3-3" data-look="classic" transform="translate(711.1875, 865)"><g class="basic label-container outer-path"><path d="M-171.0234375 -75 L171.0234375 -75 L171.0234375 75 L-171.0234375 75" stroke="none" stroke-width="0" fill="#ECECFF" style=""/><path d="M-171.0234375 -75 C-60.37471795025019 -75, 50.27400159949963 -75, 171.0234375 -75 M-171.0234375 -75 C-41.6897900145905 -75, 87.643857470819 -75, 171.0234375 -75 M171.0234375 -75 C171.0234375 -15.095641095046133, 171.0234375 44.80871780990773, 171.0234375 75 M171.0234375 -75 C171.0234375 -18.135939173126516, 171.0234375 38.72812165374697, 171.0234375 75 M171.0234375 75 C41.10456122518573 75, -88.81431504962853 75, -171.0234375 75 M171.0234375 75 C89.25468575480228 75, 7.485934009604563 75, -171.0234375 75 M-171.0234375 75 C-171.0234375 25.642627591525418, -171.0234375 -23.714744816949164, -171.0234375 -75 M-171.0234375 75 C-171.0234375 35.29434872738648, -171.0234375 -4.411302545227045, -171.0234375 -75" stroke="#9370DB" stroke-width="1.3" fill="none" stroke-dasharray="0 0" style=""/></g><g class="annotation-group text" transform="translate(-47, -51)"><g class="label" style="" transform="translate(0,-12)"><foreignObject width="94" height="24"><div xmlns="http://www.w3.org/1999/xhtml" style="display: table-cell; white-space: nowrap; line-height: 1.5; max-width: 147px; text-align: center;"><span class="nodeLabel markdown-node-label" style=""><p>«核心组件 3»</p></span></div></foreignObject></g></g><g class="label-group text" transform="translate(-22.125, -27)"><g class="label" style="font-weight: bolder" transform="translate(0,-12)"><foreignObject width="44.25" height="24"><div xmlns="http://www.w3.org/1999/xhtml" style="display: table-cell; white-space: nowrap; line-height: 1.5; max-width: 95px; text-align: center;"><span class="nodeLabel markdown-node-label" style=""><p>Core3</p></span></div></foreignObject></g></g><g class="members-group text" transform="translate(-159.0234375, 21)"/><g class="methods-group text" transform="translate(-159.0234375, 51)"><g class="label" style="" transform="translate(0,-12)"><foreignObject width="271.046875" height="24"><div xmlns="http://www.w3.org/1999/xhtml" style="display: table-cell; white-space: nowrap; line-height: 1.5; max-width: 334px; text-align: center;"><span class="nodeLabel markdown-node-label" style=""><p>+execute() : 执行ReflectionAgent职责</p></span></div></foreignObject></g></g><g class="divider" style=""><path d="M-171.0234375 -3 C-61.45954526595152 -2.999679681645289, 48.10434696809696 -2.999359363290578, 171.0234375 -2.999 M-171.0234375 -3 C-75.86249285649458 -2.999721789755736, 19.298451787010833 -2.999443579511472, 171.0234375 -2.999" stroke="#9370DB" stroke-width="1.3" fill="none" stroke-dasharray="0 0" style=""/></g><g class="divider" style=""><path d="M-171.0234375 21 C-46.37620876554479 21.000364415633776, 78.27101996891042 21.000728831267555, 171.0234375 21.001 M-171.0234375 21 C-99.98813263249875 21.000207677105273, -28.952827764997494 21.000415354210546, 171.0234375 21.001" stroke="#9370DB" stroke-width="1.3" fill="none" stroke-dasharray="0 0" style=""/></g></g><g class="node default" id="my-svg-classId-Core4-4" data-look="classic" transform="translate(531.8125, 1089)"><g class="basic label-container outer-path"><path d="M-205.65625 -75 L205.65625 -75 L205.65625 75 L-205.65625 75" stroke="none" stroke-width="0" fill="#ECECFF" style=""/><path d="M-205.65625 -75 C-104.13526790048465 -75, -2.6142858009692986 -75, 205.65625 -75 M-205.65625 -75 C-108.07851574414511 -75, -10.500781488290215 -75, 205.65625 -75 M205.65625 -75 C205.65625 -24.029608538596058, 205.65625 26.940782922807884, 205.65625 75 M205.65625 -75 C205.65625 -39.85694415332766, 205.65625 -4.7138883066553205, 205.65625 75 M205.65625 75 C46.40430831959452 75, -112.84763336081096 75, -205.65625 75 M205.65625 75 C66.02319202518899 75, -73.60986594962202 75, -205.65625 75 M-205.65625 75 C-205.65625 25.272733331943257, -205.65625 -24.454533336113485, -205.65625 -75 M-205.65625 75 C-205.65625 25.548374675490194, -205.65625 -23.90325064901961, -205.65625 -75" stroke="#9370DB" stroke-width="1.3" fill="none" stroke-dasharray="0 0" style=""/></g><g class="annotation-group text" transform="translate(-47, -51)"><g class="label" style="" transform="translate(0,-12)"><foreignObject width="94" height="24"><div xmlns="http://www.w3.org/1999/xhtml" style="display: table-cell; white-space: nowrap; line-height: 1.5; max-width: 147px; text-align: center;"><span class="nodeLabel markdown-node-label" style=""><p>«核心组件 4»</p></span></div></foreignObject></g></g><g class="label-group text" transform="translate(-22.125, -27)"><g class="label" style="font-weight: bolder" transform="translate(0,-12)"><foreignObject width="44.25" height="24"><div xmlns="http://www.w3.org/1999/xhtml" style="display: table-cell; white-space: nowrap; line-height: 1.5; max-width: 95px; text-align: center;"><span class="nodeLabel markdown-node-label" style=""><p>Core4</p></span></div></foreignObject></g></g><g class="members-group text" transform="translate(-193.65625, 21)"/><g class="methods-group text" transform="translate(-193.65625, 51)"><g class="label" style="" transform="translate(0,-12)"><foreignObject width="340.3125" height="24"><div xmlns="http://www.w3.org/1999/xhtml" style="display: table-cell; white-space: nowrap; line-height: 1.5; max-width: 406px; text-align: center;"><span class="nodeLabel markdown-node-label" style=""><p>+execute() : 执行PlanSolve 与 FunctionCall职责</p></span></div></foreignObject></g></g><g class="divider" style=""><path d="M-205.65625 -3 C-49.510887157950634 -2.9996203729212167, 106.63447568409873 -2.9992407458424335, 205.65625 -2.999 M-205.65625 -3 C-47.45577083577777 -2.9996153764372244, 110.74470832844446 -2.9992307528744484, 205.65625 -2.999" stroke="#9370DB" stroke-width="1.3" fill="none" stroke-dasharray="0 0" style=""/></g><g class="divider" style=""><path d="M-205.65625 21 C-78.04965750286593 21.000310242437312, 49.55693499426815 21.000620484874627, 205.65625 21.001 M-205.65625 21 C-119.71125660949534 21.00020895303058, -33.76626321899067 21.00041790606116, 205.65625 21.001" stroke="#9370DB" stroke-width="1.3" fill="none" stroke-dasharray="0 0" style=""/></g></g><g class="node default" id="my-svg-classId-ExternalResource-5" data-look="classic" transform="translate(336.9453125, 1313)"><g class="basic label-container outer-path"><path d="M-123.21875 -75 L123.21875 -75 L123.21875 75 L-123.21875 75" stroke="none" stroke-width="0" fill="#ECECFF" style=""/><path d="M-123.21875 -75 C-59.62484404676766 -75, 3.969061906464674 -75, 123.21875 -75 M-123.21875 -75 C-59.843107048667406 -75, 3.532535902665188 -75, 123.21875 -75 M123.21875 -75 C123.21875 -32.03251182192599, 123.21875 10.934976356148013, 123.21875 75 M123.21875 -75 C123.21875 -23.37999364195192, 123.21875 28.24001271609616, 123.21875 75 M123.21875 75 C45.749750679787695 75, -31.71924864042461 75, -123.21875 75 M123.21875 75 C54.90073002091738 75, -13.417289958165242 75, -123.21875 75 M-123.21875 75 C-123.21875 36.591442308894734, -123.21875 -1.817115382210531, -123.21875 -75 M-123.21875 75 C-123.21875 38.47070905421573, -123.21875 1.9414181084314635, -123.21875 -75" stroke="#9370DB" stroke-width="1.3" fill="none" stroke-dasharray="0 0" style=""/></g><g class="annotation-group text" transform="translate(-40.390625, -51)"><g class="label" style="" transform="translate(0,-12)"><foreignObject width="80.78125" height="24"><div xmlns="http://www.w3.org/1999/xhtml" style="display: table-cell; white-space: nowrap; line-height: 1.5; max-width: 132px; text-align: center;"><span class="nodeLabel markdown-node-label" style=""><p>«外部资源»</p></span></div></foreignObject></g></g><g class="label-group text" transform="translate(-65.796875, -27)"><g class="label" style="font-weight: bolder" transform="translate(0,-12)"><foreignObject width="131.59375" height="24"><div xmlns="http://www.w3.org/1999/xhtml" style="display: table-cell; white-space: nowrap; line-height: 1.5; max-width: 180px; text-align: center;"><span class="nodeLabel markdown-node-label" style=""><p>ExternalResource</p></span></div></foreignObject></g></g><g class="members-group text" transform="translate(-111.21875, 21)"/><g class="methods-group text" transform="translate(-111.21875, 51)"><g class="label" style="" transform="translate(0,-12)"><foreignObject width="156.640625" height="24"><div xmlns="http://www.w3.org/1999/xhtml" style="display: table-cell; white-space: nowrap; line-height: 1.5; max-width: 217px; text-align: center;"><span class="nodeLabel markdown-node-label" style=""><p>+connect() : 建立连接</p></span></div></foreignObject></g></g><g class="divider" style=""><path d="M-123.21875 -3 C-44.490157532828675 -2.9996805332286396, 34.23843493434265 -2.9993610664572787, 123.21875 -2.999 M-123.21875 -3 C-47.75731003414252 -2.9996937907584442, 27.70412993171496 -2.999387581516889, 123.21875 -2.999" stroke="#9370DB" stroke-width="1.3" fill="none" stroke-dasharray="0 0" style=""/></g><g class="divider" style=""><path d="M-123.21875 21 C-67.25379668637046 21.00022709593026, -11.288843372740942 21.000454191860523, 123.21875 21.001 M-123.21875 21 C-72.76440520775265 21.000204734850794, -22.31006041550529 21.000409469701587, 123.21875 21.001" stroke="#9370DB" stroke-width="1.3" fill="none" stroke-dasharray="0 0" style=""/></g></g><g class="node undefined" id="my-svg-note0" data-look="classic" transform="translate(1146.79296875, 26)"><g class="basic label-container outer-path"><path d="M-211.9921875 -18 L211.9921875 -18 L211.9921875 18 L-211.9921875 18" stroke="none" stroke-width="0" fill="#fff5ad" style="fill:#fff5ad !important;stroke:#aaaa33 !important"/><path d="M-211.9921875 -18 C-74.73029105907585 -18, 62.531605381848294 -18, 211.9921875 -18 M-211.9921875 -18 C-120.61063457160265 -18, -29.22908164320529 -18, 211.9921875 -18 M211.9921875 -18 C211.9921875 -8.604613334312821, 211.9921875 0.790773331374357, 211.9921875 18 M211.9921875 -18 C211.9921875 -3.8921892857451468, 211.9921875 10.215621428509706, 211.9921875 18 M211.9921875 18 C45.62630941854209 18, -120.73956866291581 18, -211.9921875 18 M211.9921875 18 C52.44307642077567 18, -107.10603465844866 18, -211.9921875 18 M-211.9921875 18 C-211.9921875 6.235347539858946, -211.9921875 -5.529304920282108, -211.9921875 -18 M-211.9921875 18 C-211.9921875 9.596828806434194, -211.9921875 1.193657612868389, -211.9921875 -18" stroke="#aaaa33" stroke-width="1.3" fill="none" stroke-dasharray="0 0" style="fill:#fff5ad !important;stroke:#aaaa33 !important"/></g><g class="label noteLabel" style="text-align:left !important;white-space:nowrap !important" transform="translate(-205.9921875, -12)"><rect/><foreignObject width="411.984375" height="24"><div style="text-align: center; white-space: break-spaces; display: table; line-height: 1.5; max-width: 200px; width: 200px;" xmlns="http://www.w3.org/1999/xhtml"><span style="text-align:left !important;white-space:nowrap !important" class="nodeLabel markdown-node-label"><p>中文注释：实际入口为 test_*.py / function_call_demo.py</p></span></div></foreignObject></g></g><g class="node undefined" id="my-svg-note1" data-look="classic" transform="translate(879.50390625, 181)"><g class="basic label-container outer-path"><path d="M-90.59375 -18 L90.59375 -18 L90.59375 18 L-90.59375 18" stroke="none" stroke-width="0" fill="#fff5ad" style="fill:#fff5ad !important;stroke:#aaaa33 !important"/><path d="M-90.59375 -18 C-32.41649849659723 -18, 25.760753006805544 -18, 90.59375 -18 M-90.59375 -18 C-44.34725214010599 -18, 1.899245719788027 -18, 90.59375 -18 M90.59375 -18 C90.59375 -8.556892711631015, 90.59375 0.8862145767379701, 90.59375 18 M90.59375 -18 C90.59375 -7.484115681499961, 90.59375 3.031768637000077, 90.59375 18 M90.59375 18 C30.8452113734402 18, -28.9033272531196 18, -90.59375 18 M90.59375 18 C26.52328577198014 18, -37.54717845603972 18, -90.59375 18 M-90.59375 18 C-90.59375 5.10005973194202, -90.59375 -7.79988053611596, -90.59375 -18 M-90.59375 18 C-90.59375 9.613525495014889, -90.59375 1.2270509900297775, -90.59375 -18" stroke="#aaaa33" stroke-width="1.3" fill="none" stroke-dasharray="0 0" style="fill:#fff5ad !important;stroke:#aaaa33 !important"/></g><g class="label noteLabel" style="text-align:left !important;white-space:nowrap !important" transform="translate(-84.59375, -12)"><rect/><foreignObject width="169.1875" height="24"><div style="text-align: center; white-space: nowrap; display: table-cell; line-height: 1.5; max-width: 200px;" xmlns="http://www.w3.org/1999/xhtml"><span style="text-align:left !important;white-space:nowrap !important" class="nodeLabel markdown-node-label"><p>中文职责：SimpleAgent</p></span></div></foreignObject></g></g><g class="node undefined" id="my-svg-note2" data-look="classic" transform="translate(717.4375, 417)"><g class="basic label-container outer-path"><path d="M-87.1875 -18 L87.1875 -18 L87.1875 18 L-87.1875 18" stroke="none" stroke-width="0" fill="#fff5ad" style="fill:#fff5ad !important;stroke:#aaaa33 !important"/><path d="M-87.1875 -18 C-21.576866794528087 -18, 44.03376641094383 -18, 87.1875 -18 M-87.1875 -18 C-33.27358578769978 -18, 20.64032842460044 -18, 87.1875 -18 M87.1875 -18 C87.1875 -3.690450716940015, 87.1875 10.61909856611997, 87.1875 18 M87.1875 -18 C87.1875 -7.048837838268762, 87.1875 3.9023243234624765, 87.1875 18 M87.1875 18 C38.701719586353576 18, -9.784060827292848 18, -87.1875 18 M87.1875 18 C47.862655866299754 18, 8.537811732599508 18, -87.1875 18 M-87.1875 18 C-87.1875 6.5376698736892305, -87.1875 -4.924660252621539, -87.1875 -18 M-87.1875 18 C-87.1875 4.475852412446256, -87.1875 -9.048295175107487, -87.1875 -18" stroke="#aaaa33" stroke-width="1.3" fill="none" stroke-dasharray="0 0" style="fill:#fff5ad !important;stroke:#aaaa33 !important"/></g><g class="label noteLabel" style="text-align:left !important;white-space:nowrap !important" transform="translate(-81.1875, -12)"><rect/><foreignObject width="162.375" height="24"><div style="text-align: center; white-space: nowrap; display: table-cell; line-height: 1.5; max-width: 200px;" xmlns="http://www.w3.org/1999/xhtml"><span style="text-align:left !important;white-space:nowrap !important" class="nodeLabel markdown-node-label"><p>中文职责：ReActAgent</p></span></div></foreignObject></g></g><g class="node undefined" id="my-svg-note3" data-look="classic" transform="translate(557.08203125, 641)"><g class="basic label-container outer-path"><path d="M-103.09375 -18 L103.09375 -18 L103.09375 18 L-103.09375 18" stroke="none" stroke-width="0" fill="#fff5ad" style="fill:#fff5ad !important;stroke:#aaaa33 !important"/><path d="M-103.09375 -18 C-24.07367780916107 -18, 54.94639438167786 -18, 103.09375 -18 M-103.09375 -18 C-50.63003853245248 -18, 1.8336729350950378 -18, 103.09375 -18 M103.09375 -18 C103.09375 -5.075468963661791, 103.09375 7.849062072676418, 103.09375 18 M103.09375 -18 C103.09375 -8.562301198625224, 103.09375 0.8753976027495511, 103.09375 18 M103.09375 18 C21.05066036772172 18, -60.99242926455656 18, -103.09375 18 M103.09375 18 C44.9511054123665 18, -13.191539175266996 18, -103.09375 18 M-103.09375 18 C-103.09375 7.586488853160345, -103.09375 -2.8270222936793097, -103.09375 -18 M-103.09375 18 C-103.09375 8.680525825908486, -103.09375 -0.6389483481830283, -103.09375 -18" stroke="#aaaa33" stroke-width="1.3" fill="none" stroke-dasharray="0 0" style="fill:#fff5ad !important;stroke:#aaaa33 !important"/></g><g class="label noteLabel" style="text-align:left !important;white-space:nowrap !important" transform="translate(-97.09375, -12)"><rect/><foreignObject width="194.1875" height="24"><div style="text-align: center; white-space: nowrap; display: table-cell; line-height: 1.5; max-width: 200px;" xmlns="http://www.w3.org/1999/xhtml"><span style="text-align:left !important;white-space:nowrap !important" class="nodeLabel markdown-node-label"><p>中文职责：ReflectionAgent</p></span></div></foreignObject></g></g><g class="node undefined" id="my-svg-note4" data-look="classic" transform="translate(352.4375, 865)"><g class="basic label-container outer-path"><path d="M-137.7265625 -18 L137.7265625 -18 L137.7265625 18 L-137.7265625 18" stroke="none" stroke-width="0" fill="#fff5ad" style="fill:#fff5ad !important;stroke:#aaaa33 !important"/><path d="M-137.7265625 -18 C-72.93042510420449 -18, -8.134287708408976 -18, 137.7265625 -18 M-137.7265625 -18 C-50.43732182175205 -18, 36.8519188564959 -18, 137.7265625 -18 M137.7265625 -18 C137.7265625 -5.408521982494586, 137.7265625 7.182956035010829, 137.7265625 18 M137.7265625 -18 C137.7265625 -7.93334942795979, 137.7265625 2.13330114408042, 137.7265625 18 M137.7265625 18 C30.264195461091987 18, -77.19817157781603 18, -137.7265625 18 M137.7265625 18 C70.4209974336504 18, 3.115432367300798 18, -137.7265625 18 M-137.7265625 18 C-137.7265625 10.421717799030471, -137.7265625 2.8434355980609425, -137.7265625 -18 M-137.7265625 18 C-137.7265625 5.351647806832352, -137.7265625 -7.296704386335296, -137.7265625 -18" stroke="#aaaa33" stroke-width="1.3" fill="none" stroke-dasharray="0 0" style="fill:#fff5ad !important;stroke:#aaaa33 !important"/></g><g class="label noteLabel" style="text-align:left !important;white-space:nowrap !important" transform="translate(-131.7265625, -12)"><rect/><foreignObject width="263.453125" height="24"><div style="text-align: center; white-space: break-spaces; display: table; line-height: 1.5; max-width: 200px; width: 200px;" xmlns="http://www.w3.org/1999/xhtml"><span style="text-align:left !important;white-space:nowrap !important" class="nodeLabel markdown-node-label"><p>中文职责：PlanSolve 与 FunctionCall</p></span></div></foreignObject></g></g><g class="node undefined" id="my-svg-note5" data-look="classic" transform="translate(142.078125, 1089)"><g class="basic label-container outer-path"><path d="M-134.078125 -18 L134.078125 -18 L134.078125 18 L-134.078125 18" stroke="none" stroke-width="0" fill="#fff5ad" style="fill:#fff5ad !important;stroke:#aaaa33 !important"/><path d="M-134.078125 -18 C-34.1851506690318 -18, 65.7078236619364 -18, 134.078125 -18 M-134.078125 -18 C-57.02947857643163 -18, 20.019167847136742 -18, 134.078125 -18 M134.078125 -18 C134.078125 -3.75202899974931, 134.078125 10.49594200050138, 134.078125 18 M134.078125 -18 C134.078125 -8.729196291749476, 134.078125 0.5416074165010478, 134.078125 18 M134.078125 18 C52.71184977160242 18, -28.654425456795167 18, -134.078125 18 M134.078125 18 C63.368831011132045 18, -7.3404629777359105 18, -134.078125 18 M-134.078125 18 C-134.078125 5.276088082092372, -134.078125 -7.447823835815257, -134.078125 -18 M-134.078125 18 C-134.078125 3.834307284817326, -134.078125 -10.331385430365348, -134.078125 -18" stroke="#aaaa33" stroke-width="1.3" fill="none" stroke-dasharray="0 0" style="fill:#fff5ad !important;stroke:#aaaa33 !important"/></g><g class="label noteLabel" style="text-align:left !important;white-space:nowrap !important" transform="translate(-128.078125, -12)"><rect/><foreignObject width="256.15625" height="24"><div style="text-align: center; white-space: break-spaces; display: table; line-height: 1.5; max-width: 200px; width: 200px;" xmlns="http://www.w3.org/1999/xhtml"><span style="text-align:left !important;white-space:nowrap !important" class="nodeLabel markdown-node-label"><p>中文注释：DeepSeek API、可选工具</p></span></div></foreignObject></g></g></g></g></g><defs><filter id="my-svg-drop-shadow" height="130%" width="130%"><feDropShadow dx="4" dy="4" stdDeviation="0" flood-opacity="0.06" flood-color="#000000"/></filter></defs><defs><filter id="my-svg-drop-shadow-small" height="150%" width="150%"><feDropShadow dx="2" dy="2" stdDeviation="0" flood-opacity="0.06" flood-color="#000000"/></filter></defs></svg>