<svg id="my-svg" width="100%" xmlns="http://www.w3.org/2000/svg" xmlns:xlink="http://www.w3.org/1999/xlink" class="classDiagram" style="max-width: 1396.91px; background-color: white;" viewBox="0 0 1396.90625 1396" role="graphics-document document" aria-roledescription="classDiagram"><style>#my-svg{font-family:"trebuchet ms",verdana,arial,sans-serif;font-size:16px;fill:#333;}@keyframes edge-animation-frame{from{stroke-dashoffset:0;}}@keyframes dash{to{stroke-dashoffset:0;}}#my-svg .edge-animation-slow{stroke-dasharray:9,5!important;stroke-dashoffset:900;animation:dash 50s linear infinite;stroke-linecap:round;}#my-svg .edge-animation-fast{stroke-dasharray:9,5!important;stroke-dashoffset:900;animation:dash 20s linear infinite;stroke-linecap:round;}#my-svg .error-icon{fill:#552222;}#my-svg .error-text{fill:#552222;stroke:#552222;}#my-svg .edge-thickness-normal{stroke-width:1px;}#my-svg .edge-thickness-thick{stroke-width:3.5px;}#my-svg .edge-pattern-solid{stroke-dasharray:0;}#my-svg .edge-thickness-invisible{stroke-width:0;fill:none;}#my-svg .edge-pattern-dashed{stroke-dasharray:3;}#my-svg .edge-pattern-dotted{stroke-dasharray:2;}#my-svg .marker{fill:#333333;stroke:#333333;}#my-svg .marker.cross{stroke:#333333;}#my-svg svg{font-family:"trebuchet ms",verdana,arial,sans-serif;font-size:16px;}#my-svg p{margin:0;}#my-svg g.classGroup text{fill:#9370DB;stroke:none;font-family:"trebuchet ms",verdana,arial,sans-serif;font-size:10px;}#my-svg g.classGroup text .title{font-weight:bolder;}#my-svg .cluster-label text{fill:#333;}#my-svg .cluster-label span{color:#333;}#my-svg .cluster-label span p{background-color:transparent;}#my-svg .cluster rect{fill:#ffffde;stroke:#aaaa33;stroke-width:1px;}#my-svg .cluster text{fill:#333;}#my-svg .cluster span{color:#333;}#my-svg .nodeLabel,#my-svg .edgeLabel{color:#131300;}#my-svg .noteLabel .nodeLabel,#my-svg .noteLabel .edgeLabel{color:black;}#my-svg .edgeLabel .label rect{fill:#ECECFF;}#my-svg .label text{fill:#131300;}#my-svg .labelBkg{background:#ECECFF;}#my-svg .edgeLabel .label span{background:#ECECFF;}#my-svg .classTitle{font-weight:bolder;}#my-svg .node rect,#my-svg .node circle,#my-svg .node ellipse,#my-svg .node polygon,#my-svg .node path{fill:#ECECFF;stroke:#9370DB;stroke-width:1;}#my-svg .divider{stroke:#9370DB;stroke-width:1;}#my-svg g.clickable{cursor:pointer;}#my-svg g.classGroup rect{fill:#ECECFF;stroke:#9370DB;}#my-svg g.classGroup line{stroke:#9370DB;stroke-width:1;}#my-svg .classLabel .box{stroke:none;stroke-width:0;fill:#ECECFF;opacity:0.5;}#my-svg .classLabel .label{fill:#9370DB;font-size:10px;}#my-svg .relation{stroke:#333333;stroke-width:1;fill:none;}#my-svg .dashed-line{stroke-dasharray:3;}#my-svg .dotted-line{stroke-dasharray:1 2;}#my-svg [id$="-compositionStart"],#my-svg .composition{fill:#333333!important;stroke:#333333!important;stroke-width:1;}#my-svg [id$="-compositionEnd"],#my-svg .composition{fill:#333333!important;stroke:#333333!important;stroke-width:1;}#my-svg [id$="-dependencyStart"],#my-svg .dependency{fill:#333333!important;stroke:#333333!important;stroke-width:1;}#my-svg [id$="-dependencyEnd"],#my-svg .dependency{fill:#333333!important;stroke:#333333!important;stroke-width:1;}#my-svg [id$="-extensionStart"],#my-svg .extension{fill:transparent!important;stroke:#333333!important;stroke-width:1;}#my-svg [id$="-extensionEnd"],#my-svg .extension{fill:transparent!important;stroke:#333333!important;stroke-width:1;}#my-svg [id$="-aggregationStart"],#my-svg .aggregation{fill:transparent!important;stroke:#333333!important;stroke-width:1;}#my-svg [id$="-aggregationEnd"],#my-svg .aggregation{fill:transparent!important;stroke:#333333!important;stroke-width:1;}#my-svg [id$="-lollipopStart"],#my-svg .lollipop{fill:#ECECFF!important;stroke:#333333!important;stroke-width:1;}#my-svg [id$="-lollipopEnd"],#my-svg .lollipop{fill:#ECECFF!important;stroke:#333333!important;stroke-width:1;}#my-svg .edgeTerminals{font-size:11px;line-height:initial;}#my-svg .classTitleText{text-anchor:middle;font-size:18px;fill:#333;}#my-svg .edgeLabel[data-look="neo"]{background-color:rgba(232,232,232, 0.8);text-align:center;}#my-svg .edgeLabel[data-look="neo"] p{background-color:rgba(232,232,232, 0.8);}#my-svg .edgeLabel[data-look="neo"] rect{opacity:0.5;background-color:rgba(232,232,232, 0.8);fill:rgba(232,232,232, 0.8);}#my-svg .label-icon{display:inline-block;height:1em;overflow:visible;vertical-align:-0.125em;}#my-svg .node .label-icon path{fill:currentColor;stroke:revert;stroke-width:revert;}#my-svg .node .neo-node{stroke:#9370DB;}#my-svg [data-look="neo"].node rect,#my-svg [data-look="neo"].cluster rect,#my-svg [data-look="neo"].node polygon{stroke:#9370DB;filter:drop-shadow(1px 2px 2px rgba(185, 185, 185, 1));}#my-svg [data-look="neo"].swimlane.cluster rect{filter:none;}#my-svg [data-look="neo"].node path{stroke:#9370DB;stroke-width:1px;}#my-svg [data-look="neo"].node .outer-path{filter:drop-shadow(1px 2px 2px rgba(185, 185, 185, 1));}#my-svg [data-look="neo"].node .neo-line path{stroke:#9370DB;filter:none;}#my-svg [data-look="neo"].node circle{stroke:#9370DB;filter:drop-shadow(1px 2px 2px rgba(185, 185, 185, 1));}#my-svg [data-look="neo"].node circle .state-start{fill:#000000;}#my-svg [data-look="neo"].icon-shape .icon{fill:#9370DB;filter:drop-shadow(1px 2px 2px rgba(185, 185, 185, 1));}#my-svg [data-look="neo"].icon-shape .icon-neo path{stroke:#9370DB;filter:drop-shadow(1px 2px 2px rgba(185, 185, 185, 1));}#my-svg :root{--mermaid-font-family:"trebuchet ms",verdana,arial,sans-serif;}</style><g><defs><marker id="my-svg_classDiagram-aggregationStart" class="marker aggregation classDiagram" refX="18" refY="7" markerWidth="190" markerHeight="240" orient="auto"><path d="M 18,7 L9,13 L1,7 L9,1 Z"/></marker></defs><defs><marker id="my-svg_classDiagram-aggregationEnd" class="marker aggregation classDiagram" refX="1" refY="7" markerWidth="20" markerHeight="28" orient="auto"><path d="M 18,7 L9,13 L1,7 L9,1 Z"/></marker></defs><defs><marker id="my-svg_classDiagram-aggregationStart-margin" class="marker aggregation classDiagram" refX="15" refY="7" markerWidth="190" markerHeight="240" orient="auto" markerUnits="userSpaceOnUse"><path d="M 18,7 L9,13 L1,7 L9,1 Z" style="stroke-width: 2;"/></marker></defs><defs><marker id="my-svg_classDiagram-aggregationEnd-margin" class="marker aggregation classDiagram" refX="1" refY="7" markerWidth="20" markerHeight="28" orient="auto" markerUnits="userSpaceOnUse"><path d="M 18,7 L9,13 L1,7 L9,1 Z" style="stroke-width: 2;"/></marker></defs><defs><marker id="my-svg_classDiagram-extensionStart" class="marker extension classDiagram" refX="18" refY="7" markerWidth="20" markerHeight="28" orient="auto" markerUnits="userSpaceOnUse"><path d="M 1,7 L18,13 V 1 Z"/></marker></defs><defs><marker id="my-svg_classDiagram-extensionEnd" class="marker extension classDiagram" refX="1" refY="7" markerWidth="20" markerHeight="28" orient="auto"><path d="M 1,1 V 13 L18,7 Z"/></marker></defs><marker id="my-svg_classDiagram-extensionStart-margin" class="marker extension classDiagram" refX="18" refY="7" markerWidth="20" markerHeight="28" orient="auto" markerUnits="userSpaceOnUse" viewBox="0 0 20 14"><polygon points="10,7 18,13 18,1" style="stroke-width: 2; stroke-dasharray: 0;"/></marker><defs><marker id="my-svg_classDiagram-extensionEnd-margin" class="marker extension classDiagram" refX="9" refY="7" markerWidth="20" markerHeight="28" orient="auto" markerUnits="userSpaceOnUse" viewBox="0 0 20 14"><polygon points="10,1 10,13 18,7" style="stroke-width: 2; stroke-dasharray: 0;"/></marker></defs><defs><marker id="my-svg_classDiagram-compositionStart" class="marker composition classDiagram" refX="18" refY="7" markerWidth="190" markerHeight="240" orient="auto"><path d="M 18,7 L9,13 L1,7 L9,1 Z"/></marker></defs><defs><marker id="my-svg_classDiagram-compositionEnd" class="marker composition classDiagram" refX="1" refY="7" markerWidth="20" markerHeight="28" orient="auto"><path d="M 18,7 L9,13 L1,7 L9,1 Z"/></marker></defs><defs><marker id="my-svg_classDiagram-compositionStart-margin" class="marker composition classDiagram" refX="15" refY="7" markerWidth="190" markerHeight="240" orient="auto" markerUnits="userSpaceOnUse"><path viewBox="0 0 15 15" d="M 18,7 L9,13 L1,7 L9,1 Z" style="stroke-width: 0;"/></marker></defs><defs><marker id="my-svg_classDiagram-compositionEnd-margin" class="marker composition classDiagram" refX="3.5" refY="7" markerWidth="20" markerHeight="28" orient="auto" markerUnits="userSpaceOnUse"><path d="M 18,7 L9,13 L1,7 L9,1 Z" style="stroke-width: 0;"/></marker></defs><defs><marker id="my-svg_classDiagram-dependencyStart" class="marker dependency classDiagram" refX="6" refY="7" markerWidth="190" markerHeight="240" orient="auto"><path d="M 5,7 L9,13 L1,7 L9,1 Z"/></marker></defs><defs><marker id="my-svg_classDiagram-dependencyEnd" class="marker dependency classDiagram" refX="13" refY="7" markerWidth="20" markerHeight="28" orient="auto"><path d="M 18,7 L9,13 L14,7 L9,1 Z"/></marker></defs><defs><marker id="my-svg_classDiagram-dependencyStart-margin" class="marker dependency classDiagram" refX="4" refY="7" markerWidth="190" markerHeight="240" orient="auto" markerUnits="userSpaceOnUse"><path d="M 5,7 L9,13 L1,7 L9,1 Z" style="stroke-width: 0;"/></marker></defs><defs><marker id="my-svg_classDiagram-dependencyEnd-margin" class="marker dependency classDiagram" refX="16" refY="7" markerWidth="20" markerHeight="28" orient="auto" markerUnits="userSpaceOnUse"><path d="M 18,7 L9,13 L14,7 L9,1 Z" style="stroke-width: 0;"/></marker></defs><defs><marker id="my-svg_classDiagram-lollipopStart" class="marker lollipop classDiagram" refX="13" refY="7" markerWidth="190" markerHeight="240" orient="auto"><circle fill="transparent" cx="7" cy="7" r="6"/></marker></defs><defs><marker id="my-svg_classDiagram-lollipopEnd" class="marker lollipop classDiagram" refX="1" refY="7" markerWidth="190" markerHeight="240" orient="auto"><circle fill="transparent" cx="7" cy="7" r="6"/></marker></defs><defs><marker id="my-svg_classDiagram-lollipopStart-margin" class="marker lollipop classDiagram" refX="13" refY="7" markerWidth="190" markerHeight="240" orient="auto" markerUnits="userSpaceOnUse"><circle fill="transparent" cx="7" cy="7" r="6" stroke-width="2"/></marker></defs><defs><marker id="my-svg_classDiagram-lollipopEnd-margin" class="marker lollipop classDiagram" refX="1" refY="7" markerWidth="190" markerHeight="240" orient="auto" markerUnits="userSpaceOnUse"><circle fill="transparent" cx="7" cy="7" r="6" stroke-width="2"/></marker></defs><g class="root"><g class="clusters"/><g class="edgePaths"><path d="M1047.422,44L1047.422,48.167C1047.422,52.333,1047.422,60.667,1047.422,69C1047.422,77.333,1047.422,85.667,1047.422,89.833L1047.422,94" id="my-svg-edgeNote0" class="edge-thickness-normal edge-pattern-dotted relation" style="fill: none;;;fill: none" data-edge="true" data-et="edge" data-id="edgeNote0" data-points="W3sieCI6MTA0Ny40MjE4NzUsInkiOjQ0fSx7IngiOjEwNDcuNDIxODc1LCJ5Ijo2OX0seyJ4IjoxMDQ3LjQyMTg3NSwieSI6OTR9XQ==" data-look="classic"/><path d="M792.727,199L792.727,216.667C792.727,234.333,792.727,269.667,799.738,293.5C806.75,317.333,820.773,329.667,827.785,335.833L834.797,342" id="my-svg-edgeNote1" class="edge-thickness-normal edge-pattern-dotted relation" style="fill: none;;;fill: none" data-edge="true" data-et="edge" data-id="edgeNote1" data-points="W3sieCI6NzkyLjcyNjU2MjUsInkiOjE5OX0seyJ4Ijo3OTIuNzI2NTYyNSwieSI6MzA1fSx7IngiOjgzNC43OTY3NzAzNjgzMDM2LCJ5IjozNDJ9XQ==" data-look="classic"/><path d="M646.145,435L646.145,450.667C646.145,466.333,646.145,497.667,653.686,519.5C661.227,541.333,676.309,553.667,683.851,559.833L691.392,566" id="my-svg-edgeNote2" class="edge-thickness-normal edge-pattern-dotted relation" style="fill: none;;;fill: none" data-edge="true" data-et="edge" data-id="edgeNote2" data-points="W3sieCI6NjQ2LjE0NDUzMTI1LCJ5Ijo0MzV9LHsieCI6NjQ2LjE0NDUzMTI1LCJ5Ijo1Mjl9LHsieCI6NjkxLjM5MTg0NTcwMzEyNSwieSI6NTY2fV0=" data-look="classic"/><path d="M501.18,659L501.18,674.667C501.18,690.333,501.18,721.667,508.941,743.5C516.703,765.333,532.226,777.667,539.987,783.833L547.748,790" id="my-svg-edgeNote3" class="edge-thickness-normal edge-pattern-dotted relation" style="fill: none;;;fill: none" data-edge="true" data-et="edge" data-id="edgeNote3" data-points="W3sieCI6NTAxLjE3OTY4NzUsInkiOjY1OX0seyJ4Ijo1MDEuMTc5Njg3NSwieSI6NzUzfSx7IngiOjU0Ny43NDg0MzA1MjQ1NTM2LCJ5Ijo3OTB9XQ==" data-look="classic"/><path d="M352.215,883L352.215,898.667C352.215,914.333,352.215,945.667,360.197,967.5C368.178,989.333,384.142,1001.667,392.123,1007.833L400.105,1014" id="my-svg-edgeNote4" class="edge-thickness-normal edge-pattern-dotted relation" style="fill: none;;;fill: none" data-edge="true" data-et="edge" data-id="edgeNote4" data-points="W3sieCI6MzUyLjIxNDg0Mzc1LCJ5Ijo4ODN9LHsieCI6MzUyLjIxNDg0Mzc1LCJ5Ijo5Nzd9LHsieCI6NDAwLjEwNTAxNTM0NTk4MjEsInkiOjEwMTR9XQ==" data-look="classic"/><path d="M150.625,1107L150.625,1122.667C150.625,1138.333,150.625,1169.667,160.166,1191.5C169.706,1213.333,188.787,1225.667,198.328,1231.833L207.868,1238" id="my-svg-edgeNote5" class="edge-thickness-normal edge-pattern-dotted relation" style="fill: none;;;fill: none" data-edge="true" data-et="edge" data-id="edgeNote5" data-points="W3sieCI6MTUwLjYyNSwieSI6MTEwN30seyJ4IjoxNTAuNjI1LCJ5IjoxMjAxfSx7IngiOjIwNy44Njg0MDgyMDMxMjUsInkiOjEyMzh9XQ==" data-look="classic"/><path d="M1047.422,268L1047.422,274.167C1047.422,280.333,1047.422,292.667,1041.161,304.34C1034.9,316.013,1022.379,327.025,1016.118,332.531L1009.857,338.038" id="my-svg-id_EntryModule_Core1_1" class="edge-thickness-normal edge-pattern-dashed relation" style=";;;" data-edge="true" data-et="edge" data-id="id_EntryModule_Core1_1" data-points="W3sieCI6MTA0Ny40MjE4NzUsInkiOjI2OH0seyJ4IjoxMDQ3LjQyMTg3NSwieSI6MzA1fSx7IngiOjEwMDUuMzUxNjY3MTMxNjk2NCwieSI6MzQyfV0=" data-look="classic" marker-end="url(#my-svg_classDiagram-dependencyEnd)"/><path d="M920.074,492L920.074,498.167C920.074,504.333,920.074,516.667,913.307,528.367C906.54,540.067,893.006,551.135,886.239,556.668L879.472,562.202" id="my-svg-id_Core1_Core2_2" class="edge-thickness-normal edge-pattern-solid relation" style=";;;" data-edge="true" data-et="edge" data-id="id_Core1_Core2_2" data-points="W3sieCI6OTIwLjA3NDIxODc1LCJ5Ijo0OTJ9LHsieCI6OTIwLjA3NDIxODc1LCJ5Ijo1Mjl9LHsieCI6ODc0LjgyNjkwNDI5Njg3NSwieSI6NTY2fV0=" data-look="classic" marker-end="url(#my-svg_classDiagram-dependencyEnd)"/><path d="M783.109,716L783.109,722.167C783.109,728.333,783.109,740.667,776.131,752.378C769.152,764.089,755.195,775.178,748.217,780.723L741.238,786.268" id="my-svg-id_Core2_Core3_3" class="edge-thickness-normal edge-pattern-solid relation" style=";;;" data-edge="true" data-et="edge" data-id="id_Core2_Core3_3" data-points="W3sieCI6NzgzLjEwOTM3NSwieSI6NzE2fSx7IngiOjc4My4xMDkzNzUsInkiOjc1M30seyJ4Ijo3MzYuNTQwNjMxOTc1NDQ2NCwieSI6NzkwfV0=" data-look="classic" marker-end="url(#my-svg_classDiagram-dependencyEnd)"/><path d="M642.145,940L642.145,946.167C642.145,952.333,642.145,964.667,634.954,976.389C627.764,988.111,613.383,999.221,606.193,1004.776L599.002,1010.332" id="my-svg-id_Core3_Core4_4" class="edge-thickness-normal edge-pattern-solid relation" style=";;;" data-edge="true" data-et="edge" data-id="id_Core3_Core4_4" data-points="W3sieCI6NjQyLjE0NDUzMTI1LCJ5Ijo5NDB9LHsieCI6NjQyLjE0NDUzMTI1LCJ5Ijo5Nzd9LHsieCI6NTk0LjI1NDM1OTY1NDAxNzksInkiOjEwMTR9XQ==" data-look="classic" marker-end="url(#my-svg_classDiagram-dependencyEnd)"/><path d="M497.18,1164L497.18,1170.167C497.18,1176.333,497.18,1188.667,488.479,1200.457C479.778,1212.248,462.377,1223.495,453.676,1229.119L444.975,1234.743" id="my-svg-id_Core4_ExternalResource_5" class="edge-thickness-normal edge-pattern-dashed relation" style=";;;" data-edge="true" data-et="edge" data-id="id_Core4_ExternalResource_5" data-points="W3sieCI6NDk3LjE3OTY4NzUsInkiOjExNjR9LHsieCI6NDk3LjE3OTY4NzUsInkiOjEyMDF9LHsieCI6NDM5LjkzNjI3OTI5Njg3NSwieSI6MTIzOH1d" data-look="classic" marker-end="url(#my-svg_classDiagram-dependencyEnd)"/></g><g class="edgeLabels"><g class="edgeLabel"><g class="label" data-id="edgeNote0" transform="translate(0, 0)"><foreignObject width="0" height="0"><div xmlns="http://www.w3.org/1999/xhtml" class="labelBkg" style="display: table-cell; white-space: nowrap; line-height: 1.5; max-width: 200px; text-align: center;"><span class="edgeLabel"></span></div></foreignObject></g></g><g class="edgeLabel"><g class="label" data-id="edgeNote1" transform="translate(0, 0)"><foreignObject width="0" height="0"><div xmlns="http://www.w3.org/1999/xhtml" class="labelBkg" style="display: table-cell; white-space: nowrap; line-height: 1.5; max-width: 200px; text-align: center;"><span class="edgeLabel"></span></div></foreignObject></g></g><g class="edgeLabel"><g class="label" data-id="edgeNote2" transform="translate(0, 0)"><foreignObject width="0" height="0"><div xmlns="http://www.w3.org/1999/xhtml" class="labelBkg" style="display: table-cell; white-space: nowrap; line-height: 1.5; max-width: 200px; text-align: center;"><span class="edgeLabel"></span></div></foreignObject></g></g><g class="edgeLabel"><g class="label" data-id="edgeNote3" transform="translate(0, 0)"><foreignObject width="0" height="0"><div xmlns="http://www.w3.org/1999/xhtml" class="labelBkg" style="display: table-cell; white-space: nowrap; line-height: 1.5; max-width: 200px; text-align: center;"><span class="edgeLabel"></span></div></foreignObject></g></g><g class="edgeLabel"><g class="label" data-id="edgeNote4" transform="translate(0, 0)"><foreignObject width="0" height="0"><div xmlns="http://www.w3.org/1999/xhtml" class="labelBkg" style="display: table-cell; white-space: nowrap; line-height: 1.5; max-width: 200px; text-align: center;"><span class="edgeLabel"></span></div></foreignObject></g></g><g class="edgeLabel"><g class="label" data-id="edgeNote5" transform="translate(0, 0)"><foreignObject width="0" height="0"><div xmlns="http://www.w3.org/1999/xhtml" class="labelBkg" style="display: table-cell; white-space: nowrap; line-height: 1.5; max-width: 200px; text-align: center;"><span class="edgeLabel"></span></div></foreignObject></g></g><g class="edgeLabel" transform="translate(1047.421875, 305)"><g class="label" data-id="id_EntryModule_Core1_1" transform="translate(-40, -12)"><foreignObject width="80" height="24"><div xmlns="http://www.w3.org/1999/xhtml" class="labelBkg" style="display: table-cell; white-space: nowrap; line-height: 1.5; max-width: 200px; text-align: center;"><span class="edgeLabel"><p>创建或调用</p></span></div></foreignObject></g></g><g class="edgeLabel" transform="translate(920.07421875, 529)"><g class="label" data-id="id_Core1_Core2_2" transform="translate(-56, -12)"><foreignObject width="112" height="24"><div xmlns="http://www.w3.org/1999/xhtml" class="labelBkg" style="display: table-cell; white-space: nowrap; line-height: 1.5; max-width: 200px; text-align: center;"><span class="edgeLabel"><p>传递控制或数据</p></span></div></foreignObject></g></g><g class="edgeLabel" transform="translate(783.109375, 753)"><g class="label" data-id="id_Core2_Core3_3" transform="translate(-56, -12)"><foreignObject width="112" height="24"><div xmlns="http://www.w3.org/1999/xhtml" class="labelBkg" style="display: table-cell; white-space: nowrap; line-height: 1.5; max-width: 200px; text-align: center;"><span class="edgeLabel"><p>传递控制或数据</p></span></div></foreignObject></g></g><g class="edgeLabel" transform="translate(642.14453125, 977)"><g class="label" data-id="id_Core3_Core4_4" transform="translate(-56, -12)"><foreignObject width="112" height="24"><div xmlns="http://www.w3.org/1999/xhtml" class="labelBkg" style="display: table-cell; white-space: nowrap; line-height: 1.5; max-width: 200px; text-align: center;"><span class="edgeLabel"><p>传递控制或数据</p></span></div></foreignObject></g></g><g class="edgeLabel" transform="translate(497.1796875, 1201)"><g class="label" data-id="id_Core4_ExternalResource_5" transform="translate(-32, -12)"><foreignObject width="64" height="24"><div xmlns="http://www.w3.org/1999/xhtml" class="labelBkg" style="display: table-cell; white-space: nowrap; line-height: 1.5; max-width: 200px; text-align: center;"><span class="edgeLabel"><p>按需访问</p></span></div></foreignObject></g></g></g><g class="nodes"><g class="node default" id="my-svg-classId-EntryModule-0" data-look="classic" transform="translate(1047.421875, 181)"><g class="basic label-container outer-path"><path d="M-126.6953125 -87 L126.6953125 -87 L126.6953125 87 L-126.6953125 87" stroke="none" stroke-width="0" fill="#ECECFF" style=""/><path d="M-126.6953125 -87 C-41.200917263449654 -87, 44.29347797310069 -87, 126.6953125 -87 M-126.6953125 -87 C-41.38497670283107 -87, 43.925359094337864 -87, 126.6953125 -87 M126.6953125 -87 C126.6953125 -27.57307615392024, 126.6953125 31.85384769215952, 126.6953125 87 M126.6953125 -87 C126.6953125 -31.087201577011307, 126.6953125 24.825596845977387, 126.6953125 87 M126.6953125 87 C66.92749268281949 87, 7.159672865638981 87, -126.6953125 87 M126.6953125 87 C70.12696868244441 87, 13.558624864888813 87, -126.6953125 87 M-126.6953125 87 C-126.6953125 34.79749676824196, -126.6953125 -17.405006463516074, -126.6953125 -87 M-126.6953125 87 C-126.6953125 39.1220021157491, -126.6953125 -8.755995768501805, -126.6953125 -87" stroke="#9370DB" stroke-width="1.3" fill="none" stroke-dasharray="0 0" style=""/></g><g class="annotation-group text" transform="translate(-40.390625, -63)"><g class="label" style="" transform="translate(0,-12)"><foreignObject width="80.78125" height="24"><div xmlns="http://www.w3.org/1999/xhtml" style="display: table-cell; white-space: nowrap; line-height: 1.5; max-width: 132px; text-align: center;"><span class="nodeLabel markdown-node-label" style=""><p>«入口模块»</p></span></div></foreignObject></g></g><g class="label-group text" transform="translate(-46.953125, -39)"><g class="label" style="font-weight: bolder" transform="translate(0,-12)"><foreignObject width="93.90625" height="24"><div xmlns="http://www.w3.org/1999/xhtml" style="display: table-cell; white-space: nowrap; line-height: 1.5; max-width: 143px; text-align: center;"><span class="nodeLabel markdown-node-label" style=""><p>EntryModule</p></span></div></foreignObject></g></g><g class="members-group text" transform="translate(-114.6953125, 9)"/><g class="methods-group text" transform="translate(-114.6953125, 39)"><g class="label" style="" transform="translate(0,-12)"><foreignObject width="182.4375" height="24"><div xmlns="http://www.w3.org/1999/xhtml" style="display: table-cell; white-space: nowrap; line-height: 1.5; max-width: 243px; text-align: center;"><span class="nodeLabel markdown-node-label" style=""><p>+load_config() : 读取配置</p></span></div></foreignObject></g><g class="label" style="" transform="translate(0,12)"><foreignObject width="123.359375" height="24"><div xmlns="http://www.w3.org/1999/xhtml" style="display: table-cell; white-space: nowrap; line-height: 1.5; max-width: 181px; text-align: center;"><span class="nodeLabel markdown-node-label" style=""><p>+run() : 启动实践</p></span></div></foreignObject></g></g><g class="divider" style=""><path d="M-126.6953125 -15 C-54.74292561654741 -14.999716041637754, 17.20946126690518 -14.999432083275508, 126.6953125 -14.999 M-126.6953125 -15 C-71.52705650183756 -14.999782279806137, -16.35880050367514 -14.999564559612274, 126.6953125 -14.999" stroke="#9370DB" stroke-width="1.3" fill="none" stroke-dasharray="0 0" style=""/></g><g class="divider" style=""><path d="M-126.6953125 9 C-59.29783892923412 9.000265982506537, 8.099634641531765 9.000531965013076, 126.6953125 9.001 M-126.6953125 9 C-46.89702742964032 9.000314922010514, 32.901257640719365 9.000629844021027, 126.6953125 9.001" stroke="#9370DB" stroke-width="1.3" fill="none" stroke-dasharray="0 0" style=""/></g></g><g class="node default" id="my-svg-classId-Core1-1" data-look="classic" transform="translate(920.07421875, 417)"><g class="basic label-container outer-path"><path d="M-145.9296875 -75 L145.9296875 -75 L145.9296875 75 L-145.9296875 75" stroke="none" stroke-width="0" fill="#ECECFF" style=""/><path d="M-145.9296875 -75 C-83.9651308647717 -75, -22.00057422954339 -75, 145.9296875 -75 M-145.9296875 -75 C-40.35153895838138 -75, 65.22660958323723 -75, 145.9296875 -75 M145.9296875 -75 C145.9296875 -16.249780734198517, 145.9296875 42.50043853160297, 145.9296875 75 M145.9296875 -75 C145.9296875 -31.81971592157474, 145.9296875 11.360568156850519, 145.9296875 75 M145.9296875 75 C72.40227756504862 75, -1.125132369902758 75, -145.9296875 75 M145.9296875 75 C73.9985478742697 75, 2.067408248539408 75, -145.9296875 75 M-145.9296875 75 C-145.9296875 22.18839741784779, -145.9296875 -30.623205164304423, -145.9296875 -75 M-145.9296875 75 C-145.9296875 33.68747170812957, -145.9296875 -7.625056583740857, -145.9296875 -75" stroke="#9370DB" stroke-width="1.3" fill="none" stroke-dasharray="0 0" style=""/></g><g class="annotation-group text" transform="translate(-47, -51)"><g class="label" style="" transform="translate(0,-12)"><foreignObject width="94" height="24"><div xmlns="http://www.w3.org/1999/xhtml" style="display: table-cell; white-space: nowrap; line-height: 1.5; max-width: 144px; text-align: center;"><span class="nodeLabel markdown-node-label" style=""><p>«核心组件 1»</p></span></div></foreignObject></g></g><g class="label-group text" transform="translate(-22.125, -27)"><g class="label" style="font-weight: bolder" transform="translate(0,-12)"><foreignObject width="44.25" height="24"><div xmlns="http://www.w3.org/1999/xhtml" style="display: table-cell; white-space: nowrap; line-height: 1.5; max-width: 92px; text-align: center;"><span class="nodeLabel markdown-node-label" style=""><p>Core1</p></span></div></foreignObject></g></g><g class="members-group text" transform="translate(-133.9296875, 21)"/><g class="methods-group text" transform="translate(-133.9296875, 51)"><g class="label" style="" transform="translate(0,-12)"><foreignObject width="220.859375" height="24"><div xmlns="http://www.w3.org/1999/xhtml" style="display: table-cell; white-space: nowrap; line-height: 1.5; max-width: 279px; text-align: center;"><span class="nodeLabel markdown-node-label" style=""><p>+execute() : 执行服务注册职责</p></span></div></foreignObject></g></g><g class="divider" style=""><path d="M-145.9296875 -3 C-68.0906232103321 -2.9997332994210324, 9.748441079335805 -2.9994665988420643, 145.9296875 -2.999 M-145.9296875 -3 C-38.19258219968475 -2.999630859535349, 69.5445231006305 -2.999261719070698, 145.9296875 -2.999" stroke="#9370DB" stroke-width="1.3" fill="none" stroke-dasharray="0 0" style=""/></g><g class="divider" style=""><path d="M-145.9296875 21 C-82.24347381817616 21.00021820855911, -18.557260136352312 21.000436417118223, 145.9296875 21.001 M-145.9296875 21 C-38.41032568288617 21.000368394408497, 69.10903613422767 21.000736788816994, 145.9296875 21.001" stroke="#9370DB" stroke-width="1.3" fill="none" stroke-dasharray="0 0" style=""/></g></g><g class="node default" id="my-svg-classId-Core2-2" data-look="classic" transform="translate(783.109375, 641)"><g class="basic label-container outer-path"><path d="M-145.9296875 -75 L145.9296875 -75 L145.9296875 75 L-145.9296875 75" stroke="none" stroke-width="0" fill="#ECECFF" style=""/><path d="M-145.9296875 -75 C-43.63808622588151 -75, 58.65351504823698 -75, 145.9296875 -75 M-145.9296875 -75 C-38.20246946695579 -75, 69.52474856608842 -75, 145.9296875 -75 M145.9296875 -75 C145.9296875 -30.03671468738345, 145.9296875 14.926570625233097, 145.9296875 75 M145.9296875 -75 C145.9296875 -21.342370289371246, 145.9296875 32.31525942125751, 145.9296875 75 M145.9296875 75 C75.33659805780894 75, 4.743508615617884 75, -145.9296875 75 M145.9296875 75 C70.1770577705508 75, -5.575571958898394 75, -145.9296875 75 M-145.9296875 75 C-145.9296875 39.49879174209952, -145.9296875 3.9975834841990405, -145.9296875 -75 M-145.9296875 75 C-145.9296875 24.39497259552683, -145.9296875 -26.21005480894634, -145.9296875 -75" stroke="#9370DB" stroke-width="1.3" fill="none" stroke-dasharray="0 0" style=""/></g><g class="annotation-group text" transform="translate(-47, -51)"><g class="label" style="" transform="translate(0,-12)"><foreignObject width="94" height="24"><div xmlns="http://www.w3.org/1999/xhtml" style="display: table-cell; white-space: nowrap; line-height: 1.5; max-width: 147px; text-align: center;"><span class="nodeLabel markdown-node-label" style=""><p>«核心组件 2»</p></span></div></foreignObject></g></g><g class="label-group text" transform="translate(-22.125, -27)"><g class="label" style="font-weight: bolder" transform="translate(0,-12)"><foreignObject width="44.25" height="24"><div xmlns="http://www.w3.org/1999/xhtml" style="display: table-cell; white-space: nowrap; line-height: 1.5; max-width: 95px; text-align: center;"><span class="nodeLabel markdown-node-label" style=""><p>Core2</p></span></div></foreignObject></g></g><g class="members-group text" transform="translate(-133.9296875, 21)"/><g class="methods-group text" transform="translate(-133.9296875, 51)"><g class="label" style="" transform="translate(0,-12)"><foreignObject width="220.859375" height="24"><div xmlns="http://www.w3.org/1999/xhtml" style="display: table-cell; white-space: nowrap; line-height: 1.5; max-width: 279px; text-align: center;"><span class="nodeLabel markdown-node-label" style=""><p>+execute() : 执行服务发现职责</p></span></div></foreignObject></g></g><g class="divider" style=""><path d="M-145.9296875 -3 C-47.64155804940293 -2.9996632346332865, 50.64657140119414 -2.9993264692665735, 145.9296875 -2.999 M-145.9296875 -3 C-34.14698038065076 -2.999616998059016, 77.63572673869848 -2.9992339961180323, 145.9296875 -2.999" stroke="#9370DB" stroke-width="1.3" fill="none" stroke-dasharray="0 0" style=""/></g><g class="divider" style=""><path d="M-145.9296875 21 C-65.40818692026001 21.000275891430864, 15.113313659479985 21.000551782861727, 145.9296875 21.001 M-145.9296875 21 C-53.86544311740147 21.00031544042189, 38.19880126519706 21.00063088084378, 145.9296875 21.001" stroke="#9370DB" stroke-width="1.3" fill="none" stroke-dasharray="0 0" style=""/></g></g><g class="node default" id="my-svg-classId-Core3-3" data-look="classic" transform="translate(642.14453125, 865)"><g class="basic label-container outer-path"><path d="M-153.9296875 -75 L153.9296875 -75 L153.9296875 75 L-153.9296875 75" stroke="none" stroke-width="0" fill="#ECECFF" style=""/><path d="M-153.9296875 -75 C-67.8376266213751 -75, 18.254434257249812 -75, 153.9296875 -75 M-153.9296875 -75 C-92.09177028870198 -75, -30.253853077403946 -75, 153.9296875 -75 M153.9296875 -75 C153.9296875 -15.135633467233902, 153.9296875 44.7287330655322, 153.9296875 75 M153.9296875 -75 C153.9296875 -17.445008136764834, 153.9296875 40.10998372647033, 153.9296875 75 M153.9296875 75 C63.63768230514275 75, -26.654322889714507 75, -153.9296875 75 M153.9296875 75 C53.44152870983643 75, -47.046630080327134 75, -153.9296875 75 M-153.9296875 75 C-153.9296875 19.99404759642259, -153.9296875 -35.01190480715482, -153.9296875 -75 M-153.9296875 75 C-153.9296875 16.22637516860749, -153.9296875 -42.54724966278502, -153.9296875 -75" stroke="#9370DB" stroke-width="1.3" fill="none" stroke-dasharray="0 0" style=""/></g><g class="annotation-group text" transform="translate(-47, -51)"><g class="label" style="" transform="translate(0,-12)"><foreignObject width="94" height="24"><div xmlns="http://www.w3.org/1999/xhtml" style="display: table-cell; white-space: nowrap; line-height: 1.5; max-width: 147px; text-align: center;"><span class="nodeLabel markdown-node-label" style=""><p>«核心组件 3»</p></span></div></foreignObject></g></g><g class="label-group text" transform="translate(-22.125, -27)"><g class="label" style="font-weight: bolder" transform="translate(0,-12)"><foreignObject width="44.25" height="24"><div xmlns="http://www.w3.org/1999/xhtml" style="display: table-cell; white-space: nowrap; line-height: 1.5; max-width: 95px; text-align: center;"><span class="nodeLabel markdown-node-label" style=""><p>Core3</p></span></div></foreignObject></g></g><g class="members-group text" transform="translate(-141.9296875, 21)"/><g class="methods-group text" transform="translate(-141.9296875, 51)"><g class="label" style="" transform="translate(0,-12)"><foreignObject width="236.859375" height="24"><div xmlns="http://www.w3.org/1999/xhtml" style="display: table-cell; white-space: nowrap; line-height: 1.5; max-width: 295px; text-align: center;"><span class="nodeLabel markdown-node-label" style=""><p>+execute() : 执行任务分发器职责</p></span></div></foreignObject></g></g><g class="divider" style=""><path d="M-153.9296875 -3 C-88.42445162836168 -2.9997872235143994, -22.91921575672336 -2.9995744470287993, 153.9296875 -2.999 M-153.9296875 -3 C-83.1352369417217 -2.999770042895207, -12.340786383443401 -2.999540085790415, 153.9296875 -2.999" stroke="#9370DB" stroke-width="1.3" fill="none" stroke-dasharray="0 0" style=""/></g><g class="divider" style=""><path d="M-153.9296875 21 C-79.19996671178866 21.00024273979244, -4.470245923577323 21.00048547958488, 153.9296875 21.001 M-153.9296875 21 C-45.492498911065624 21.00035222961324, 62.94468967786875 21.000704459226483, 153.9296875 21.001" stroke="#9370DB" stroke-width="1.3" fill="none" stroke-dasharray="0 0" style=""/></g></g><g class="node default" id="my-svg-classId-Core4-4" data-look="classic" transform="translate(497.1796875, 1089)"><g class="basic label-container outer-path"><path d="M-153.9296875 -75 L153.9296875 -75 L153.9296875 75 L-153.9296875 75" stroke="none" stroke-width="0" fill="#ECECFF" style=""/><path d="M-153.9296875 -75 C-51.32241222908277 -75, 51.284863041834456 -75, 153.9296875 -75 M-153.9296875 -75 C-70.99702279289534 -75, 11.935641914209327 -75, 153.9296875 -75 M153.9296875 -75 C153.9296875 -21.058137551282762, 153.9296875 32.883724897434476, 153.9296875 75 M153.9296875 -75 C153.9296875 -16.202375824641337, 153.9296875 42.59524835071733, 153.9296875 75 M153.9296875 75 C52.18508504059014 75, -49.55951741881972 75, -153.9296875 75 M153.9296875 75 C57.58435374923398 75, -38.76098000153203 75, -153.9296875 75 M-153.9296875 75 C-153.9296875 30.537513419997644, -153.9296875 -13.924973160004711, -153.9296875 -75 M-153.9296875 75 C-153.9296875 25.50442566329233, -153.9296875 -23.99114867341534, -153.9296875 -75" stroke="#9370DB" stroke-width="1.3" fill="none" stroke-dasharray="0 0" style=""/></g><g class="annotation-group text" transform="translate(-47, -51)"><g class="label" style="" transform="translate(0,-12)"><foreignObject width="94" height="24"><div xmlns="http://www.w3.org/1999/xhtml" style="display: table-cell; white-space: nowrap; line-height: 1.5; max-width: 147px; text-align: center;"><span class="nodeLabel markdown-node-label" style=""><p>«核心组件 4»</p></span></div></foreignObject></g></g><g class="label-group text" transform="translate(-22.125, -27)"><g class="label" style="font-weight: bolder" transform="translate(0,-12)"><foreignObject width="44.25" height="24"><div xmlns="http://www.w3.org/1999/xhtml" style="display: table-cell; white-space: nowrap; line-height: 1.5; max-width: 95px; text-align: center;"><span class="nodeLabel markdown-node-label" style=""><p>Core4</p></span></div></foreignObject></g></g><g class="members-group text" transform="translate(-141.9296875, 21)"/><g class="methods-group text" transform="translate(-141.9296875, 51)"><g class="label" style="" transform="translate(0,-12)"><foreignObject width="236.859375" height="24"><div xmlns="http://www.w3.org/1999/xhtml" style="display: table-cell; white-space: nowrap; line-height: 1.5; max-width: 295px; text-align: center;"><span class="nodeLabel markdown-node-label" style=""><p>+execute() : 执行负载均衡器职责</p></span></div></foreignObject></g></g><g class="divider" style=""><path d="M-153.9296875 -3 C-57.511480453813775 -2.9996868108790053, 38.90672659237245 -2.999373621758011, 153.9296875 -2.999 M-153.9296875 -3 C-50.97054433329487 -2.9996655643728025, 51.988598833410265 -2.9993311287456055, 153.9296875 -2.999" stroke="#9370DB" stroke-width="1.3" fill="none" stroke-dasharray="0 0" style=""/></g><g class="divider" style=""><path d="M-153.9296875 21 C-81.52588506596788 21.00023518465999, -9.122082631935768 21.00047036931998, 153.9296875 21.001 M-153.9296875 21 C-75.3973108227204 21.00025509171737, 3.135065854559201 21.00051018343474, 153.9296875 21.001" stroke="#9370DB" stroke-width="1.3" fill="none" stroke-dasharray="0 0" style=""/></g></g><g class="node default" id="my-svg-classId-ExternalResource-5" data-look="classic" transform="translate(323.90234375, 1313)"><g class="basic label-container outer-path"><path d="M-123.21875 -75 L123.21875 -75 L123.21875 75 L-123.21875 75" stroke="none" stroke-width="0" fill="#ECECFF" style=""/><path d="M-123.21875 -75 C-48.513811378816 -75, 26.191127242367997 -75, 123.21875 -75 M-123.21875 -75 C-34.03523439320888 -75, 55.14828121358224 -75, 123.21875 -75 M123.21875 -75 C123.21875 -16.737669465845613, 123.21875 41.524661068308774, 123.21875 75 M123.21875 -75 C123.21875 -43.30092667484659, 123.21875 -11.601853349693187, 123.21875 75 M123.21875 75 C52.90795480595439 75, -17.40284038809122 75, -123.21875 75 M123.21875 75 C28.6296647732307 75, -65.9594204535386 75, -123.21875 75 M-123.21875 75 C-123.21875 26.403731749476883, -123.21875 -22.192536501046234, -123.21875 -75 M-123.21875 75 C-123.21875 37.22830013930886, -123.21875 -0.5433997213822863, -123.21875 -75" stroke="#9370DB" stroke-width="1.3" fill="none" stroke-dasharray="0 0" style=""/></g><g class="annotation-group text" transform="translate(-40.390625, -51)"><g class="label" style="" transform="translate(0,-12)"><foreignObject width="80.78125" height="24"><div xmlns="http://www.w3.org/1999/xhtml" style="display: table-cell; white-space: nowrap; line-height: 1.5; max-width: 132px; text-align: center;"><span class="nodeLabel markdown-node-label" style=""><p>«外部资源»</p></span></div></foreignObject></g></g><g class="label-group text" transform="translate(-65.796875, -27)"><g class="label" style="font-weight: bolder" transform="translate(0,-12)"><foreignObject width="131.59375" height="24"><div xmlns="http://www.w3.org/1999/xhtml" style="display: table-cell; white-space: nowrap; line-height: 1.5; max-width: 180px; text-align: center;"><span class="nodeLabel markdown-node-label" style=""><p>ExternalResource</p></span></div></foreignObject></g></g><g class="members-group text" transform="translate(-111.21875, 21)"/><g class="methods-group text" transform="translate(-111.21875, 51)"><g class="label" style="" transform="translate(0,-12)"><foreignObject width="156.640625" height="24"><div xmlns="http://www.w3.org/1999/xhtml" style="display: table-cell; white-space: nowrap; line-height: 1.5; max-width: 217px; text-align: center;"><span class="nodeLabel markdown-node-label" style=""><p>+connect() : 建立连接</p></span></div></foreignObject></g></g><g class="divider" style=""><path d="M-123.21875 -3 C-33.9432166720639 -2.9996377355989736, 55.332316655872205 -2.9992754711979472, 123.21875 -2.999 M-123.21875 -3 C-35.737431397662476 -2.999645016206534, 51.74388720467505 -2.9992900324130676, 123.21875 -2.999" stroke="#9370DB" stroke-width="1.3" fill="none" stroke-dasharray="0 0" style=""/></g><g class="divider" style=""><path d="M-123.21875 21 C-43.128323858085054 21.00032499285272, 36.96210228382989 21.00064998570544, 123.21875 21.001 M-123.21875 21 C-26.51245771991583 21.00039241711298, 70.19383456016834 21.00078483422596, 123.21875 21.001" stroke="#9370DB" stroke-width="1.3" fill="none" stroke-dasharray="0 0" style=""/></g></g><g class="node undefined" id="my-svg-note0" data-look="classic" transform="translate(1047.421875, 26)"><g class="basic label-container outer-path"><path d="M-341.484375 -18 L341.484375 -18 L341.484375 18 L-341.484375 18" stroke="none" stroke-width="0" fill="#fff5ad" style="fill:#fff5ad !important;stroke:#aaaa33 !important"/><path d="M-341.484375 -18 C-84.87346060506292 -18, 171.73745378987417 -18, 341.484375 -18 M-341.484375 -18 C-200.60407279574528 -18, -59.72377059149056 -18, 341.484375 -18 M341.484375 -18 C341.484375 -4.529045786655443, 341.484375 8.941908426689114, 341.484375 18 M341.484375 -18 C341.484375 -6.689660565996114, 341.484375 4.620678868007772, 341.484375 18 M341.484375 18 C129.90969976853646 18, -81.66497546292709 18, -341.484375 18 M341.484375 18 C117.21230338227855 18, -107.0597682354429 18, -341.484375 18 M-341.484375 18 C-341.484375 10.224964037979854, -341.484375 2.4499280759597077, -341.484375 -18 M-341.484375 18 C-341.484375 3.8432623812102698, -341.484375 -10.31347523757946, -341.484375 -18" stroke="#aaaa33" stroke-width="1.3" fill="none" stroke-dasharray="0 0" style="fill:#fff5ad !important;stroke:#aaaa33 !important"/></g><g class="label noteLabel" style="text-align:left !important;white-space:nowrap !important" transform="translate(-335.484375, -12)"><rect/><foreignObject width="670.96875" height="24"><div style="text-align: center; white-space: break-spaces; display: table; line-height: 1.5; max-width: 200px; width: 200px;" xmlns="http://www.w3.org/1999/xhtml"><span style="text-align:left !important;white-space:nowrap !important" class="nodeLabel markdown-node-label"><p>中文注释：实际入口为 11_ANPInit.py / 12_ANPTaskDistribution.py / 13_ANPLoadBalancing.py</p></span></div></foreignObject></g></g><g class="node undefined" id="my-svg-note1" data-look="classic" transform="translate(792.7265625, 181)"><g class="basic label-container outer-path"><path d="M-78 -18 L78 -18 L78 18 L-78 18" stroke="none" stroke-width="0" fill="#fff5ad" style="fill:#fff5ad !important;stroke:#aaaa33 !important"/><path d="M-78 -18 C-31.79012823781303 -18, 14.419743524373942 -18, 78 -18 M-78 -18 C-17.846758051370173 -18, 42.30648389725965 -18, 78 -18 M78 -18 C78 -7.346808387563788, 78 3.306383224872423, 78 18 M78 -18 C78 -6.296130842733888, 78 5.407738314532224, 78 18 M78 18 C21.993756893051874 18, -34.01248621389625 18, -78 18 M78 18 C36.33655114206973 18, -5.3268977158605395 18, -78 18 M-78 18 C-78 6.924992458635991, -78 -4.150015082728018, -78 -18 M-78 18 C-78 10.236166010935143, -78 2.4723320218702884, -78 -18" stroke="#aaaa33" stroke-width="1.3" fill="none" stroke-dasharray="0 0" style="fill:#fff5ad !important;stroke:#aaaa33 !important"/></g><g class="label noteLabel" style="text-align:left !important;white-space:nowrap !important" transform="translate(-72, -12)"><rect/><foreignObject width="144" height="24"><div style="text-align: center; white-space: nowrap; display: table-cell; line-height: 1.5; max-width: 200px;" xmlns="http://www.w3.org/1999/xhtml"><span style="text-align:left !important;white-space:nowrap !important" class="nodeLabel markdown-node-label"><p>中文职责：服务注册</p></span></div></foreignObject></g></g><g class="node undefined" id="my-svg-note2" data-look="classic" transform="translate(646.14453125, 417)"><g class="basic label-container outer-path"><path d="M-78 -18 L78 -18 L78 18 L-78 18" stroke="none" stroke-width="0" fill="#fff5ad" style="fill:#fff5ad !important;stroke:#aaaa33 !important"/><path d="M-78 -18 C-23.30784334166777 -18, 31.38431331666446 -18, 78 -18 M-78 -18 C-26.61091793492588 -18, 24.77816413014824 -18, 78 -18 M78 -18 C78 -4.72596186847092, 78 8.54807626305816, 78 18 M78 -18 C78 -9.494567151862364, 78 -0.9891343037247289, 78 18 M78 18 C32.63235530732205 18, -12.735289385355898 18, -78 18 M78 18 C16.57792509641277 18, -44.84414980717446 18, -78 18 M-78 18 C-78 7.932829186713402, -78 -2.134341626573196, -78 -18 M-78 18 C-78 6.103139362011305, -78 -5.79372127597739, -78 -18" stroke="#aaaa33" stroke-width="1.3" fill="none" stroke-dasharray="0 0" style="fill:#fff5ad !important;stroke:#aaaa33 !important"/></g><g class="label noteLabel" style="text-align:left !important;white-space:nowrap !important" transform="translate(-72, -12)"><rect/><foreignObject width="144" height="24"><div style="text-align: center; white-space: nowrap; display: table-cell; line-height: 1.5; max-width: 200px;" xmlns="http://www.w3.org/1999/xhtml"><span style="text-align:left !important;white-space:nowrap !important" class="nodeLabel markdown-node-label"><p>中文职责：服务发现</p></span></div></foreignObject></g></g><g class="node undefined" id="my-svg-note3" data-look="classic" transform="translate(501.1796875, 641)"><g class="basic label-container outer-path"><path d="M-86 -18 L86 -18 L86 18 L-86 18" stroke="none" stroke-width="0" fill="#fff5ad" style="fill:#fff5ad !important;stroke:#aaaa33 !important"/><path d="M-86 -18 C-42.402711495302256 -18, 1.1945770093954877 -18, 86 -18 M-86 -18 C-33.61728612592374 -18, 18.76542774815252 -18, 86 -18 M86 -18 C86 -4.896126743141881, 86 8.207746513716238, 86 18 M86 -18 C86 -7.1528515541485955, 86 3.694296891702809, 86 18 M86 18 C35.90263437898228 18, -14.194731242035445 18, -86 18 M86 18 C38.84681432995798 18, -8.306371340084041 18, -86 18 M-86 18 C-86 5.351109188200116, -86 -7.297781623599768, -86 -18 M-86 18 C-86 5.038928612790929, -86 -7.922142774418141, -86 -18" stroke="#aaaa33" stroke-width="1.3" fill="none" stroke-dasharray="0 0" style="fill:#fff5ad !important;stroke:#aaaa33 !important"/></g><g class="label noteLabel" style="text-align:left !important;white-space:nowrap !important" transform="translate(-80, -12)"><rect/><foreignObject width="160" height="24"><div style="text-align: center; white-space: nowrap; display: table-cell; line-height: 1.5; max-width: 200px;" xmlns="http://www.w3.org/1999/xhtml"><span style="text-align:left !important;white-space:nowrap !important" class="nodeLabel markdown-node-label"><p>中文职责：任务分发器</p></span></div></foreignObject></g></g><g class="node undefined" id="my-svg-note4" data-look="classic" transform="translate(352.21484375, 865)"><g class="basic label-container outer-path"><path d="M-86 -18 L86 -18 L86 18 L-86 18" stroke="none" stroke-width="0" fill="#fff5ad" style="fill:#fff5ad !important;stroke:#aaaa33 !important"/><path d="M-86 -18 C-21.16805580005989 -18, 43.66388839988022 -18, 86 -18 M-86 -18 C-45.261274624457 -18, -4.522549248914004 -18, 86 -18 M86 -18 C86 -8.480632618374338, 86 1.0387347632513233, 86 18 M86 -18 C86 -10.378091475130148, 86 -2.7561829502602944, 86 18 M86 18 C23.691773935482594 18, -38.61645212903481 18, -86 18 M86 18 C18.332743964446195 18, -49.33451207110761 18, -86 18 M-86 18 C-86 9.486456695066021, -86 0.9729133901320424, -86 -18 M-86 18 C-86 5.540476888545266, -86 -6.9190462229094685, -86 -18" stroke="#aaaa33" stroke-width="1.3" fill="none" stroke-dasharray="0 0" style="fill:#fff5ad !important;stroke:#aaaa33 !important"/></g><g class="label noteLabel" style="text-align:left !important;white-space:nowrap !important" transform="translate(-80, -12)"><rect/><foreignObject width="160" height="24"><div style="text-align: center; white-space: nowrap; display: table-cell; line-height: 1.5; max-width: 200px;" xmlns="http://www.w3.org/1999/xhtml"><span style="text-align:left !important;white-space:nowrap !important" class="nodeLabel markdown-node-label"><p>中文职责：负载均衡器</p></span></div></foreignObject></g></g><g class="node undefined" id="my-svg-note5" data-look="classic" transform="translate(150.625, 1089)"><g class="basic label-container outer-path"><path d="M-142.625 -18 L142.625 -18 L142.625 18 L-142.625 18" stroke="none" stroke-width="0" fill="#fff5ad" style="fill:#fff5ad !important;stroke:#aaaa33 !important"/><path d="M-142.625 -18 C-59.25576617264619 -18, 24.11346765470762 -18, 142.625 -18 M-142.625 -18 C-59.15272410115634 -18, 24.319551797687325 -18, 142.625 -18 M142.625 -18 C142.625 -5.7886403394731865, 142.625 6.422719321053627, 142.625 18 M142.625 -18 C142.625 -7.589168298668927, 142.625 2.8216634026621463, 142.625 18 M142.625 18 C30.0819390206305 18, -82.461121958739 18, -142.625 18 M142.625 18 C36.88868137252366 18, -68.84763725495267 18, -142.625 18 M-142.625 18 C-142.625 5.841691730264996, -142.625 -6.316616539470008, -142.625 -18 M-142.625 18 C-142.625 8.867968229461418, -142.625 -0.2640635410771637, -142.625 -18" stroke="#aaaa33" stroke-width="1.3" fill="none" stroke-dasharray="0 0" style="fill:#fff5ad !important;stroke:#aaaa33 !important"/></g><g class="label noteLabel" style="text-align:left !important;white-space:nowrap !important" transform="translate(-136.625, -12)"><rect/><foreignObject width="273.25" height="24"><div style="text-align: center; white-space: break-spaces; display: table; line-height: 1.5; max-width: 200px; width: 200px;" xmlns="http://www.w3.org/1999/xhtml"><span style="text-align:left !important;white-space:nowrap !important" class="nodeLabel markdown-node-label"><p>中文注释：ANP 注册表、DeepSeek API</p></span></div></foreignObject></g></g></g></g></g><defs><filter id="my-svg-drop-shadow" height="130%" width="130%"><feDropShadow dx="4" dy="4" stdDeviation="0" flood-opacity="0.06" flood-color="#000000"/></filter></defs><defs><filter id="my-svg-drop-shadow-small" height="150%" width="150%"><feDropShadow dx="2" dy="2" stdDeviation="0" flood-opacity="0.06" flood-color="#000000"/></filter></defs></svg>