<svg id="my-svg" width="100%" xmlns="http://www.w3.org/2000/svg" xmlns:xlink="http://www.w3.org/1999/xlink" class="classDiagram" style="max-width: 1336.55px; background-color: white;" viewBox="0 0 1336.55078125 1396" role="graphics-document document" aria-roledescription="classDiagram"><style>#my-svg{font-family:"trebuchet ms",verdana,arial,sans-serif;font-size:16px;fill:#333;}@keyframes edge-animation-frame{from{stroke-dashoffset:0;}}@keyframes dash{to{stroke-dashoffset:0;}}#my-svg .edge-animation-slow{stroke-dasharray:9,5!important;stroke-dashoffset:900;animation:dash 50s linear infinite;stroke-linecap:round;}#my-svg .edge-animation-fast{stroke-dasharray:9,5!important;stroke-dashoffset:900;animation:dash 20s linear infinite;stroke-linecap:round;}#my-svg .error-icon{fill:#552222;}#my-svg .error-text{fill:#552222;stroke:#552222;}#my-svg .edge-thickness-normal{stroke-width:1px;}#my-svg .edge-thickness-thick{stroke-width:3.5px;}#my-svg .edge-pattern-solid{stroke-dasharray:0;}#my-svg .edge-thickness-invisible{stroke-width:0;fill:none;}#my-svg .edge-pattern-dashed{stroke-dasharray:3;}#my-svg .edge-pattern-dotted{stroke-dasharray:2;}#my-svg .marker{fill:#333333;stroke:#333333;}#my-svg .marker.cross{stroke:#333333;}#my-svg svg{font-family:"trebuchet ms",verdana,arial,sans-serif;font-size:16px;}#my-svg p{margin:0;}#my-svg g.classGroup text{fill:#9370DB;stroke:none;font-family:"trebuchet ms",verdana,arial,sans-serif;font-size:10px;}#my-svg g.classGroup text .title{font-weight:bolder;}#my-svg .cluster-label text{fill:#333;}#my-svg .cluster-label span{color:#333;}#my-svg .cluster-label span p{background-color:transparent;}#my-svg .cluster rect{fill:#ffffde;stroke:#aaaa33;stroke-width:1px;}#my-svg .cluster text{fill:#333;}#my-svg .cluster span{color:#333;}#my-svg .nodeLabel,#my-svg .edgeLabel{color:#131300;}#my-svg .noteLabel .nodeLabel,#my-svg .noteLabel .edgeLabel{color:black;}#my-svg .edgeLabel .label rect{fill:#ECECFF;}#my-svg .label text{fill:#131300;}#my-svg .labelBkg{background:#ECECFF;}#my-svg .edgeLabel .label span{background:#ECECFF;}#my-svg .classTitle{font-weight:bolder;}#my-svg .node rect,#my-svg .node circle,#my-svg .node ellipse,#my-svg .node polygon,#my-svg .node path{fill:#ECECFF;stroke:#9370DB;stroke-width:1;}#my-svg .divider{stroke:#9370DB;stroke-width:1;}#my-svg g.clickable{cursor:pointer;}#my-svg g.classGroup rect{fill:#ECECFF;stroke:#9370DB;}#my-svg g.classGroup line{stroke:#9370DB;stroke-width:1;}#my-svg .classLabel .box{stroke:none;stroke-width:0;fill:#ECECFF;opacity:0.5;}#my-svg .classLabel .label{fill:#9370DB;font-size:10px;}#my-svg .relation{stroke:#333333;stroke-width:1;fill:none;}#my-svg .dashed-line{stroke-dasharray:3;}#my-svg .dotted-line{stroke-dasharray:1 2;}#my-svg [id$="-compositionStart"],#my-svg .composition{fill:#333333!important;stroke:#333333!important;stroke-width:1;}#my-svg [id$="-compositionEnd"],#my-svg .composition{fill:#333333!important;stroke:#333333!important;stroke-width:1;}#my-svg [id$="-dependencyStart"],#my-svg .dependency{fill:#333333!important;stroke:#333333!important;stroke-width:1;}#my-svg [id$="-dependencyEnd"],#my-svg .dependency{fill:#333333!important;stroke:#333333!important;stroke-width:1;}#my-svg [id$="-extensionStart"],#my-svg .extension{fill:transparent!important;stroke:#333333!important;stroke-width:1;}#my-svg [id$="-extensionEnd"],#my-svg .extension{fill:transparent!important;stroke:#333333!important;stroke-width:1;}#my-svg [id$="-aggregationStart"],#my-svg .aggregation{fill:transparent!important;stroke:#333333!important;stroke-width:1;}#my-svg [id$="-aggregationEnd"],#my-svg .aggregation{fill:transparent!important;stroke:#333333!important;stroke-width:1;}#my-svg [id$="-lollipopStart"],#my-svg .lollipop{fill:#ECECFF!important;stroke:#333333!important;stroke-width:1;}#my-svg [id$="-lollipopEnd"],#my-svg .lollipop{fill:#ECECFF!important;stroke:#333333!important;stroke-width:1;}#my-svg .edgeTerminals{font-size:11px;line-height:initial;}#my-svg .classTitleText{text-anchor:middle;font-size:18px;fill:#333;}#my-svg .edgeLabel[data-look="neo"]{background-color:rgba(232,232,232, 0.8);text-align:center;}#my-svg .edgeLabel[data-look="neo"] p{background-color:rgba(232,232,232, 0.8);}#my-svg .edgeLabel[data-look="neo"] rect{opacity:0.5;background-color:rgba(232,232,232, 0.8);fill:rgba(232,232,232, 0.8);}#my-svg .label-icon{display:inline-block;height:1em;overflow:visible;vertical-align:-0.125em;}#my-svg .node .label-icon path{fill:currentColor;stroke:revert;stroke-width:revert;}#my-svg .node .neo-node{stroke:#9370DB;}#my-svg [data-look="neo"].node rect,#my-svg [data-look="neo"].cluster rect,#my-svg [data-look="neo"].node polygon{stroke:#9370DB;filter:drop-shadow(1px 2px 2px rgba(185, 185, 185, 1));}#my-svg [data-look="neo"].swimlane.cluster rect{filter:none;}#my-svg [data-look="neo"].node path{stroke:#9370DB;stroke-width:1px;}#my-svg [data-look="neo"].node .outer-path{filter:drop-shadow(1px 2px 2px rgba(185, 185, 185, 1));}#my-svg [data-look="neo"].node .neo-line path{stroke:#9370DB;filter:none;}#my-svg [data-look="neo"].node circle{stroke:#9370DB;filter:drop-shadow(1px 2px 2px rgba(185, 185, 185, 1));}#my-svg [data-look="neo"].node circle .state-start{fill:#000000;}#my-svg [data-look="neo"].icon-shape .icon{fill:#9370DB;filter:drop-shadow(1px 2px 2px rgba(185, 185, 185, 1));}#my-svg [data-look="neo"].icon-shape .icon-neo path{stroke:#9370DB;filter:drop-shadow(1px 2px 2px rgba(185, 185, 185, 1));}#my-svg :root{--mermaid-font-family:"trebuchet ms",verdana,arial,sans-serif;}</style><g><defs><marker id="my-svg_classDiagram-aggregationStart" class="marker aggregation classDiagram" refX="18" refY="7" markerWidth="190" markerHeight="240" orient="auto"><path d="M 18,7 L9,13 L1,7 L9,1 Z"/></marker></defs><defs><marker id="my-svg_classDiagram-aggregationEnd" class="marker aggregation classDiagram" refX="1" refY="7" markerWidth="20" markerHeight="28" orient="auto"><path d="M 18,7 L9,13 L1,7 L9,1 Z"/></marker></defs><defs><marker id="my-svg_classDiagram-aggregationStart-margin" class="marker aggregation classDiagram" refX="15" refY="7" markerWidth="190" markerHeight="240" orient="auto" markerUnits="userSpaceOnUse"><path d="M 18,7 L9,13 L1,7 L9,1 Z" style="stroke-width: 2;"/></marker></defs><defs><marker id="my-svg_classDiagram-aggregationEnd-margin" class="marker aggregation classDiagram" refX="1" refY="7" markerWidth="20" markerHeight="28" orient="auto" markerUnits="userSpaceOnUse"><path d="M 18,7 L9,13 L1,7 L9,1 Z" style="stroke-width: 2;"/></marker></defs><defs><marker id="my-svg_classDiagram-extensionStart" class="marker extension classDiagram" refX="18" refY="7" markerWidth="20" markerHeight="28" orient="auto" markerUnits="userSpaceOnUse"><path d="M 1,7 L18,13 V 1 Z"/></marker></defs><defs><marker id="my-svg_classDiagram-extensionEnd" class="marker extension classDiagram" refX="1" refY="7" markerWidth="20" markerHeight="28" orient="auto"><path d="M 1,1 V 13 L18,7 Z"/></marker></defs><marker id="my-svg_classDiagram-extensionStart-margin" class="marker extension classDiagram" refX="18" refY="7" markerWidth="20" markerHeight="28" orient="auto" markerUnits="userSpaceOnUse" viewBox="0 0 20 14"><polygon points="10,7 18,13 18,1" style="stroke-width: 2; stroke-dasharray: 0;"/></marker><defs><marker id="my-svg_classDiagram-extensionEnd-margin" class="marker extension classDiagram" refX="9" refY="7" markerWidth="20" markerHeight="28" orient="auto" markerUnits="userSpaceOnUse" viewBox="0 0 20 14"><polygon points="10,1 10,13 18,7" style="stroke-width: 2; stroke-dasharray: 0;"/></marker></defs><defs><marker id="my-svg_classDiagram-compositionStart" class="marker composition classDiagram" refX="18" refY="7" markerWidth="190" markerHeight="240" orient="auto"><path d="M 18,7 L9,13 L1,7 L9,1 Z"/></marker></defs><defs><marker id="my-svg_classDiagram-compositionEnd" class="marker composition classDiagram" refX="1" refY="7" markerWidth="20" markerHeight="28" orient="auto"><path d="M 18,7 L9,13 L1,7 L9,1 Z"/></marker></defs><defs><marker id="my-svg_classDiagram-compositionStart-margin" class="marker composition classDiagram" refX="15" refY="7" markerWidth="190" markerHeight="240" orient="auto" markerUnits="userSpaceOnUse"><path viewBox="0 0 15 15" d="M 18,7 L9,13 L1,7 L9,1 Z" style="stroke-width: 0;"/></marker></defs><defs><marker id="my-svg_classDiagram-compositionEnd-margin" class="marker composition classDiagram" refX="3.5" refY="7" markerWidth="20" markerHeight="28" orient="auto" markerUnits="userSpaceOnUse"><path d="M 18,7 L9,13 L1,7 L9,1 Z" style="stroke-width: 0;"/></marker></defs><defs><marker id="my-svg_classDiagram-dependencyStart" class="marker dependency classDiagram" refX="6" refY="7" markerWidth="190" markerHeight="240" orient="auto"><path d="M 5,7 L9,13 L1,7 L9,1 Z"/></marker></defs><defs><marker id="my-svg_classDiagram-dependencyEnd" class="marker dependency classDiagram" refX="13" refY="7" markerWidth="20" markerHeight="28" orient="auto"><path d="M 18,7 L9,13 L14,7 L9,1 Z"/></marker></defs><defs><marker id="my-svg_classDiagram-dependencyStart-margin" class="marker dependency classDiagram" refX="4" refY="7" markerWidth="190" markerHeight="240" orient="auto" markerUnits="userSpaceOnUse"><path d="M 5,7 L9,13 L1,7 L9,1 Z" style="stroke-width: 0;"/></marker></defs><defs><marker id="my-svg_classDiagram-dependencyEnd-margin" class="marker dependency classDiagram" refX="16" refY="7" markerWidth="20" markerHeight="28" orient="auto" markerUnits="userSpaceOnUse"><path d="M 18,7 L9,13 L14,7 L9,1 Z" style="stroke-width: 0;"/></marker></defs><defs><marker id="my-svg_classDiagram-lollipopStart" class="marker lollipop classDiagram" refX="13" refY="7" markerWidth="190" markerHeight="240" orient="auto"><circle fill="transparent" cx="7" cy="7" r="6"/></marker></defs><defs><marker id="my-svg_classDiagram-lollipopEnd" class="marker lollipop classDiagram" refX="1" refY="7" markerWidth="190" markerHeight="240" orient="auto"><circle fill="transparent" cx="7" cy="7" r="6"/></marker></defs><defs><marker id="my-svg_classDiagram-lollipopStart-margin" class="marker lollipop classDiagram" refX="13" refY="7" markerWidth="190" markerHeight="240" orient="auto" markerUnits="userSpaceOnUse"><circle fill="transparent" cx="7" cy="7" r="6" stroke-width="2"/></marker></defs><defs><marker id="my-svg_classDiagram-lollipopEnd-margin" class="marker lollipop classDiagram" refX="1" refY="7" markerWidth="190" markerHeight="240" orient="auto" markerUnits="userSpaceOnUse"><circle fill="transparent" cx="7" cy="7" r="6" stroke-width="2"/></marker></defs><g class="root"><g class="clusters"/><g class="edgePaths"><path d="M1028.441,44L1028.441,48.167C1028.441,52.333,1028.441,60.667,1028.441,69C1028.441,77.333,1028.441,85.667,1028.441,89.833L1028.441,94" id="my-svg-edgeNote0" class="edge-thickness-normal edge-pattern-dotted relation" style="fill: none;;;fill: none" data-edge="true" data-et="edge" data-id="edgeNote0" data-points="W3sieCI6MTAyOC40NDE0MDYyNSwieSI6NDR9LHsieCI6MTAyOC40NDE0MDYyNSwieSI6Njl9LHsieCI6MTAyOC40NDE0MDYyNSwieSI6OTR9XQ==" data-look="classic"/><path d="M774.215,199L774.215,216.667C774.215,234.333,774.215,269.667,781.214,293.5C788.212,317.333,802.21,329.667,809.209,335.833L816.208,342" id="my-svg-edgeNote1" class="edge-thickness-normal edge-pattern-dotted relation" style="fill: none;;;fill: none" data-edge="true" data-et="edge" data-id="edgeNote1" data-points="W3sieCI6Nzc0LjIxNDg0Mzc1LCJ5IjoxOTl9LHsieCI6Nzc0LjIxNDg0Mzc1LCJ5IjozMDV9LHsieCI6ODE2LjIwNzYyNDE2Mjk0NjQsInkiOjM0Mn1d" data-look="classic"/><path d="M627.867,435L627.867,450.667C627.867,466.333,627.867,497.667,635.396,519.5C642.924,541.333,657.98,553.667,665.509,559.833L673.037,566" id="my-svg-edgeNote2" class="edge-thickness-normal edge-pattern-dotted relation" style="fill: none;;;fill: none" data-edge="true" data-et="edge" data-id="edgeNote2" data-points="W3sieCI6NjI3Ljg2NzE4NzUsInkiOjQzNX0seyJ4Ijo2MjcuODY3MTg3NSwieSI6NTI5fSx7IngiOjY3My4wMzcwNzQ0OTc3Njc5LCJ5Ijo1NjZ9XQ==" data-look="classic"/><path d="M482.668,659L482.668,674.667C482.668,690.333,482.668,721.667,490.429,743.5C498.191,765.333,513.714,777.667,521.475,783.833L529.237,790" id="my-svg-edgeNote3" class="edge-thickness-normal edge-pattern-dotted relation" style="fill: none;;;fill: none" data-edge="true" data-et="edge" data-id="edgeNote3" data-points="W3sieCI6NDgyLjY2Nzk2ODc1LCJ5Ijo2NTl9LHsieCI6NDgyLjY2Nzk2ODc1LCJ5Ijo3NTN9LHsieCI6NTI5LjIzNjcxMTc3NDU1MzYsInkiOjc5MH1d" data-look="classic"/><path d="M334.648,883L334.648,898.667C334.648,914.333,334.648,945.667,342.604,967.5C350.56,989.333,366.471,1001.667,374.427,1007.833L382.382,1014" id="my-svg-edgeNote4" class="edge-thickness-normal edge-pattern-dotted relation" style="fill: none;;;fill: none" data-edge="true" data-et="edge" data-id="edgeNote4" data-points="W3sieCI6MzM0LjY0ODQzNzUsInkiOjg4M30seyJ4IjozMzQuNjQ4NDM3NSwieSI6OTc3fSx7IngiOjM4Mi4zODI0NjM3Mjc2Nzg1NiwieSI6MTAxNH1d" data-look="classic"/><path d="M142.078,1107L142.078,1122.667C142.078,1138.333,142.078,1169.667,151.357,1191.5C160.637,1213.333,179.195,1225.667,188.474,1231.833L197.754,1238" id="my-svg-edgeNote5" class="edge-thickness-normal edge-pattern-dotted relation" style="fill: none;;;fill: none" data-edge="true" data-et="edge" data-id="edgeNote5" data-points="W3sieCI6MTQyLjA3ODEyNSwieSI6MTEwN30seyJ4IjoxNDIuMDc4MTI1LCJ5IjoxMjAxfSx7IngiOjE5Ny43NTM2MjcyMzIxNDI4NiwieSI6MTIzOH1d" data-look="classic"/><path d="M1028.441,268L1028.441,274.167C1028.441,280.333,1028.441,292.667,1022.193,304.339C1015.944,316.011,1003.447,327.022,997.199,332.528L990.95,338.033" id="my-svg-id_EntryModule_Core1_1" class="edge-thickness-normal edge-pattern-dashed relation" style=";;;" data-edge="true" data-et="edge" data-id="id_EntryModule_Core1_1" data-points="W3sieCI6MTAyOC40NDE0MDYyNSwieSI6MjY4fSx7IngiOjEwMjguNDQxNDA2MjUsInkiOjMwNX0seyJ4Ijo5ODYuNDQ4NjI1ODM3MDUzNiwieSI6MzQyfV0=" data-look="classic" marker-end="url(#my-svg_classDiagram-dependencyEnd)"/><path d="M901.328,492L901.328,498.167C901.328,504.333,901.328,516.667,894.573,528.366C887.819,540.066,874.309,551.132,867.555,556.665L860.8,562.198" id="my-svg-id_Core1_Core2_2" class="edge-thickness-normal edge-pattern-solid relation" style=";;;" data-edge="true" data-et="edge" data-id="id_Core1_Core2_2" data-points="W3sieCI6OTAxLjMyODEyNSwieSI6NDkyfSx7IngiOjkwMS4zMjgxMjUsInkiOjUyOX0seyJ4Ijo4NTYuMTU4MjM4MDAyMjMyMSwieSI6NTY2fV0=" data-look="classic" marker-end="url(#my-svg_classDiagram-dependencyEnd)"/><path d="M764.598,716L764.598,722.167C764.598,728.333,764.598,740.667,757.619,752.378C750.641,764.089,736.684,775.178,729.705,780.723L722.727,786.268" id="my-svg-id_Core2_Core3_3" class="edge-thickness-normal edge-pattern-solid relation" style=";;;" data-edge="true" data-et="edge" data-id="id_Core2_Core3_3" data-points="W3sieCI6NzY0LjU5NzY1NjI1LCJ5Ijo3MTZ9LHsieCI6NzY0LjU5NzY1NjI1LCJ5Ijo3NTN9LHsieCI6NzE4LjAyODkxMzIyNTQ0NjQsInkiOjc5MH1d" data-look="classic" marker-end="url(#my-svg_classDiagram-dependencyEnd)"/><path d="M623.633,940L623.633,946.167C623.633,952.333,623.633,964.667,616.468,976.387C609.302,988.108,594.972,999.216,587.806,1004.77L580.641,1010.324" id="my-svg-id_Core3_Core4_4" class="edge-thickness-normal edge-pattern-solid relation" style=";;;" data-edge="true" data-et="edge" data-id="id_Core3_Core4_4" data-points="W3sieCI6NjIzLjYzMjgxMjUsInkiOjk0MH0seyJ4Ijo2MjMuNjMyODEyNSwieSI6OTc3fSx7IngiOjU3NS44OTg3ODYyNzIzMjE0LCJ5IjoxMDE0fV0=" data-look="classic" marker-end="url(#my-svg_classDiagram-dependencyEnd)"/><path d="M479.141,1164L479.141,1170.167C479.141,1176.333,479.141,1188.667,470.694,1200.447C462.248,1212.226,445.355,1223.453,436.909,1229.066L428.462,1234.679" id="my-svg-id_Core4_ExternalResource_5" class="edge-thickness-normal edge-pattern-dashed relation" style=";;;" data-edge="true" data-et="edge" data-id="id_Core4_ExternalResource_5" data-points="W3sieCI6NDc5LjE0MDYyNSwieSI6MTE2NH0seyJ4Ijo0NzkuMTQwNjI1LCJ5IjoxMjAxfSx7IngiOjQyMy40NjUxMjI3Njc4NTcxLCJ5IjoxMjM4fV0=" data-look="classic" marker-end="url(#my-svg_classDiagram-dependencyEnd)"/></g><g class="edgeLabels"><g class="edgeLabel"><g class="label" data-id="edgeNote0" transform="translate(0, 0)"><foreignObject width="0" height="0"><div xmlns="http://www.w3.org/1999/xhtml" class="labelBkg" style="display: table-cell; white-space: nowrap; line-height: 1.5; max-width: 200px; text-align: center;"><span class="edgeLabel"></span></div></foreignObject></g></g><g class="edgeLabel"><g class="label" data-id="edgeNote1" transform="translate(0, 0)"><foreignObject width="0" height="0"><div xmlns="http://www.w3.org/1999/xhtml" class="labelBkg" style="display: table-cell; white-space: nowrap; line-height: 1.5; max-width: 200px; text-align: center;"><span class="edgeLabel"></span></div></foreignObject></g></g><g class="edgeLabel"><g class="label" data-id="edgeNote2" transform="translate(0, 0)"><foreignObject width="0" height="0"><div xmlns="http://www.w3.org/1999/xhtml" class="labelBkg" style="display: table-cell; white-space: nowrap; line-height: 1.5; max-width: 200px; text-align: center;"><span class="edgeLabel"></span></div></foreignObject></g></g><g class="edgeLabel"><g class="label" data-id="edgeNote3" transform="translate(0, 0)"><foreignObject width="0" height="0"><div xmlns="http://www.w3.org/1999/xhtml" class="labelBkg" style="display: table-cell; white-space: nowrap; line-height: 1.5; max-width: 200px; text-align: center;"><span class="edgeLabel"></span></div></foreignObject></g></g><g class="edgeLabel"><g class="label" data-id="edgeNote4" transform="translate(0, 0)"><foreignObject width="0" height="0"><div xmlns="http://www.w3.org/1999/xhtml" class="labelBkg" style="display: table-cell; white-space: nowrap; line-height: 1.5; max-width: 200px; text-align: center;"><span class="edgeLabel"></span></div></foreignObject></g></g><g class="edgeLabel"><g class="label" data-id="edgeNote5" transform="translate(0, 0)"><foreignObject width="0" height="0"><div xmlns="http://www.w3.org/1999/xhtml" class="labelBkg" style="display: table-cell; white-space: nowrap; line-height: 1.5; max-width: 200px; text-align: center;"><span class="edgeLabel"></span></div></foreignObject></g></g><g class="edgeLabel" transform="translate(1028.44140625, 305)"><g class="label" data-id="id_EntryModule_Core1_1" transform="translate(-40, -12)"><foreignObject width="80" height="24"><div xmlns="http://www.w3.org/1999/xhtml" class="labelBkg" style="display: table-cell; white-space: nowrap; line-height: 1.5; max-width: 200px; text-align: center;"><span class="edgeLabel"><p>创建或调用</p></span></div></foreignObject></g></g><g class="edgeLabel" transform="translate(901.328125, 529)"><g class="label" data-id="id_Core1_Core2_2" transform="translate(-56, -12)"><foreignObject width="112" height="24"><div xmlns="http://www.w3.org/1999/xhtml" class="labelBkg" style="display: table-cell; white-space: nowrap; line-height: 1.5; max-width: 200px; text-align: center;"><span class="edgeLabel"><p>传递控制或数据</p></span></div></foreignObject></g></g><g class="edgeLabel" transform="translate(764.59765625, 753)"><g class="label" data-id="id_Core2_Core3_3" transform="translate(-56, -12)"><foreignObject width="112" height="24"><div xmlns="http://www.w3.org/1999/xhtml" class="labelBkg" style="display: table-cell; white-space: nowrap; line-height: 1.5; max-width: 200px; text-align: center;"><span class="edgeLabel"><p>传递控制或数据</p></span></div></foreignObject></g></g><g class="edgeLabel" transform="translate(623.6328125, 977)"><g class="label" data-id="id_Core3_Core4_4" transform="translate(-56, -12)"><foreignObject width="112" height="24"><div xmlns="http://www.w3.org/1999/xhtml" class="labelBkg" style="display: table-cell; white-space: nowrap; line-height: 1.5; max-width: 200px; text-align: center;"><span class="edgeLabel"><p>传递控制或数据</p></span></div></foreignObject></g></g><g class="edgeLabel" transform="translate(479.140625, 1201)"><g class="label" data-id="id_Core4_ExternalResource_5" transform="translate(-32, -12)"><foreignObject width="64" height="24"><div xmlns="http://www.w3.org/1999/xhtml" class="labelBkg" style="display: table-cell; white-space: nowrap; line-height: 1.5; max-width: 200px; text-align: center;"><span class="edgeLabel"><p>按需访问</p></span></div></foreignObject></g></g></g><g class="nodes"><g class="node default" id="my-svg-classId-EntryModule-0" data-look="classic" transform="translate(1028.44140625, 181)"><g class="basic label-container outer-path"><path d="M-126.6953125 -87 L126.6953125 -87 L126.6953125 87 L-126.6953125 87" stroke="none" stroke-width="0" fill="#ECECFF" style=""/><path d="M-126.6953125 -87 C-72.09472372870914 -87, -17.494134957418282 -87, 126.6953125 -87 M-126.6953125 -87 C-43.98096337758082 -87, 38.73338574483836 -87, 126.6953125 -87 M126.6953125 -87 C126.6953125 -47.99959320112853, 126.6953125 -8.999186402257067, 126.6953125 87 M126.6953125 -87 C126.6953125 -42.82531446187496, 126.6953125 1.3493710762500797, 126.6953125 87 M126.6953125 87 C58.83980513373588 87, -9.015702232528241 87, -126.6953125 87 M126.6953125 87 C74.65597227749217 87, 22.616632054984336 87, -126.6953125 87 M-126.6953125 87 C-126.6953125 49.1849215180278, -126.6953125 11.369843036055599, -126.6953125 -87 M-126.6953125 87 C-126.6953125 23.223854480301668, -126.6953125 -40.552291039396664, -126.6953125 -87" stroke="#9370DB" stroke-width="1.3" fill="none" stroke-dasharray="0 0" style=""/></g><g class="annotation-group text" transform="translate(-40.390625, -63)"><g class="label" style="" transform="translate(0,-12)"><foreignObject width="80.78125" height="24"><div xmlns="http://www.w3.org/1999/xhtml" style="display: table-cell; white-space: nowrap; line-height: 1.5; max-width: 132px; text-align: center;"><span class="nodeLabel markdown-node-label" style=""><p>«入口模块»</p></span></div></foreignObject></g></g><g class="label-group text" transform="translate(-46.953125, -39)"><g class="label" style="font-weight: bolder" transform="translate(0,-12)"><foreignObject width="93.90625" height="24"><div xmlns="http://www.w3.org/1999/xhtml" style="display: table-cell; white-space: nowrap; line-height: 1.5; max-width: 143px; text-align: center;"><span class="nodeLabel markdown-node-label" style=""><p>EntryModule</p></span></div></foreignObject></g></g><g class="members-group text" transform="translate(-114.6953125, 9)"/><g class="methods-group text" transform="translate(-114.6953125, 39)"><g class="label" style="" transform="translate(0,-12)"><foreignObject width="182.4375" height="24"><div xmlns="http://www.w3.org/1999/xhtml" style="display: table-cell; white-space: nowrap; line-height: 1.5; max-width: 243px; text-align: center;"><span class="nodeLabel markdown-node-label" style=""><p>+load_config() : 读取配置</p></span></div></foreignObject></g><g class="label" style="" transform="translate(0,12)"><foreignObject width="123.359375" height="24"><div xmlns="http://www.w3.org/1999/xhtml" style="display: table-cell; white-space: nowrap; line-height: 1.5; max-width: 181px; text-align: center;"><span class="nodeLabel markdown-node-label" style=""><p>+run() : 启动实践</p></span></div></foreignObject></g></g><g class="divider" style=""><path d="M-126.6953125 -15 C-65.5958534545781 -14.999758872456132, -4.496394409156196 -14.999517744912264, 126.6953125 -14.999 M-126.6953125 -15 C-44.74612847201891 -14.999676589518543, 37.20305555596218 -14.999353179037087, 126.6953125 -14.999" stroke="#9370DB" stroke-width="1.3" fill="none" stroke-dasharray="0 0" style=""/></g><g class="divider" style=""><path d="M-126.6953125 9 C-32.778426261195364 9.000370640730054, 61.13845997760927 9.000741281460106, 126.6953125 9.001 M-126.6953125 9 C-63.77459659576915 9.000248315090206, -0.8538806915382935 9.000496630180411, 126.6953125 9.001" stroke="#9370DB" stroke-width="1.3" fill="none" stroke-dasharray="0 0" style=""/></g></g><g class="node default" id="my-svg-classId-Core1-1" data-look="classic" transform="translate(901.328125, 417)"><g class="basic label-container outer-path"><path d="M-145.4609375 -75 L145.4609375 -75 L145.4609375 75 L-145.4609375 75" stroke="none" stroke-width="0" fill="#ECECFF" style=""/><path d="M-145.4609375 -75 C-80.25502136459231 -75, -15.049105229184619 -75, 145.4609375 -75 M-145.4609375 -75 C-43.85825693584923 -75, 57.74442362830155 -75, 145.4609375 -75 M145.4609375 -75 C145.4609375 -26.240699971155287, 145.4609375 22.518600057689426, 145.4609375 75 M145.4609375 -75 C145.4609375 -28.874562435467254, 145.4609375 17.25087512906549, 145.4609375 75 M145.4609375 75 C58.98303976736874 75, -27.494857965262526 75, -145.4609375 75 M145.4609375 75 C45.82931921120695 75, -53.8022990775861 75, -145.4609375 75 M-145.4609375 75 C-145.4609375 25.68433624870248, -145.4609375 -23.631327502595042, -145.4609375 -75 M-145.4609375 75 C-145.4609375 40.514384581681924, -145.4609375 6.028769163363847, -145.4609375 -75" stroke="#9370DB" stroke-width="1.3" fill="none" stroke-dasharray="0 0" style=""/></g><g class="annotation-group text" transform="translate(-47, -51)"><g class="label" style="" transform="translate(0,-12)"><foreignObject width="94" height="24"><div xmlns="http://www.w3.org/1999/xhtml" style="display: table-cell; white-space: nowrap; line-height: 1.5; max-width: 144px; text-align: center;"><span class="nodeLabel markdown-node-label" style=""><p>«核心组件 1»</p></span></div></foreignObject></g></g><g class="label-group text" transform="translate(-22.125, -27)"><g class="label" style="font-weight: bolder" transform="translate(0,-12)"><foreignObject width="44.25" height="24"><div xmlns="http://www.w3.org/1999/xhtml" style="display: table-cell; white-space: nowrap; line-height: 1.5; max-width: 92px; text-align: center;"><span class="nodeLabel markdown-node-label" style=""><p>Core1</p></span></div></foreignObject></g></g><g class="members-group text" transform="translate(-133.4609375, 21)"/><g class="methods-group text" transform="translate(-133.4609375, 51)"><g class="label" style="" transform="translate(0,-12)"><foreignObject width="219.921875" height="24"><div xmlns="http://www.w3.org/1999/xhtml" style="display: table-cell; white-space: nowrap; line-height: 1.5; max-width: 283px; text-align: center;"><span class="nodeLabel markdown-node-label" style=""><p>+execute() : 执行NoteTool职责</p></span></div></foreignObject></g></g><g class="divider" style=""><path d="M-145.4609375 -3 C-50.956493388647345 -2.9996751552487715, 43.54795072270531 -2.9993503104975425, 145.4609375 -2.999 M-145.4609375 -3 C-47.655557933607085 -2.9996638087817686, 50.14982163278583 -2.9993276175635373, 145.4609375 -2.999" stroke="#9370DB" stroke-width="1.3" fill="none" stroke-dasharray="0 0" style=""/></g><g class="divider" style=""><path d="M-145.4609375 21 C-83.25312699427866 21.00021382995179, -21.045316488557305 21.00042765990358, 145.4609375 21.001 M-145.4609375 21 C-36.85737197148394 21.000373308351353, 71.74619355703211 21.000746616702706, 145.4609375 21.001" stroke="#9370DB" stroke-width="1.3" fill="none" stroke-dasharray="0 0" style=""/></g></g><g class="node default" id="my-svg-classId-Core2-2" data-look="classic" transform="translate(764.59765625, 641)"><g class="basic label-container outer-path"><path d="M-145.9296875 -75 L145.9296875 -75 L145.9296875 75 L-145.9296875 75" stroke="none" stroke-width="0" fill="#ECECFF" style=""/><path d="M-145.9296875 -75 C-63.716316089949004 -75, 18.497055320101992 -75, 145.9296875 -75 M-145.9296875 -75 C-71.85898733707057 -75, 2.2117128258588536 -75, 145.9296875 -75 M145.9296875 -75 C145.9296875 -17.408159064822684, 145.9296875 40.18368187035463, 145.9296875 75 M145.9296875 -75 C145.9296875 -23.940208163195727, 145.9296875 27.119583673608545, 145.9296875 75 M145.9296875 75 C51.30039260083831 75, -43.328902298323385 75, -145.9296875 75 M145.9296875 75 C46.681128000872945 75, -52.56743149825411 75, -145.9296875 75 M-145.9296875 75 C-145.9296875 38.26231496951623, -145.9296875 1.5246299390324651, -145.9296875 -75 M-145.9296875 75 C-145.9296875 38.80808872598972, -145.9296875 2.616177451979439, -145.9296875 -75" stroke="#9370DB" stroke-width="1.3" fill="none" stroke-dasharray="0 0" style=""/></g><g class="annotation-group text" transform="translate(-47, -51)"><g class="label" style="" transform="translate(0,-12)"><foreignObject width="94" height="24"><div xmlns="http://www.w3.org/1999/xhtml" style="display: table-cell; white-space: nowrap; line-height: 1.5; max-width: 147px; text-align: center;"><span class="nodeLabel markdown-node-label" style=""><p>«核心组件 2»</p></span></div></foreignObject></g></g><g class="label-group text" transform="translate(-22.125, -27)"><g class="label" style="font-weight: bolder" transform="translate(0,-12)"><foreignObject width="44.25" height="24"><div xmlns="http://www.w3.org/1999/xhtml" style="display: table-cell; white-space: nowrap; line-height: 1.5; max-width: 95px; text-align: center;"><span class="nodeLabel markdown-node-label" style=""><p>Core2</p></span></div></foreignObject></g></g><g class="members-group text" transform="translate(-133.9296875, 21)"/><g class="methods-group text" transform="translate(-133.9296875, 51)"><g class="label" style="" transform="translate(0,-12)"><foreignObject width="220.859375" height="24"><div xmlns="http://www.w3.org/1999/xhtml" style="display: table-cell; white-space: nowrap; line-height: 1.5; max-width: 279px; text-align: center;"><span class="nodeLabel markdown-node-label" style=""><p>+execute() : 执行笔记存储职责</p></span></div></foreignObject></g></g><g class="divider" style=""><path d="M-145.9296875 -3 C-71.08647386657813 -2.9997435641269585, 3.7567397668437366 -2.9994871282539175, 145.9296875 -2.999 M-145.9296875 -3 C-56.44761068251859 -2.9996934068785097, 33.03446613496283 -2.9993868137570194, 145.9296875 -2.999" stroke="#9370DB" stroke-width="1.3" fill="none" stroke-dasharray="0 0" style=""/></g><g class="divider" style=""><path d="M-145.9296875 21 C-57.00104379318424 21.00030469688941, 31.927599913631525 21.000609393778817, 145.9296875 21.001 M-145.9296875 21 C-62.3340551561175 21.00028642435195, 21.261577187765 21.000572848703893, 145.9296875 21.001" stroke="#9370DB" stroke-width="1.3" fill="none" stroke-dasharray="0 0" style=""/></g></g><g class="node default" id="my-svg-classId-Core3-3" data-look="classic" transform="translate(623.6328125, 865)"><g class="basic label-container outer-path"><path d="M-153.9296875 -75 L153.9296875 -75 L153.9296875 75 L-153.9296875 75" stroke="none" stroke-width="0" fill="#ECECFF" style=""/><path d="M-153.9296875 -75 C-61.12407587255524 -75, 31.681535754889524 -75, 153.9296875 -75 M-153.9296875 -75 C-45.02468737802086 -75, 63.880312743958285 -75, 153.9296875 -75 M153.9296875 -75 C153.9296875 -42.93325987746129, 153.9296875 -10.866519754922578, 153.9296875 75 M153.9296875 -75 C153.9296875 -43.771308691509105, 153.9296875 -12.542617383018218, 153.9296875 75 M153.9296875 75 C63.69293117346808 75, -26.543825153063835 75, -153.9296875 75 M153.9296875 75 C57.506690808340494 75, -38.91630588331901 75, -153.9296875 75 M-153.9296875 75 C-153.9296875 31.90680405644084, -153.9296875 -11.186391887118319, -153.9296875 -75 M-153.9296875 75 C-153.9296875 21.20955414575525, -153.9296875 -32.5808917084895, -153.9296875 -75" stroke="#9370DB" stroke-width="1.3" fill="none" stroke-dasharray="0 0" style=""/></g><g class="annotation-group text" transform="translate(-47, -51)"><g class="label" style="" transform="translate(0,-12)"><foreignObject width="94" height="24"><div xmlns="http://www.w3.org/1999/xhtml" style="display: table-cell; white-space: nowrap; line-height: 1.5; max-width: 147px; text-align: center;"><span class="nodeLabel markdown-node-label" style=""><p>«核心组件 3»</p></span></div></foreignObject></g></g><g class="label-group text" transform="translate(-22.125, -27)"><g class="label" style="font-weight: bolder" transform="translate(0,-12)"><foreignObject width="44.25" height="24"><div xmlns="http://www.w3.org/1999/xhtml" style="display: table-cell; white-space: nowrap; line-height: 1.5; max-width: 95px; text-align: center;"><span class="nodeLabel markdown-node-label" style=""><p>Core3</p></span></div></foreignObject></g></g><g class="members-group text" transform="translate(-141.9296875, 21)"/><g class="methods-group text" transform="translate(-141.9296875, 51)"><g class="label" style="" transform="translate(0,-12)"><foreignObject width="236.859375" height="24"><div xmlns="http://www.w3.org/1999/xhtml" style="display: table-cell; white-space: nowrap; line-height: 1.5; max-width: 295px; text-align: center;"><span class="nodeLabel markdown-node-label" style=""><p>+execute() : 执行搜索与摘要职责</p></span></div></foreignObject></g></g><g class="divider" style=""><path d="M-153.9296875 -3 C-33.10846826635117 -2.9996075441287644, 87.71275096729767 -2.9992150882575292, 153.9296875 -2.999 M-153.9296875 -3 C-40.70448090536979 -2.999632217772824, 72.52072568926042 -2.9992644355456473, 153.9296875 -2.999" stroke="#9370DB" stroke-width="1.3" fill="none" stroke-dasharray="0 0" style=""/></g><g class="divider" style=""><path d="M-153.9296875 21 C-47.044946446277734 21.00034718689679, 59.83979460744453 21.00069437379358, 153.9296875 21.001 M-153.9296875 21 C-74.42852398993845 21.000258238565937, 5.07263952012309 21.000516477131875, 153.9296875 21.001" stroke="#9370DB" stroke-width="1.3" fill="none" stroke-dasharray="0 0" style=""/></g></g><g class="node default" id="my-svg-classId-Core4-4" data-look="classic" transform="translate(479.140625, 1089)"><g class="basic label-container outer-path"><path d="M-152.984375 -75 L152.984375 -75 L152.984375 75 L-152.984375 75" stroke="none" stroke-width="0" fill="#ECECFF" style=""/><path d="M-152.984375 -75 C-69.42440312346945 -75, 14.135568753061108 -75, 152.984375 -75 M-152.984375 -75 C-76.40782766218335 -75, 0.16871967563329804 -75, 152.984375 -75 M152.984375 -75 C152.984375 -39.53827473053081, 152.984375 -4.076549461061617, 152.984375 75 M152.984375 -75 C152.984375 -24.140340886991027, 152.984375 26.719318226017947, 152.984375 75 M152.984375 75 C48.01233356168156 75, -56.959707876636884 75, -152.984375 75 M152.984375 75 C33.24830883154509 75, -86.48775733690982 75, -152.984375 75 M-152.984375 75 C-152.984375 25.618421011724443, -152.984375 -23.763157976551113, -152.984375 -75 M-152.984375 75 C-152.984375 16.661353846540173, -152.984375 -41.677292306919654, -152.984375 -75" stroke="#9370DB" stroke-width="1.3" fill="none" stroke-dasharray="0 0" style=""/></g><g class="annotation-group text" transform="translate(-47, -51)"><g class="label" style="" transform="translate(0,-12)"><foreignObject width="94" height="24"><div xmlns="http://www.w3.org/1999/xhtml" style="display: table-cell; white-space: nowrap; line-height: 1.5; max-width: 147px; text-align: center;"><span class="nodeLabel markdown-node-label" style=""><p>«核心组件 4»</p></span></div></foreignObject></g></g><g class="label-group text" transform="translate(-22.125, -27)"><g class="label" style="font-weight: bolder" transform="translate(0,-12)"><foreignObject width="44.25" height="24"><div xmlns="http://www.w3.org/1999/xhtml" style="display: table-cell; white-space: nowrap; line-height: 1.5; max-width: 95px; text-align: center;"><span class="nodeLabel markdown-node-label" style=""><p>Core4</p></span></div></foreignObject></g></g><g class="members-group text" transform="translate(-140.984375, 21)"/><g class="methods-group text" transform="translate(-140.984375, 51)"><g class="label" style="" transform="translate(0,-12)"><foreignObject width="234.96875" height="24"><div xmlns="http://www.w3.org/1999/xhtml" style="display: table-cell; white-space: nowrap; line-height: 1.5; max-width: 296px; text-align: center;"><span class="nodeLabel markdown-node-label" style=""><p>+execute() : 执行Agent 集成职责</p></span></div></foreignObject></g></g><g class="divider" style=""><path d="M-152.984375 -3 C-81.23861066589116 -2.9997655127710456, -9.492846331782317 -2.9995310255420913, 152.984375 -2.999 M-152.984375 -3 C-63.858082349906965 -2.9997087078577467, 25.26821030018607 -2.9994174157154934, 152.984375 -2.999" stroke="#9370DB" stroke-width="1.3" fill="none" stroke-dasharray="0 0" style=""/></g><g class="divider" style=""><path d="M-152.984375 21 C-76.84079496050427 21.000248860643577, -0.6972149210085377 21.000497721287154, 152.984375 21.001 M-152.984375 21 C-64.8703026014389 21.000287983895085, 23.243769797122212 21.000575967790166, 152.984375 21.001" stroke="#9370DB" stroke-width="1.3" fill="none" stroke-dasharray="0 0" style=""/></g></g><g class="node default" id="my-svg-classId-ExternalResource-5" data-look="classic" transform="translate(310.609375, 1313)"><g class="basic label-container outer-path"><path d="M-123.21875 -75 L123.21875 -75 L123.21875 75 L-123.21875 75" stroke="none" stroke-width="0" fill="#ECECFF" style=""/><path d="M-123.21875 -75 C-34.95208720781612 -75, 53.31457558436776 -75, 123.21875 -75 M-123.21875 -75 C-45.64073922905983 -75, 31.937271541880335 -75, 123.21875 -75 M123.21875 -75 C123.21875 -38.57898612067898, 123.21875 -2.157972241357953, 123.21875 75 M123.21875 -75 C123.21875 -33.620307162727286, 123.21875 7.7593856745454275, 123.21875 75 M123.21875 75 C54.18362642727038 75, -14.851497145459234 75, -123.21875 75 M123.21875 75 C29.679101446624074 75, -63.86054710675185 75, -123.21875 75 M-123.21875 75 C-123.21875 20.67909282407519, -123.21875 -33.64181435184962, -123.21875 -75 M-123.21875 75 C-123.21875 34.44716637192999, -123.21875 -6.105667256140023, -123.21875 -75" stroke="#9370DB" stroke-width="1.3" fill="none" stroke-dasharray="0 0" style=""/></g><g class="annotation-group text" transform="translate(-40.390625, -51)"><g class="label" style="" transform="translate(0,-12)"><foreignObject width="80.78125" height="24"><div xmlns="http://www.w3.org/1999/xhtml" style="display: table-cell; white-space: nowrap; line-height: 1.5; max-width: 132px; text-align: center;"><span class="nodeLabel markdown-node-label" style=""><p>«外部资源»</p></span></div></foreignObject></g></g><g class="label-group text" transform="translate(-65.796875, -27)"><g class="label" style="font-weight: bolder" transform="translate(0,-12)"><foreignObject width="131.59375" height="24"><div xmlns="http://www.w3.org/1999/xhtml" style="display: table-cell; white-space: nowrap; line-height: 1.5; max-width: 180px; text-align: center;"><span class="nodeLabel markdown-node-label" style=""><p>ExternalResource</p></span></div></foreignObject></g></g><g class="members-group text" transform="translate(-111.21875, 21)"/><g class="methods-group text" transform="translate(-111.21875, 51)"><g class="label" style="" transform="translate(0,-12)"><foreignObject width="156.640625" height="24"><div xmlns="http://www.w3.org/1999/xhtml" style="display: table-cell; white-space: nowrap; line-height: 1.5; max-width: 217px; text-align: center;"><span class="nodeLabel markdown-node-label" style=""><p>+connect() : 建立连接</p></span></div></foreignObject></g></g><g class="divider" style=""><path d="M-123.21875 -3 C-26.976898671606307 -2.9996094675066565, 69.26495265678739 -2.9992189350133125, 123.21875 -2.999 M-123.21875 -3 C-24.84112876957971 -2.999600800928307, 73.53649246084058 -2.9992016018566137, 123.21875 -2.999" stroke="#9370DB" stroke-width="1.3" fill="none" stroke-dasharray="0 0" style=""/></g><g class="divider" style=""><path d="M-123.21875 21 C-70.24598059266333 21.000214954174616, -17.273211185326645 21.000429908349236, 123.21875 21.001 M-123.21875 21 C-58.49281984407223 21.000262646432283, 6.23311031185554 21.00052529286457, 123.21875 21.001" stroke="#9370DB" stroke-width="1.3" fill="none" stroke-dasharray="0 0" style=""/></g></g><g class="node undefined" id="my-svg-note0" data-look="classic" transform="translate(1028.44140625, 26)"><g class="basic label-container outer-path"><path d="M-300.109375 -18 L300.109375 -18 L300.109375 18 L-300.109375 18" stroke="none" stroke-width="0" fill="#fff5ad" style="fill:#fff5ad !important;stroke:#aaaa33 !important"/><path d="M-300.109375 -18 C-72.8153507630185 -18, 154.478673473963 -18, 300.109375 -18 M-300.109375 -18 C-109.82197366403426 -18, 80.46542767193148 -18, 300.109375 -18 M300.109375 -18 C300.109375 -9.347050303138277, 300.109375 -0.6941006062765531, 300.109375 18 M300.109375 -18 C300.109375 -4.418342727164383, 300.109375 9.163314545671234, 300.109375 18 M300.109375 18 C101.62894923014665 18, -96.85147653970671 18, -300.109375 18 M300.109375 18 C70.97766920541787 18, -158.15403658916426 18, -300.109375 18 M-300.109375 18 C-300.109375 7.64813369688741, -300.109375 -2.7037326062251807, -300.109375 -18 M-300.109375 18 C-300.109375 9.433307457756046, -300.109375 0.8666149155120912, -300.109375 -18" stroke="#aaaa33" stroke-width="1.3" fill="none" stroke-dasharray="0 0" style="fill:#fff5ad !important;stroke:#aaaa33 !important"/></g><g class="label noteLabel" style="text-align:left !important;white-space:nowrap !important" transform="translate(-294.109375, -12)"><rect/><foreignObject width="588.21875" height="24"><div style="text-align: center; white-space: break-spaces; display: table; line-height: 1.5; max-width: 200px; width: 200px;" xmlns="http://www.w3.org/1999/xhtml"><span style="text-align:left !important;white-space:nowrap !important" class="nodeLabel markdown-node-label"><p>中文注释：实际入口为 03_note_tool_operations.py / 04_note_tool_integration.py</p></span></div></foreignObject></g></g><g class="node undefined" id="my-svg-note1" data-look="classic" transform="translate(774.21484375, 181)"><g class="basic label-container outer-path"><path d="M-77.53125 -18 L77.53125 -18 L77.53125 18 L-77.53125 18" stroke="none" stroke-width="0" fill="#fff5ad" style="fill:#fff5ad !important;stroke:#aaaa33 !important"/><path d="M-77.53125 -18 C-19.817398870950257 -18, 37.89645225809949 -18, 77.53125 -18 M-77.53125 -18 C-35.35571779089802 -18, 6.819814418203961 -18, 77.53125 -18 M77.53125 -18 C77.53125 -5.758578803188605, 77.53125 6.482842393622789, 77.53125 18 M77.53125 -18 C77.53125 -4.504480679648106, 77.53125 8.991038640703788, 77.53125 18 M77.53125 18 C41.25298614341853 18, 4.974722286837064 18, -77.53125 18 M77.53125 18 C20.8975725296323 18, -35.7361049407354 18, -77.53125 18 M-77.53125 18 C-77.53125 6.357965621545375, -77.53125 -5.2840687569092495, -77.53125 -18 M-77.53125 18 C-77.53125 9.69660201454968, -77.53125 1.3932040290993584, -77.53125 -18" stroke="#aaaa33" stroke-width="1.3" fill="none" stroke-dasharray="0 0" style="fill:#fff5ad !important;stroke:#aaaa33 !important"/></g><g class="label noteLabel" style="text-align:left !important;white-space:nowrap !important" transform="translate(-71.53125, -12)"><rect/><foreignObject width="143.0625" height="24"><div style="text-align: center; white-space: nowrap; display: table-cell; line-height: 1.5; max-width: 200px;" xmlns="http://www.w3.org/1999/xhtml"><span style="text-align:left !important;white-space:nowrap !important" class="nodeLabel markdown-node-label"><p>中文职责：NoteTool</p></span></div></foreignObject></g></g><g class="node undefined" id="my-svg-note2" data-look="classic" transform="translate(627.8671875, 417)"><g class="basic label-container outer-path"><path d="M-78 -18 L78 -18 L78 18 L-78 18" stroke="none" stroke-width="0" fill="#fff5ad" style="fill:#fff5ad !important;stroke:#aaaa33 !important"/><path d="M-78 -18 C-36.152876738869004 -18, 5.694246522261992 -18, 78 -18 M-78 -18 C-24.21463199776767 -18, 29.570736004464663 -18, 78 -18 M78 -18 C78 -5.144167218750818, 78 7.711665562498364, 78 18 M78 -18 C78 -10.134300838516399, 78 -2.2686016770327964, 78 18 M78 18 C39.814382031483596 18, 1.6287640629671927 18, -78 18 M78 18 C44.45642532509358 18, 10.912850650187167 18, -78 18 M-78 18 C-78 5.533796846449102, -78 -6.932406307101797, -78 -18 M-78 18 C-78 4.925176000093906, -78 -8.149647999812188, -78 -18" stroke="#aaaa33" stroke-width="1.3" fill="none" stroke-dasharray="0 0" style="fill:#fff5ad !important;stroke:#aaaa33 !important"/></g><g class="label noteLabel" style="text-align:left !important;white-space:nowrap !important" transform="translate(-72, -12)"><rect/><foreignObject width="144" height="24"><div style="text-align: center; white-space: nowrap; display: table-cell; line-height: 1.5; max-width: 200px;" xmlns="http://www.w3.org/1999/xhtml"><span style="text-align:left !important;white-space:nowrap !important" class="nodeLabel markdown-node-label"><p>中文职责：笔记存储</p></span></div></foreignObject></g></g><g class="node undefined" id="my-svg-note3" data-look="classic" transform="translate(482.66796875, 641)"><g class="basic label-container outer-path"><path d="M-86 -18 L86 -18 L86 18 L-86 18" stroke="none" stroke-width="0" fill="#fff5ad" style="fill:#fff5ad !important;stroke:#aaaa33 !important"/><path d="M-86 -18 C-32.53282401315667 -18, 20.93435197368666 -18, 86 -18 M-86 -18 C-32.19833078781707 -18, 21.60333842436586 -18, 86 -18 M86 -18 C86 -8.59210609940016, 86 0.8157878011996793, 86 18 M86 -18 C86 -10.644666320060338, 86 -3.2893326401206746, 86 18 M86 18 C45.92324929502476 18, 5.846498590049521 18, -86 18 M86 18 C36.35543398305381 18, -13.289132033892386 18, -86 18 M-86 18 C-86 7.138207534396857, -86 -3.723584931206286, -86 -18 M-86 18 C-86 7.528078575064839, -86 -2.9438428498703217, -86 -18" stroke="#aaaa33" stroke-width="1.3" fill="none" stroke-dasharray="0 0" style="fill:#fff5ad !important;stroke:#aaaa33 !important"/></g><g class="label noteLabel" style="text-align:left !important;white-space:nowrap !important" transform="translate(-80, -12)"><rect/><foreignObject width="160" height="24"><div style="text-align: center; white-space: nowrap; display: table-cell; line-height: 1.5; max-width: 200px;" xmlns="http://www.w3.org/1999/xhtml"><span style="text-align:left !important;white-space:nowrap !important" class="nodeLabel markdown-node-label"><p>中文职责：搜索与摘要</p></span></div></foreignObject></g></g><g class="node undefined" id="my-svg-note4" data-look="classic" transform="translate(334.6484375, 865)"><g class="basic label-container outer-path"><path d="M-85.0546875 -18 L85.0546875 -18 L85.0546875 18 L-85.0546875 18" stroke="none" stroke-width="0" fill="#fff5ad" style="fill:#fff5ad !important;stroke:#aaaa33 !important"/><path d="M-85.0546875 -18 C-43.56416073923066 -18, -2.0736339784613165 -18, 85.0546875 -18 M-85.0546875 -18 C-37.09558511439216 -18, 10.863517271215684 -18, 85.0546875 -18 M85.0546875 -18 C85.0546875 -5.687284307736858, 85.0546875 6.6254313845262836, 85.0546875 18 M85.0546875 -18 C85.0546875 -4.967519137330038, 85.0546875 8.064961725339924, 85.0546875 18 M85.0546875 18 C24.975178339140392 18, -35.104330821719216 18, -85.0546875 18 M85.0546875 18 C29.217442017266507 18, -26.619803465466987 18, -85.0546875 18 M-85.0546875 18 C-85.0546875 3.792364203879581, -85.0546875 -10.415271592240838, -85.0546875 -18 M-85.0546875 18 C-85.0546875 6.2248295100816105, -85.0546875 -5.550340979836779, -85.0546875 -18" stroke="#aaaa33" stroke-width="1.3" fill="none" stroke-dasharray="0 0" style="fill:#fff5ad !important;stroke:#aaaa33 !important"/></g><g class="label noteLabel" style="text-align:left !important;white-space:nowrap !important" transform="translate(-79.0546875, -12)"><rect/><foreignObject width="158.109375" height="24"><div style="text-align: center; white-space: nowrap; display: table-cell; line-height: 1.5; max-width: 200px;" xmlns="http://www.w3.org/1999/xhtml"><span style="text-align:left !important;white-space:nowrap !important" class="nodeLabel markdown-node-label"><p>中文职责：Agent 集成</p></span></div></foreignObject></g></g><g class="node undefined" id="my-svg-note5" data-look="classic" transform="translate(142.078125, 1089)"><g class="basic label-container outer-path"><path d="M-134.078125 -18 L134.078125 -18 L134.078125 18 L-134.078125 18" stroke="none" stroke-width="0" fill="#fff5ad" style="fill:#fff5ad !important;stroke:#aaaa33 !important"/><path d="M-134.078125 -18 C-66.30186423327864 -18, 1.4743965334427287 -18, 134.078125 -18 M-134.078125 -18 C-29.257416057747307 -18, 75.56329288450539 -18, 134.078125 -18 M134.078125 -18 C134.078125 -9.882778538706736, 134.078125 -1.7655570774134723, 134.078125 18 M134.078125 -18 C134.078125 -3.7978240436193325, 134.078125 10.404351912761335, 134.078125 18 M134.078125 18 C56.290594718107656 18, -21.49693556378469 18, -134.078125 18 M134.078125 18 C68.88736062602473 18, 3.69659625204946 18, -134.078125 18 M-134.078125 18 C-134.078125 7.245166134517046, -134.078125 -3.5096677309659086, -134.078125 -18 M-134.078125 18 C-134.078125 8.731616122147976, -134.078125 -0.536767755704048, -134.078125 -18" stroke="#aaaa33" stroke-width="1.3" fill="none" stroke-dasharray="0 0" style="fill:#fff5ad !important;stroke:#aaaa33 !important"/></g><g class="label noteLabel" style="text-align:left !important;white-space:nowrap !important" transform="translate(-128.078125, -12)"><rect/><foreignObject width="256.15625" height="24"><div style="text-align: center; white-space: break-spaces; display: table; line-height: 1.5; max-width: 200px; width: 200px;" xmlns="http://www.w3.org/1999/xhtml"><span style="text-align:left !important;white-space:nowrap !important" class="nodeLabel markdown-node-label"><p>中文注释：本地文件、DeepSeek API</p></span></div></foreignObject></g></g></g></g></g><defs><filter id="my-svg-drop-shadow" height="130%" width="130%"><feDropShadow dx="4" dy="4" stdDeviation="0" flood-opacity="0.06" flood-color="#000000"/></filter></defs><defs><filter id="my-svg-drop-shadow-small" height="150%" width="150%"><feDropShadow dx="2" dy="2" stdDeviation="0" flood-opacity="0.06" flood-color="#000000"/></filter></defs></svg>