<svg id="my-svg" width="100%" xmlns="http://www.w3.org/2000/svg" xmlns:xlink="http://www.w3.org/1999/xlink" class="classDiagram" style="max-width: 1327.55px; background-color: white;" viewBox="0 0 1327.546875 1396" role="graphics-document document" aria-roledescription="classDiagram"><style>#my-svg{font-family:"trebuchet ms",verdana,arial,sans-serif;font-size:16px;fill:#333;}@keyframes edge-animation-frame{from{stroke-dashoffset:0;}}@keyframes dash{to{stroke-dashoffset:0;}}#my-svg .edge-animation-slow{stroke-dasharray:9,5!important;stroke-dashoffset:900;animation:dash 50s linear infinite;stroke-linecap:round;}#my-svg .edge-animation-fast{stroke-dasharray:9,5!important;stroke-dashoffset:900;animation:dash 20s linear infinite;stroke-linecap:round;}#my-svg .error-icon{fill:#552222;}#my-svg .error-text{fill:#552222;stroke:#552222;}#my-svg .edge-thickness-normal{stroke-width:1px;}#my-svg .edge-thickness-thick{stroke-width:3.5px;}#my-svg .edge-pattern-solid{stroke-dasharray:0;}#my-svg .edge-thickness-invisible{stroke-width:0;fill:none;}#my-svg .edge-pattern-dashed{stroke-dasharray:3;}#my-svg .edge-pattern-dotted{stroke-dasharray:2;}#my-svg .marker{fill:#333333;stroke:#333333;}#my-svg .marker.cross{stroke:#333333;}#my-svg svg{font-family:"trebuchet ms",verdana,arial,sans-serif;font-size:16px;}#my-svg p{margin:0;}#my-svg g.classGroup text{fill:#9370DB;stroke:none;font-family:"trebuchet ms",verdana,arial,sans-serif;font-size:10px;}#my-svg g.classGroup text .title{font-weight:bolder;}#my-svg .cluster-label text{fill:#333;}#my-svg .cluster-label span{color:#333;}#my-svg .cluster-label span p{background-color:transparent;}#my-svg .cluster rect{fill:#ffffde;stroke:#aaaa33;stroke-width:1px;}#my-svg .cluster text{fill:#333;}#my-svg .cluster span{color:#333;}#my-svg .nodeLabel,#my-svg .edgeLabel{color:#131300;}#my-svg .noteLabel .nodeLabel,#my-svg .noteLabel .edgeLabel{color:black;}#my-svg .edgeLabel .label rect{fill:#ECECFF;}#my-svg .label text{fill:#131300;}#my-svg .labelBkg{background:#ECECFF;}#my-svg .edgeLabel .label span{background:#ECECFF;}#my-svg .classTitle{font-weight:bolder;}#my-svg .node rect,#my-svg .node circle,#my-svg .node ellipse,#my-svg .node polygon,#my-svg .node path{fill:#ECECFF;stroke:#9370DB;stroke-width:1;}#my-svg .divider{stroke:#9370DB;stroke-width:1;}#my-svg g.clickable{cursor:pointer;}#my-svg g.classGroup rect{fill:#ECECFF;stroke:#9370DB;}#my-svg g.classGroup line{stroke:#9370DB;stroke-width:1;}#my-svg .classLabel .box{stroke:none;stroke-width:0;fill:#ECECFF;opacity:0.5;}#my-svg .classLabel .label{fill:#9370DB;font-size:10px;}#my-svg .relation{stroke:#333333;stroke-width:1;fill:none;}#my-svg .dashed-line{stroke-dasharray:3;}#my-svg .dotted-line{stroke-dasharray:1 2;}#my-svg [id$="-compositionStart"],#my-svg .composition{fill:#333333!important;stroke:#333333!important;stroke-width:1;}#my-svg [id$="-compositionEnd"],#my-svg .composition{fill:#333333!important;stroke:#333333!important;stroke-width:1;}#my-svg [id$="-dependencyStart"],#my-svg .dependency{fill:#333333!important;stroke:#333333!important;stroke-width:1;}#my-svg [id$="-dependencyEnd"],#my-svg .dependency{fill:#333333!important;stroke:#333333!important;stroke-width:1;}#my-svg [id$="-extensionStart"],#my-svg .extension{fill:transparent!important;stroke:#333333!important;stroke-width:1;}#my-svg [id$="-extensionEnd"],#my-svg .extension{fill:transparent!important;stroke:#333333!important;stroke-width:1;}#my-svg [id$="-aggregationStart"],#my-svg .aggregation{fill:transparent!important;stroke:#333333!important;stroke-width:1;}#my-svg [id$="-aggregationEnd"],#my-svg .aggregation{fill:transparent!important;stroke:#333333!important;stroke-width:1;}#my-svg [id$="-lollipopStart"],#my-svg .lollipop{fill:#ECECFF!important;stroke:#333333!important;stroke-width:1;}#my-svg [id$="-lollipopEnd"],#my-svg .lollipop{fill:#ECECFF!important;stroke:#333333!important;stroke-width:1;}#my-svg .edgeTerminals{font-size:11px;line-height:initial;}#my-svg .classTitleText{text-anchor:middle;font-size:18px;fill:#333;}#my-svg .edgeLabel[data-look="neo"]{background-color:rgba(232,232,232, 0.8);text-align:center;}#my-svg .edgeLabel[data-look="neo"] p{background-color:rgba(232,232,232, 0.8);}#my-svg .edgeLabel[data-look="neo"] rect{opacity:0.5;background-color:rgba(232,232,232, 0.8);fill:rgba(232,232,232, 0.8);}#my-svg .label-icon{display:inline-block;height:1em;overflow:visible;vertical-align:-0.125em;}#my-svg .node .label-icon path{fill:currentColor;stroke:revert;stroke-width:revert;}#my-svg .node .neo-node{stroke:#9370DB;}#my-svg [data-look="neo"].node rect,#my-svg [data-look="neo"].cluster rect,#my-svg [data-look="neo"].node polygon{stroke:#9370DB;filter:drop-shadow(1px 2px 2px rgba(185, 185, 185, 1));}#my-svg [data-look="neo"].swimlane.cluster rect{filter:none;}#my-svg [data-look="neo"].node path{stroke:#9370DB;stroke-width:1px;}#my-svg [data-look="neo"].node .outer-path{filter:drop-shadow(1px 2px 2px rgba(185, 185, 185, 1));}#my-svg [data-look="neo"].node .neo-line path{stroke:#9370DB;filter:none;}#my-svg [data-look="neo"].node circle{stroke:#9370DB;filter:drop-shadow(1px 2px 2px rgba(185, 185, 185, 1));}#my-svg [data-look="neo"].node circle .state-start{fill:#000000;}#my-svg [data-look="neo"].icon-shape .icon{fill:#9370DB;filter:drop-shadow(1px 2px 2px rgba(185, 185, 185, 1));}#my-svg [data-look="neo"].icon-shape .icon-neo path{stroke:#9370DB;filter:drop-shadow(1px 2px 2px rgba(185, 185, 185, 1));}#my-svg :root{--mermaid-font-family:"trebuchet ms",verdana,arial,sans-serif;}</style><g><defs><marker id="my-svg_classDiagram-aggregationStart" class="marker aggregation classDiagram" refX="18" refY="7" markerWidth="190" markerHeight="240" orient="auto"><path d="M 18,7 L9,13 L1,7 L9,1 Z"/></marker></defs><defs><marker id="my-svg_classDiagram-aggregationEnd" class="marker aggregation classDiagram" refX="1" refY="7" markerWidth="20" markerHeight="28" orient="auto"><path d="M 18,7 L9,13 L1,7 L9,1 Z"/></marker></defs><defs><marker id="my-svg_classDiagram-aggregationStart-margin" class="marker aggregation classDiagram" refX="15" refY="7" markerWidth="190" markerHeight="240" orient="auto" markerUnits="userSpaceOnUse"><path d="M 18,7 L9,13 L1,7 L9,1 Z" style="stroke-width: 2;"/></marker></defs><defs><marker id="my-svg_classDiagram-aggregationEnd-margin" class="marker aggregation classDiagram" refX="1" refY="7" markerWidth="20" markerHeight="28" orient="auto" markerUnits="userSpaceOnUse"><path d="M 18,7 L9,13 L1,7 L9,1 Z" style="stroke-width: 2;"/></marker></defs><defs><marker id="my-svg_classDiagram-extensionStart" class="marker extension classDiagram" refX="18" refY="7" markerWidth="20" markerHeight="28" orient="auto" markerUnits="userSpaceOnUse"><path d="M 1,7 L18,13 V 1 Z"/></marker></defs><defs><marker id="my-svg_classDiagram-extensionEnd" class="marker extension classDiagram" refX="1" refY="7" markerWidth="20" markerHeight="28" orient="auto"><path d="M 1,1 V 13 L18,7 Z"/></marker></defs><marker id="my-svg_classDiagram-extensionStart-margin" class="marker extension classDiagram" refX="18" refY="7" markerWidth="20" markerHeight="28" orient="auto" markerUnits="userSpaceOnUse" viewBox="0 0 20 14"><polygon points="10,7 18,13 18,1" style="stroke-width: 2; stroke-dasharray: 0;"/></marker><defs><marker id="my-svg_classDiagram-extensionEnd-margin" class="marker extension classDiagram" refX="9" refY="7" markerWidth="20" markerHeight="28" orient="auto" markerUnits="userSpaceOnUse" viewBox="0 0 20 14"><polygon points="10,1 10,13 18,7" style="stroke-width: 2; stroke-dasharray: 0;"/></marker></defs><defs><marker id="my-svg_classDiagram-compositionStart" class="marker composition classDiagram" refX="18" refY="7" markerWidth="190" markerHeight="240" orient="auto"><path d="M 18,7 L9,13 L1,7 L9,1 Z"/></marker></defs><defs><marker id="my-svg_classDiagram-compositionEnd" class="marker composition classDiagram" refX="1" refY="7" markerWidth="20" markerHeight="28" orient="auto"><path d="M 18,7 L9,13 L1,7 L9,1 Z"/></marker></defs><defs><marker id="my-svg_classDiagram-compositionStart-margin" class="marker composition classDiagram" refX="15" refY="7" markerWidth="190" markerHeight="240" orient="auto" markerUnits="userSpaceOnUse"><path viewBox="0 0 15 15" d="M 18,7 L9,13 L1,7 L9,1 Z" style="stroke-width: 0;"/></marker></defs><defs><marker id="my-svg_classDiagram-compositionEnd-margin" class="marker composition classDiagram" refX="3.5" refY="7" markerWidth="20" markerHeight="28" orient="auto" markerUnits="userSpaceOnUse"><path d="M 18,7 L9,13 L1,7 L9,1 Z" style="stroke-width: 0;"/></marker></defs><defs><marker id="my-svg_classDiagram-dependencyStart" class="marker dependency classDiagram" refX="6" refY="7" markerWidth="190" markerHeight="240" orient="auto"><path d="M 5,7 L9,13 L1,7 L9,1 Z"/></marker></defs><defs><marker id="my-svg_classDiagram-dependencyEnd" class="marker dependency classDiagram" refX="13" refY="7" markerWidth="20" markerHeight="28" orient="auto"><path d="M 18,7 L9,13 L14,7 L9,1 Z"/></marker></defs><defs><marker id="my-svg_classDiagram-dependencyStart-margin" class="marker dependency classDiagram" refX="4" refY="7" markerWidth="190" markerHeight="240" orient="auto" markerUnits="userSpaceOnUse"><path d="M 5,7 L9,13 L1,7 L9,1 Z" style="stroke-width: 0;"/></marker></defs><defs><marker id="my-svg_classDiagram-dependencyEnd-margin" class="marker dependency classDiagram" refX="16" refY="7" markerWidth="20" markerHeight="28" orient="auto" markerUnits="userSpaceOnUse"><path d="M 18,7 L9,13 L14,7 L9,1 Z" style="stroke-width: 0;"/></marker></defs><defs><marker id="my-svg_classDiagram-lollipopStart" class="marker lollipop classDiagram" refX="13" refY="7" markerWidth="190" markerHeight="240" orient="auto"><circle fill="transparent" cx="7" cy="7" r="6"/></marker></defs><defs><marker id="my-svg_classDiagram-lollipopEnd" class="marker lollipop classDiagram" refX="1" refY="7" markerWidth="190" markerHeight="240" orient="auto"><circle fill="transparent" cx="7" cy="7" r="6"/></marker></defs><defs><marker id="my-svg_classDiagram-lollipopStart-margin" class="marker lollipop classDiagram" refX="13" refY="7" markerWidth="190" markerHeight="240" orient="auto" markerUnits="userSpaceOnUse"><circle fill="transparent" cx="7" cy="7" r="6" stroke-width="2"/></marker></defs><defs><marker id="my-svg_classDiagram-lollipopEnd-margin" class="marker lollipop classDiagram" refX="1" refY="7" markerWidth="190" markerHeight="240" orient="auto" markerUnits="userSpaceOnUse"><circle fill="transparent" cx="7" cy="7" r="6" stroke-width="2"/></marker></defs><g class="root"><g class="clusters"/><g class="edgePaths"><path d="M1054.875,44L1054.875,48.167C1054.875,52.333,1054.875,60.667,1054.875,69C1054.875,77.333,1054.875,85.667,1054.875,89.833L1054.875,94" id="my-svg-edgeNote0" class="edge-thickness-normal edge-pattern-dotted relation" style="fill: none;;;fill: none" data-edge="true" data-et="edge" data-id="edgeNote0" data-points="W3sieCI6MTA1NC44NzUsInkiOjQ0fSx7IngiOjEwNTQuODc1LCJ5Ijo2OX0seyJ4IjoxMDU0Ljg3NSwieSI6OTR9XQ==" data-look="classic"/><path d="M784.18,199L784.18,216.667C784.18,234.333,784.18,269.667,791.632,293.5C799.084,317.333,813.988,329.667,821.441,335.833L828.893,342" id="my-svg-edgeNote1" class="edge-thickness-normal edge-pattern-dotted relation" style="fill: none;;;fill: none" data-edge="true" data-et="edge" data-id="edgeNote1" data-points="W3sieCI6Nzg0LjE3OTY4NzUsInkiOjE5OX0seyJ4Ijo3ODQuMTc5Njg3NSwieSI6MzA1fSx7IngiOjgyOC44OTI3NTI1MTExNjA3LCJ5IjozNDJ9XQ==" data-look="classic"/><path d="M629.598,435L629.598,450.667C629.598,466.333,629.598,497.667,637.579,519.5C645.561,541.333,661.524,553.667,669.506,559.833L677.488,566" id="my-svg-edgeNote2" class="edge-thickness-normal edge-pattern-dotted relation" style="fill: none;;;fill: none" data-edge="true" data-et="edge" data-id="edgeNote2" data-points="W3sieCI6NjI5LjU5NzY1NjI1LCJ5Ijo0MzV9LHsieCI6NjI5LjU5NzY1NjI1LCJ5Ijo1Mjl9LHsieCI6Njc3LjQ4NzgyNzg0NTk4MjEsInkiOjU2Nn1d" data-look="classic"/><path d="M492.633,659L492.633,674.667C492.633,690.333,492.633,721.667,500.394,743.5C508.156,765.333,523.679,777.667,531.44,783.833L539.202,790" id="my-svg-edgeNote3" class="edge-thickness-normal edge-pattern-dotted relation" style="fill: none;;;fill: none" data-edge="true" data-et="edge" data-id="edgeNote3" data-points="W3sieCI6NDkyLjYzMjgxMjUsInkiOjY1OX0seyJ4Ijo0OTIuNjMyODEyNSwieSI6NzUzfSx7IngiOjUzOS4yMDE1NTU1MjQ1NTM2LCJ5Ijo3OTB9XQ==" data-look="classic"/><path d="M327.668,883L327.668,898.667C327.668,914.333,327.668,945.667,336.09,967.5C344.512,989.333,361.357,1001.667,369.779,1007.833L378.201,1014" id="my-svg-edgeNote4" class="edge-thickness-normal edge-pattern-dotted relation" style="fill: none;;;fill: none" data-edge="true" data-et="edge" data-id="edgeNote4" data-points="W3sieCI6MzI3LjY2Nzk2ODc1LCJ5Ijo4ODN9LHsieCI6MzI3LjY2Nzk2ODc1LCJ5Ijo5Nzd9LHsieCI6Mzc4LjIwMDk5NzQ4ODgzOTMsInkiOjEwMTR9XQ==" data-look="classic"/><path d="M134.352,1107L134.352,1122.667C134.352,1138.333,134.352,1169.667,143.885,1191.5C153.418,1213.333,172.484,1225.667,182.017,1231.833L191.55,1238" id="my-svg-edgeNote5" class="edge-thickness-normal edge-pattern-dotted relation" style="fill: none;;;fill: none" data-edge="true" data-et="edge" data-id="edgeNote5" data-points="W3sieCI6MTM0LjM1MTU2MjUsInkiOjExMDd9LHsieCI6MTM0LjM1MTU2MjUsInkiOjEyMDF9LHsieCI6MTkxLjU0OTgwNDY4NzUsInkiOjEyMzh9XQ==" data-look="classic"/><path d="M1054.875,268L1054.875,274.167C1054.875,280.333,1054.875,292.667,1048.193,304.362C1041.511,316.058,1028.148,327.117,1021.466,332.646L1014.784,338.175" id="my-svg-id_EntryModule_Core1_1" class="edge-thickness-normal edge-pattern-dashed relation" style=";;;" data-edge="true" data-et="edge" data-id="id_EntryModule_Core1_1" data-points="W3sieCI6MTA1NC44NzUsInkiOjI2OH0seyJ4IjoxMDU0Ljg3NSwieSI6MzA1fSx7IngiOjEwMTAuMTYxOTM0OTg4ODM5MywieSI6MzQyfV0=" data-look="classic" marker-end="url(#my-svg_classDiagram-dependencyEnd)"/><path d="M919.527,492L919.527,498.167C919.527,504.333,919.527,516.667,912.337,528.389C905.147,540.111,890.766,551.221,883.576,556.776L876.385,562.332" id="my-svg-id_Core1_Core2_2" class="edge-thickness-normal edge-pattern-solid relation" style=";;;" data-edge="true" data-et="edge" data-id="id_Core1_Core2_2" data-points="W3sieCI6OTE5LjUyNzM0Mzc1LCJ5Ijo0OTJ9LHsieCI6OTE5LjUyNzM0Mzc1LCJ5Ijo1Mjl9LHsieCI6ODcxLjYzNzE3MjE1NDAxNzksInkiOjU2Nn1d" data-look="classic" marker-end="url(#my-svg_classDiagram-dependencyEnd)"/><path d="M774.563,716L774.563,722.167C774.563,728.333,774.563,740.667,767.584,752.378C760.605,764.089,746.648,775.178,739.67,780.723L732.691,786.268" id="my-svg-id_Core2_Core3_3" class="edge-thickness-normal edge-pattern-solid relation" style=";;;" data-edge="true" data-et="edge" data-id="id_Core2_Core3_3" data-points="W3sieCI6Nzc0LjU2MjUsInkiOjcxNn0seyJ4Ijo3NzQuNTYyNSwieSI6NzUzfSx7IngiOjcyNy45OTM3NTY5NzU0NDY0LCJ5Ijo3OTB9XQ==" data-look="classic" marker-end="url(#my-svg_classDiagram-dependencyEnd)"/><path d="M633.598,940L633.598,946.167C633.598,952.333,633.598,964.667,625.982,976.409C618.367,988.152,603.136,999.304,595.521,1004.88L587.906,1010.455" id="my-svg-id_Core3_Core4_4" class="edge-thickness-normal edge-pattern-solid relation" style=";;;" data-edge="true" data-et="edge" data-id="id_Core3_Core4_4" data-points="W3sieCI6NjMzLjU5NzY1NjI1LCJ5Ijo5NDB9LHsieCI6NjMzLjU5NzY1NjI1LCJ5Ijo5Nzd9LHsieCI6NTgzLjA2NDYyNzUxMTE2MDcsInkiOjEwMTR9XQ==" data-look="classic" marker-end="url(#my-svg_classDiagram-dependencyEnd)"/><path d="M480.633,1164L480.633,1170.167C480.633,1176.333,480.633,1188.667,471.939,1200.457C463.246,1212.247,445.859,1223.494,437.166,1229.118L428.472,1234.741" id="my-svg-id_Core4_ExternalResource_5" class="edge-thickness-normal edge-pattern-dashed relation" style=";;;" data-edge="true" data-et="edge" data-id="id_Core4_ExternalResource_5" data-points="W3sieCI6NDgwLjYzMjgxMjUsInkiOjExNjR9LHsieCI6NDgwLjYzMjgxMjUsInkiOjEyMDF9LHsieCI6NDIzLjQzNDU3MDMxMjUsInkiOjEyMzh9XQ==" data-look="classic" marker-end="url(#my-svg_classDiagram-dependencyEnd)"/></g><g class="edgeLabels"><g class="edgeLabel"><g class="label" data-id="edgeNote0" transform="translate(0, 0)"><foreignObject width="0" height="0"><div xmlns="http://www.w3.org/1999/xhtml" class="labelBkg" style="display: table-cell; white-space: nowrap; line-height: 1.5; max-width: 200px; text-align: center;"><span class="edgeLabel"></span></div></foreignObject></g></g><g class="edgeLabel"><g class="label" data-id="edgeNote1" transform="translate(0, 0)"><foreignObject width="0" height="0"><div xmlns="http://www.w3.org/1999/xhtml" class="labelBkg" style="display: table-cell; white-space: nowrap; line-height: 1.5; max-width: 200px; text-align: center;"><span class="edgeLabel"></span></div></foreignObject></g></g><g class="edgeLabel"><g class="label" data-id="edgeNote2" transform="translate(0, 0)"><foreignObject width="0" height="0"><div xmlns="http://www.w3.org/1999/xhtml" class="labelBkg" style="display: table-cell; white-space: nowrap; line-height: 1.5; max-width: 200px; text-align: center;"><span class="edgeLabel"></span></div></foreignObject></g></g><g class="edgeLabel"><g class="label" data-id="edgeNote3" transform="translate(0, 0)"><foreignObject width="0" height="0"><div xmlns="http://www.w3.org/1999/xhtml" class="labelBkg" style="display: table-cell; white-space: nowrap; line-height: 1.5; max-width: 200px; text-align: center;"><span class="edgeLabel"></span></div></foreignObject></g></g><g class="edgeLabel"><g class="label" data-id="edgeNote4" transform="translate(0, 0)"><foreignObject width="0" height="0"><div xmlns="http://www.w3.org/1999/xhtml" class="labelBkg" style="display: table-cell; white-space: nowrap; line-height: 1.5; max-width: 200px; text-align: center;"><span class="edgeLabel"></span></div></foreignObject></g></g><g class="edgeLabel"><g class="label" data-id="edgeNote5" transform="translate(0, 0)"><foreignObject width="0" height="0"><div xmlns="http://www.w3.org/1999/xhtml" class="labelBkg" style="display: table-cell; white-space: nowrap; line-height: 1.5; max-width: 200px; text-align: center;"><span class="edgeLabel"></span></div></foreignObject></g></g><g class="edgeLabel" transform="translate(1054.875, 305)"><g class="label" data-id="id_EntryModule_Core1_1" transform="translate(-40, -12)"><foreignObject width="80" height="24"><div xmlns="http://www.w3.org/1999/xhtml" class="labelBkg" style="display: table-cell; white-space: nowrap; line-height: 1.5; max-width: 200px; text-align: center;"><span class="edgeLabel"><p>创建或调用</p></span></div></foreignObject></g></g><g class="edgeLabel" transform="translate(919.52734375, 529)"><g class="label" data-id="id_Core1_Core2_2" transform="translate(-56, -12)"><foreignObject width="112" height="24"><div xmlns="http://www.w3.org/1999/xhtml" class="labelBkg" style="display: table-cell; white-space: nowrap; line-height: 1.5; max-width: 200px; text-align: center;"><span class="edgeLabel"><p>传递控制或数据</p></span></div></foreignObject></g></g><g class="edgeLabel" transform="translate(774.5625, 753)"><g class="label" data-id="id_Core2_Core3_3" transform="translate(-56, -12)"><foreignObject width="112" height="24"><div xmlns="http://www.w3.org/1999/xhtml" class="labelBkg" style="display: table-cell; white-space: nowrap; line-height: 1.5; max-width: 200px; text-align: center;"><span class="edgeLabel"><p>传递控制或数据</p></span></div></foreignObject></g></g><g class="edgeLabel" transform="translate(633.59765625, 977)"><g class="label" data-id="id_Core3_Core4_4" transform="translate(-56, -12)"><foreignObject width="112" height="24"><div xmlns="http://www.w3.org/1999/xhtml" class="labelBkg" style="display: table-cell; white-space: nowrap; line-height: 1.5; max-width: 200px; text-align: center;"><span class="edgeLabel"><p>传递控制或数据</p></span></div></foreignObject></g></g><g class="edgeLabel" transform="translate(480.6328125, 1201)"><g class="label" data-id="id_Core4_ExternalResource_5" transform="translate(-32, -12)"><foreignObject width="64" height="24"><div xmlns="http://www.w3.org/1999/xhtml" class="labelBkg" style="display: table-cell; white-space: nowrap; line-height: 1.5; max-width: 200px; text-align: center;"><span class="edgeLabel"><p>按需访问</p></span></div></foreignObject></g></g></g><g class="nodes"><g class="node default" id="my-svg-classId-EntryModule-0" data-look="classic" transform="translate(1054.875, 181)"><g class="basic label-container outer-path"><path d="M-126.6953125 -87 L126.6953125 -87 L126.6953125 87 L-126.6953125 87" stroke="none" stroke-width="0" fill="#ECECFF" style=""/><path d="M-126.6953125 -87 C-54.28175536149355 -87, 18.131801777012896 -87, 126.6953125 -87 M-126.6953125 -87 C-71.8238141340241 -87, -16.95231576804821 -87, 126.6953125 -87 M126.6953125 -87 C126.6953125 -25.977356944367976, 126.6953125 35.04528611126405, 126.6953125 87 M126.6953125 -87 C126.6953125 -43.82551883543125, 126.6953125 -0.6510376708624932, 126.6953125 87 M126.6953125 87 C27.041420740231942 87, -72.61247101953612 87, -126.6953125 87 M126.6953125 87 C42.25496958270669 87, -42.185373334586615 87, -126.6953125 87 M-126.6953125 87 C-126.6953125 37.48817196989506, -126.6953125 -12.023656060209873, -126.6953125 -87 M-126.6953125 87 C-126.6953125 25.212440027142968, -126.6953125 -36.575119945714064, -126.6953125 -87" stroke="#9370DB" stroke-width="1.3" fill="none" stroke-dasharray="0 0" style=""/></g><g class="annotation-group text" transform="translate(-40.390625, -63)"><g class="label" style="" transform="translate(0,-12)"><foreignObject width="80.78125" height="24"><div xmlns="http://www.w3.org/1999/xhtml" style="display: table-cell; white-space: nowrap; line-height: 1.5; max-width: 132px; text-align: center;"><span class="nodeLabel markdown-node-label" style=""><p>«入口模块»</p></span></div></foreignObject></g></g><g class="label-group text" transform="translate(-46.953125, -39)"><g class="label" style="font-weight: bolder" transform="translate(0,-12)"><foreignObject width="93.90625" height="24"><div xmlns="http://www.w3.org/1999/xhtml" style="display: table-cell; white-space: nowrap; line-height: 1.5; max-width: 143px; text-align: center;"><span class="nodeLabel markdown-node-label" style=""><p>EntryModule</p></span></div></foreignObject></g></g><g class="members-group text" transform="translate(-114.6953125, 9)"/><g class="methods-group text" transform="translate(-114.6953125, 39)"><g class="label" style="" transform="translate(0,-12)"><foreignObject width="182.4375" height="24"><div xmlns="http://www.w3.org/1999/xhtml" style="display: table-cell; white-space: nowrap; line-height: 1.5; max-width: 243px; text-align: center;"><span class="nodeLabel markdown-node-label" style=""><p>+load_config() : 读取配置</p></span></div></foreignObject></g><g class="label" style="" transform="translate(0,12)"><foreignObject width="123.359375" height="24"><div xmlns="http://www.w3.org/1999/xhtml" style="display: table-cell; white-space: nowrap; line-height: 1.5; max-width: 181px; text-align: center;"><span class="nodeLabel markdown-node-label" style=""><p>+run() : 启动实践</p></span></div></foreignObject></g></g><g class="divider" style=""><path d="M-126.6953125 -15 C-42.438396920055595 -14.999667482111542, 41.81851865988881 -14.999334964223085, 126.6953125 -14.999 M-126.6953125 -15 C-58.85280797580161 -14.99973226118952, 8.989696548396779 -14.999464522379041, 126.6953125 -14.999" stroke="#9370DB" stroke-width="1.3" fill="none" stroke-dasharray="0 0" style=""/></g><g class="divider" style=""><path d="M-126.6953125 9 C-38.55216067057525 9.000347854826236, 49.590991158849505 9.000695709652474, 126.6953125 9.001 M-126.6953125 9 C-43.03279645152037 9.00033017210502, 40.62971959695926 9.000660344210038, 126.6953125 9.001" stroke="#9370DB" stroke-width="1.3" fill="none" stroke-dasharray="0 0" style=""/></g></g><g class="node default" id="my-svg-classId-Core1-1" data-look="classic" transform="translate(919.52734375, 417)"><g class="basic label-container outer-path"><path d="M-161.9296875 -75 L161.9296875 -75 L161.9296875 75 L-161.9296875 75" stroke="none" stroke-width="0" fill="#ECECFF" style=""/><path d="M-161.9296875 -75 C-85.11339216335602 -75, -8.29709682671205 -75, 161.9296875 -75 M-161.9296875 -75 C-77.5730674446023 -75, 6.783552610795397 -75, 161.9296875 -75 M161.9296875 -75 C161.9296875 -20.29017599870715, 161.9296875 34.4196480025857, 161.9296875 75 M161.9296875 -75 C161.9296875 -43.40554783496579, 161.9296875 -11.811095669931582, 161.9296875 75 M161.9296875 75 C76.60395546936506 75, -8.721776561269877 75, -161.9296875 75 M161.9296875 75 C84.76715115023931 75, 7.604614800478629 75, -161.9296875 75 M-161.9296875 75 C-161.9296875 17.020338390900207, -161.9296875 -40.959323218199586, -161.9296875 -75 M-161.9296875 75 C-161.9296875 31.622517912970082, -161.9296875 -11.754964174059836, -161.9296875 -75" stroke="#9370DB" stroke-width="1.3" fill="none" stroke-dasharray="0 0" style=""/></g><g class="annotation-group text" transform="translate(-47, -51)"><g class="label" style="" transform="translate(0,-12)"><foreignObject width="94" height="24"><div xmlns="http://www.w3.org/1999/xhtml" style="display: table-cell; white-space: nowrap; line-height: 1.5; max-width: 144px; text-align: center;"><span class="nodeLabel markdown-node-label" style=""><p>«核心组件 1»</p></span></div></foreignObject></g></g><g class="label-group text" transform="translate(-22.125, -27)"><g class="label" style="font-weight: bolder" transform="translate(0,-12)"><foreignObject width="44.25" height="24"><div xmlns="http://www.w3.org/1999/xhtml" style="display: table-cell; white-space: nowrap; line-height: 1.5; max-width: 92px; text-align: center;"><span class="nodeLabel markdown-node-label" style=""><p>Core1</p></span></div></foreignObject></g></g><g class="members-group text" transform="translate(-149.9296875, 21)"/><g class="methods-group text" transform="translate(-149.9296875, 51)"><g class="label" style="" transform="translate(0,-12)"><foreignObject width="252.859375" height="24"><div xmlns="http://www.w3.org/1999/xhtml" style="display: table-cell; white-space: nowrap; line-height: 1.5; max-width: 311px; text-align: center;"><span class="nodeLabel markdown-node-label" style=""><p>+execute() : 执行数据集加载器职责</p></span></div></foreignObject></g></g><g class="divider" style=""><path d="M-161.9296875 -3 C-71.35711398556957 -2.9997203336370473, 19.215459528860862 -2.9994406672740945, 161.9296875 -2.999 M-161.9296875 -3 C-58.27177267229666 -2.9996799292445133, 45.386142155406674 -2.9993598584890266, 161.9296875 -2.999" stroke="#9370DB" stroke-width="1.3" fill="none" stroke-dasharray="0 0" style=""/></g><g class="divider" style=""><path d="M-161.9296875 21 C-39.519852335092665 21.000377972183653, 82.88998282981467 21.000755944367306, 161.9296875 21.001 M-161.9296875 21 C-92.42913709597774 21.00021460101442, -22.928586691955473 21.000429202028837, 161.9296875 21.001" stroke="#9370DB" stroke-width="1.3" fill="none" stroke-dasharray="0 0" style=""/></g></g><g class="node default" id="my-svg-classId-Core2-2" data-look="classic" transform="translate(774.5625, 641)"><g class="basic label-container outer-path"><path d="M-145.9296875 -75 L145.9296875 -75 L145.9296875 75 L-145.9296875 75" stroke="none" stroke-width="0" fill="#ECECFF" style=""/><path d="M-145.9296875 -75 C-68.17407183607939 -75, 9.581543827841216 -75, 145.9296875 -75 M-145.9296875 -75 C-41.14147908948972 -75, 63.64672932102056 -75, 145.9296875 -75 M145.9296875 -75 C145.9296875 -16.958310075003517, 145.9296875 41.083379849992966, 145.9296875 75 M145.9296875 -75 C145.9296875 -22.95047771169402, 145.9296875 29.09904457661196, 145.9296875 75 M145.9296875 75 C87.22927192311315 75, 28.528856346226306 75, -145.9296875 75 M145.9296875 75 C61.94300004452205 75, -22.043687410955897 75, -145.9296875 75 M-145.9296875 75 C-145.9296875 38.10220036651292, -145.9296875 1.2044007330258353, -145.9296875 -75 M-145.9296875 75 C-145.9296875 20.223558233662487, -145.9296875 -34.552883532675025, -145.9296875 -75" stroke="#9370DB" stroke-width="1.3" fill="none" stroke-dasharray="0 0" style=""/></g><g class="annotation-group text" transform="translate(-47, -51)"><g class="label" style="" transform="translate(0,-12)"><foreignObject width="94" height="24"><div xmlns="http://www.w3.org/1999/xhtml" style="display: table-cell; white-space: nowrap; line-height: 1.5; max-width: 147px; text-align: center;"><span class="nodeLabel markdown-node-label" style=""><p>«核心组件 2»</p></span></div></foreignObject></g></g><g class="label-group text" transform="translate(-22.125, -27)"><g class="label" style="font-weight: bolder" transform="translate(0,-12)"><foreignObject width="44.25" height="24"><div xmlns="http://www.w3.org/1999/xhtml" style="display: table-cell; white-space: nowrap; line-height: 1.5; max-width: 95px; text-align: center;"><span class="nodeLabel markdown-node-label" style=""><p>Core2</p></span></div></foreignObject></g></g><g class="members-group text" transform="translate(-133.9296875, 21)"/><g class="methods-group text" transform="translate(-133.9296875, 51)"><g class="label" style="" transform="translate(0,-12)"><foreignObject width="220.859375" height="24"><div xmlns="http://www.w3.org/1999/xhtml" style="display: table-cell; white-space: nowrap; line-height: 1.5; max-width: 279px; text-align: center;"><span class="nodeLabel markdown-node-label" style=""><p>+execute() : 执行格式转换职责</p></span></div></foreignObject></g></g><g class="divider" style=""><path d="M-145.9296875 -3 C-30.145143686808865 -2.999603286535465, 85.63940012638227 -2.9992065730709307, 145.9296875 -2.999 M-145.9296875 -3 C-67.37688614368322 -2.9997308539382836, 11.175915212633555 -2.999461707876567, 145.9296875 -2.999" stroke="#9370DB" stroke-width="1.3" fill="none" stroke-dasharray="0 0" style=""/></g><g class="divider" style=""><path d="M-145.9296875 21 C-42.79140843572418 21.000353383471285, 60.34687062855164 21.000706766942567, 145.9296875 21.001 M-145.9296875 21 C-51.59385898547532 21.000323223567907, 42.741969529049356 21.000646447135814, 145.9296875 21.001" stroke="#9370DB" stroke-width="1.3" fill="none" stroke-dasharray="0 0" style=""/></g></g><g class="node default" id="my-svg-classId-Core3-3" data-look="classic" transform="translate(633.59765625, 865)"><g class="basic label-container outer-path"><path d="M-153.9296875 -75 L153.9296875 -75 L153.9296875 75 L-153.9296875 75" stroke="none" stroke-width="0" fill="#ECECFF" style=""/><path d="M-153.9296875 -75 C-51.797542831718374 -75, 50.33460183656325 -75, 153.9296875 -75 M-153.9296875 -75 C-39.12699783418006 -75, 75.67569183163988 -75, 153.9296875 -75 M153.9296875 -75 C153.9296875 -38.4735124507002, 153.9296875 -1.9470249014003969, 153.9296875 75 M153.9296875 -75 C153.9296875 -41.27032813698442, 153.9296875 -7.540656273968835, 153.9296875 75 M153.9296875 75 C75.86813083090551 75, -2.193425838188972 75, -153.9296875 75 M153.9296875 75 C41.31958893493426 75, -71.29050963013148 75, -153.9296875 75 M-153.9296875 75 C-153.9296875 19.11423049873145, -153.9296875 -36.7715390025371, -153.9296875 -75 M-153.9296875 75 C-153.9296875 15.156387391890902, -153.9296875 -44.687225216218195, -153.9296875 -75" stroke="#9370DB" stroke-width="1.3" fill="none" stroke-dasharray="0 0" style=""/></g><g class="annotation-group text" transform="translate(-47, -51)"><g class="label" style="" transform="translate(0,-12)"><foreignObject width="94" height="24"><div xmlns="http://www.w3.org/1999/xhtml" style="display: table-cell; white-space: nowrap; line-height: 1.5; max-width: 147px; text-align: center;"><span class="nodeLabel markdown-node-label" style=""><p>«核心组件 3»</p></span></div></foreignObject></g></g><g class="label-group text" transform="translate(-22.125, -27)"><g class="label" style="font-weight: bolder" transform="translate(0,-12)"><foreignObject width="44.25" height="24"><div xmlns="http://www.w3.org/1999/xhtml" style="display: table-cell; white-space: nowrap; line-height: 1.5; max-width: 95px; text-align: center;"><span class="nodeLabel markdown-node-label" style=""><p>Core3</p></span></div></foreignObject></g></g><g class="members-group text" transform="translate(-141.9296875, 21)"/><g class="methods-group text" transform="translate(-141.9296875, 51)"><g class="label" style="" transform="translate(0,-12)"><foreignObject width="236.859375" height="24"><div xmlns="http://www.w3.org/1999/xhtml" style="display: table-cell; white-space: nowrap; line-height: 1.5; max-width: 295px; text-align: center;"><span class="nodeLabel markdown-node-label" style=""><p>+execute() : 执行准确率奖励职责</p></span></div></foreignObject></g></g><g class="divider" style=""><path d="M-153.9296875 -3 C-72.43669171371357 -2.9997352914921422, 9.056304072572857 -2.9994705829842845, 153.9296875 -2.999 M-153.9296875 -3 C-48.17588355678552 -2.9996564866541964, 57.57792038642896 -2.999312973308393, 153.9296875 -2.999" stroke="#9370DB" stroke-width="1.3" fill="none" stroke-dasharray="0 0" style=""/></g><g class="divider" style=""><path d="M-153.9296875 21 C-78.3711980486022 21.000245431828905, -2.8127085972043915 21.00049086365781, 153.9296875 21.001 M-153.9296875 21 C-51.84828672777304 21.00033158451248, 50.23311404445391 21.000663169024964, 153.9296875 21.001" stroke="#9370DB" stroke-width="1.3" fill="none" stroke-dasharray="0 0" style=""/></g></g><g class="node default" id="my-svg-classId-Core4-4" data-look="classic" transform="translate(480.6328125, 1089)"><g class="basic label-container outer-path"><path d="M-169.9296875 -75 L169.9296875 -75 L169.9296875 75 L-169.9296875 75" stroke="none" stroke-width="0" fill="#ECECFF" style=""/><path d="M-169.9296875 -75 C-49.955456872477896 -75, 70.01877375504421 -75, 169.9296875 -75 M-169.9296875 -75 C-96.48789345627347 -75, -23.046099412546937 -75, 169.9296875 -75 M169.9296875 -75 C169.9296875 -44.332272479485184, 169.9296875 -13.664544958970367, 169.9296875 75 M169.9296875 -75 C169.9296875 -38.36566668024295, 169.9296875 -1.7313333604859054, 169.9296875 75 M169.9296875 75 C80.8648091234236 75, -8.200069253152805 75, -169.9296875 75 M169.9296875 75 C56.58947416096457 75, -56.75073917807086 75, -169.9296875 75 M-169.9296875 75 C-169.9296875 16.3761963932619, -169.9296875 -42.2476072134762, -169.9296875 -75 M-169.9296875 75 C-169.9296875 28.126641687987217, -169.9296875 -18.746716624025566, -169.9296875 -75" stroke="#9370DB" stroke-width="1.3" fill="none" stroke-dasharray="0 0" style=""/></g><g class="annotation-group text" transform="translate(-47, -51)"><g class="label" style="" transform="translate(0,-12)"><foreignObject width="94" height="24"><div xmlns="http://www.w3.org/1999/xhtml" style="display: table-cell; white-space: nowrap; line-height: 1.5; max-width: 147px; text-align: center;"><span class="nodeLabel markdown-node-label" style=""><p>«核心组件 4»</p></span></div></foreignObject></g></g><g class="label-group text" transform="translate(-22.125, -27)"><g class="label" style="font-weight: bolder" transform="translate(0,-12)"><foreignObject width="44.25" height="24"><div xmlns="http://www.w3.org/1999/xhtml" style="display: table-cell; white-space: nowrap; line-height: 1.5; max-width: 95px; text-align: center;"><span class="nodeLabel markdown-node-label" style=""><p>Core4</p></span></div></foreignObject></g></g><g class="members-group text" transform="translate(-157.9296875, 21)"/><g class="methods-group text" transform="translate(-157.9296875, 51)"><g class="label" style="" transform="translate(0,-12)"><foreignObject width="268.859375" height="24"><div xmlns="http://www.w3.org/1999/xhtml" style="display: table-cell; white-space: nowrap; line-height: 1.5; max-width: 327px; text-align: center;"><span class="nodeLabel markdown-node-label" style=""><p>+execute() : 执行格式与过程奖励职责</p></span></div></foreignObject></g></g><g class="divider" style=""><path d="M-169.9296875 -3 C-76.81979261798907 -2.9997260340548735, 16.29010226402187 -2.999452068109747, 169.9296875 -2.999 M-169.9296875 -3 C-63.37199472142534 -2.999686465342383, 43.185698057149324 -2.999372930684766, 169.9296875 -2.999" stroke="#9370DB" stroke-width="1.3" fill="none" stroke-dasharray="0 0" style=""/></g><g class="divider" style=""><path d="M-169.9296875 21 C-89.52519094217843 21.00023658166428, -9.120694384356852 21.000473163328557, 169.9296875 21.001 M-169.9296875 21 C-101.37965723865048 21.000201701160258, -32.82962697730096 21.00040340232051, 169.9296875 21.001" stroke="#9370DB" stroke-width="1.3" fill="none" stroke-dasharray="0 0" style=""/></g></g><g class="node default" id="my-svg-classId-ExternalResource-5" data-look="classic" transform="translate(307.4921875, 1313)"><g class="basic label-container outer-path"><path d="M-123.21875 -75 L123.21875 -75 L123.21875 75 L-123.21875 75" stroke="none" stroke-width="0" fill="#ECECFF" style=""/><path d="M-123.21875 -75 C-52.613722372183744 -75, 17.99130525563251 -75, 123.21875 -75 M-123.21875 -75 C-70.41223364357688 -75, -17.60571728715375 -75, 123.21875 -75 M123.21875 -75 C123.21875 -20.459556642078674, 123.21875 34.08088671584265, 123.21875 75 M123.21875 -75 C123.21875 -35.09577768367486, 123.21875 4.8084446326502785, 123.21875 75 M123.21875 75 C32.260094059857224 75, -58.69856188028555 75, -123.21875 75 M123.21875 75 C70.68864881244173 75, 18.158547624883454 75, -123.21875 75 M-123.21875 75 C-123.21875 37.755151001131814, -123.21875 0.5103020022636287, -123.21875 -75 M-123.21875 75 C-123.21875 28.62272168557063, -123.21875 -17.754556628858737, -123.21875 -75" stroke="#9370DB" stroke-width="1.3" fill="none" stroke-dasharray="0 0" style=""/></g><g class="annotation-group text" transform="translate(-40.390625, -51)"><g class="label" style="" transform="translate(0,-12)"><foreignObject width="80.78125" height="24"><div xmlns="http://www.w3.org/1999/xhtml" style="display: table-cell; white-space: nowrap; line-height: 1.5; max-width: 132px; text-align: center;"><span class="nodeLabel markdown-node-label" style=""><p>«外部资源»</p></span></div></foreignObject></g></g><g class="label-group text" transform="translate(-65.796875, -27)"><g class="label" style="font-weight: bolder" transform="translate(0,-12)"><foreignObject width="131.59375" height="24"><div xmlns="http://www.w3.org/1999/xhtml" style="display: table-cell; white-space: nowrap; line-height: 1.5; max-width: 180px; text-align: center;"><span class="nodeLabel markdown-node-label" style=""><p>ExternalResource</p></span></div></foreignObject></g></g><g class="members-group text" transform="translate(-111.21875, 21)"/><g class="methods-group text" transform="translate(-111.21875, 51)"><g class="label" style="" transform="translate(0,-12)"><foreignObject width="156.640625" height="24"><div xmlns="http://www.w3.org/1999/xhtml" style="display: table-cell; white-space: nowrap; line-height: 1.5; max-width: 217px; text-align: center;"><span class="nodeLabel markdown-node-label" style=""><p>+connect() : 建立连接</p></span></div></foreignObject></g></g><g class="divider" style=""><path d="M-123.21875 -3 C-32.98414037697822 -2.9996338438361736, 57.250469246043565 -2.9992676876723467, 123.21875 -2.999 M-123.21875 -3 C-68.02855858635661 -2.999776047917165, -12.83836717271322 -2.9995520958343302, 123.21875 -2.999" stroke="#9370DB" stroke-width="1.3" fill="none" stroke-dasharray="0 0" style=""/></g><g class="divider" style=""><path d="M-123.21875 21 C-35.19322984891865 21.00035719206757, 52.832290302162704 21.000714384135136, 123.21875 21.001 M-123.21875 21 C-47.917426299204976 21.000305559517933, 27.383897401590048 21.000611119035867, 123.21875 21.001" stroke="#9370DB" stroke-width="1.3" fill="none" stroke-dasharray="0 0" style=""/></g></g><g class="node undefined" id="my-svg-note0" data-look="classic" transform="translate(1054.875, 26)"><g class="basic label-container outer-path"><path d="M-264.671875 -18 L264.671875 -18 L264.671875 18 L-264.671875 18" stroke="none" stroke-width="0" fill="#fff5ad" style="fill:#fff5ad !important;stroke:#aaaa33 !important"/><path d="M-264.671875 -18 C-114.39775787019855 -18, 35.87635925960291 -18, 264.671875 -18 M-264.671875 -18 C-65.91590785364437 -18, 132.84005929271126 -18, 264.671875 -18 M264.671875 -18 C264.671875 -5.17527122832829, 264.671875 7.64945754334342, 264.671875 18 M264.671875 -18 C264.671875 -6.820604724483719, 264.671875 4.358790551032563, 264.671875 18 M264.671875 18 C153.58032495724098 18, 42.48877491448195 18, -264.671875 18 M264.671875 18 C68.70936057085541 18, -127.25315385828918 18, -264.671875 18 M-264.671875 18 C-264.671875 5.332128555407513, -264.671875 -7.335742889184974, -264.671875 -18 M-264.671875 18 C-264.671875 8.591141233656383, -264.671875 -0.817717532687233, -264.671875 -18" stroke="#aaaa33" stroke-width="1.3" fill="none" stroke-dasharray="0 0" style="fill:#fff5ad !important;stroke:#aaaa33 !important"/></g><g class="label noteLabel" style="text-align:left !important;white-space:nowrap !important" transform="translate(-258.671875, -12)"><rect/><foreignObject width="517.34375" height="24"><div style="text-align: center; white-space: break-spaces; display: table; line-height: 1.5; max-width: 200px; width: 200px;" xmlns="http://www.w3.org/1999/xhtml"><span style="text-align:left !important;white-space:nowrap !important" class="nodeLabel markdown-node-label"><p>中文注释：实际入口为 01_dataset_loading.py / 02_reward_functions.py</p></span></div></foreignObject></g></g><g class="node undefined" id="my-svg-note1" data-look="classic" transform="translate(784.1796875, 181)"><g class="basic label-container outer-path"><path d="M-94 -18 L94 -18 L94 18 L-94 18" stroke="none" stroke-width="0" fill="#fff5ad" style="fill:#fff5ad !important;stroke:#aaaa33 !important"/><path d="M-94 -18 C-47.5649005996287 -18, -1.1298011992574004 -18, 94 -18 M-94 -18 C-26.099566241263574 -18, 41.80086751747285 -18, 94 -18 M94 -18 C94 -9.706217304558434, 94 -1.4124346091168682, 94 18 M94 -18 C94 -5.979039807118898, 94 6.041920385762204, 94 18 M94 18 C22.270371576674606 18, -49.45925684665079 18, -94 18 M94 18 C30.730667158235477 18, -32.53866568352905 18, -94 18 M-94 18 C-94 4.812873747327551, -94 -8.374252505344899, -94 -18 M-94 18 C-94 5.913917839470582, -94 -6.172164321058837, -94 -18" stroke="#aaaa33" stroke-width="1.3" fill="none" stroke-dasharray="0 0" style="fill:#fff5ad !important;stroke:#aaaa33 !important"/></g><g class="label noteLabel" style="text-align:left !important;white-space:nowrap !important" transform="translate(-88, -12)"><rect/><foreignObject width="176" height="24"><div style="text-align: center; white-space: nowrap; display: table-cell; line-height: 1.5; max-width: 200px;" xmlns="http://www.w3.org/1999/xhtml"><span style="text-align:left !important;white-space:nowrap !important" class="nodeLabel markdown-node-label"><p>中文职责：数据集加载器</p></span></div></foreignObject></g></g><g class="node undefined" id="my-svg-note2" data-look="classic" transform="translate(629.59765625, 417)"><g class="basic label-container outer-path"><path d="M-78 -18 L78 -18 L78 18 L-78 18" stroke="none" stroke-width="0" fill="#fff5ad" style="fill:#fff5ad !important;stroke:#aaaa33 !important"/><path d="M-78 -18 C-44.71319575636988 -18, -11.426391512739755 -18, 78 -18 M-78 -18 C-39.41357463266967 -18, -0.8271492653393437 -18, 78 -18 M78 -18 C78 -4.833267146458796, 78 8.333465707082407, 78 18 M78 -18 C78 -6.166466883513108, 78 5.667066232973784, 78 18 M78 18 C36.343584475108216 18, -5.3128310497835685 18, -78 18 M78 18 C21.113114891341937 18, -35.77377021731613 18, -78 18 M-78 18 C-78 6.806176430250233, -78 -4.387647139499535, -78 -18 M-78 18 C-78 5.702593010544902, -78 -6.594813978910196, -78 -18" stroke="#aaaa33" stroke-width="1.3" fill="none" stroke-dasharray="0 0" style="fill:#fff5ad !important;stroke:#aaaa33 !important"/></g><g class="label noteLabel" style="text-align:left !important;white-space:nowrap !important" transform="translate(-72, -12)"><rect/><foreignObject width="144" height="24"><div style="text-align: center; white-space: nowrap; display: table-cell; line-height: 1.5; max-width: 200px;" xmlns="http://www.w3.org/1999/xhtml"><span style="text-align:left !important;white-space:nowrap !important" class="nodeLabel markdown-node-label"><p>中文职责：格式转换</p></span></div></foreignObject></g></g><g class="node undefined" id="my-svg-note3" data-look="classic" transform="translate(492.6328125, 641)"><g class="basic label-container outer-path"><path d="M-86 -18 L86 -18 L86 18 L-86 18" stroke="none" stroke-width="0" fill="#fff5ad" style="fill:#fff5ad !important;stroke:#aaaa33 !important"/><path d="M-86 -18 C-22.78436155414302 -18, 40.43127689171396 -18, 86 -18 M-86 -18 C-20.733242408832965 -18, 44.53351518233407 -18, 86 -18 M86 -18 C86 -10.762855824297933, 86 -3.5257116485958644, 86 18 M86 -18 C86 -8.095515585572395, 86 1.8089688288552104, 86 18 M86 18 C21.52722587091192 18, -42.94554825817616 18, -86 18 M86 18 C29.886568614476282 18, -26.226862771047436 18, -86 18 M-86 18 C-86 10.162402391029222, -86 2.3248047820584414, -86 -18 M-86 18 C-86 4.084625300196782, -86 -9.830749399606436, -86 -18" stroke="#aaaa33" stroke-width="1.3" fill="none" stroke-dasharray="0 0" style="fill:#fff5ad !important;stroke:#aaaa33 !important"/></g><g class="label noteLabel" style="text-align:left !important;white-space:nowrap !important" transform="translate(-80, -12)"><rect/><foreignObject width="160" height="24"><div style="text-align: center; white-space: nowrap; display: table-cell; line-height: 1.5; max-width: 200px;" xmlns="http://www.w3.org/1999/xhtml"><span style="text-align:left !important;white-space:nowrap !important" class="nodeLabel markdown-node-label"><p>中文职责：准确率奖励</p></span></div></foreignObject></g></g><g class="node undefined" id="my-svg-note4" data-look="classic" transform="translate(327.66796875, 865)"><g class="basic label-container outer-path"><path d="M-102 -18 L102 -18 L102 18 L-102 18" stroke="none" stroke-width="0" fill="#fff5ad" style="fill:#fff5ad !important;stroke:#aaaa33 !important"/><path d="M-102 -18 C-46.924444392366034 -18, 8.151111215267932 -18, 102 -18 M-102 -18 C-31.48872573747832 -18, 39.02254852504336 -18, 102 -18 M102 -18 C102 -6.1848582229237685, 102 5.630283554152463, 102 18 M102 -18 C102 -9.936349059796399, 102 -1.8726981195927976, 102 18 M102 18 C22.258818113791662 18, -57.482363772416676 18, -102 18 M102 18 C46.06595141666915 18, -9.868097166661698 18, -102 18 M-102 18 C-102 10.052434925652022, -102 2.104869851304045, -102 -18 M-102 18 C-102 8.173170207678059, -102 -1.6536595846438829, -102 -18" stroke="#aaaa33" stroke-width="1.3" fill="none" stroke-dasharray="0 0" style="fill:#fff5ad !important;stroke:#aaaa33 !important"/></g><g class="label noteLabel" style="text-align:left !important;white-space:nowrap !important" transform="translate(-96, -12)"><rect/><foreignObject width="192" height="24"><div style="text-align: center; white-space: nowrap; display: table-cell; line-height: 1.5; max-width: 200px;" xmlns="http://www.w3.org/1999/xhtml"><span style="text-align:left !important;white-space:nowrap !important" class="nodeLabel markdown-node-label"><p>中文职责：格式与过程奖励</p></span></div></foreignObject></g></g><g class="node undefined" id="my-svg-note5" data-look="classic" transform="translate(134.3515625, 1089)"><g class="basic label-container outer-path"><path d="M-126.3515625 -18 L126.3515625 -18 L126.3515625 18 L-126.3515625 18" stroke="none" stroke-width="0" fill="#fff5ad" style="fill:#fff5ad !important;stroke:#aaaa33 !important"/><path d="M-126.3515625 -18 C-49.35044410166586 -18, 27.650674296668285 -18, 126.3515625 -18 M-126.3515625 -18 C-61.16117205471839 -18, 4.029218390563216 -18, 126.3515625 -18 M126.3515625 -18 C126.3515625 -10.628173004492428, 126.3515625 -3.256346008984858, 126.3515625 18 M126.3515625 -18 C126.3515625 -10.241133808865522, 126.3515625 -2.4822676177310434, 126.3515625 18 M126.3515625 18 C38.2568148418364 18, -49.837932816327196 18, -126.3515625 18 M126.3515625 18 C57.171087741088186 18, -12.009387017823627 18, -126.3515625 18 M-126.3515625 18 C-126.3515625 9.03305052743022, -126.3515625 0.06610105486043949, -126.3515625 -18 M-126.3515625 18 C-126.3515625 4.33714674782791, -126.3515625 -9.32570650434418, -126.3515625 -18" stroke="#aaaa33" stroke-width="1.3" fill="none" stroke-dasharray="0 0" style="fill:#fff5ad !important;stroke:#aaaa33 !important"/></g><g class="label noteLabel" style="text-align:left !important;white-space:nowrap !important" transform="translate(-120.3515625, -12)"><rect/><foreignObject width="240.703125" height="24"><div style="text-align: center; white-space: break-spaces; display: table; line-height: 1.5; max-width: 200px; width: 200px;" xmlns="http://www.w3.org/1999/xhtml"><span style="text-align:left !important;white-space:nowrap !important" class="nodeLabel markdown-node-label"><p>中文注释：Hugging Face Datasets</p></span></div></foreignObject></g></g></g></g></g><defs><filter id="my-svg-drop-shadow" height="130%" width="130%"><feDropShadow dx="4" dy="4" stdDeviation="0" flood-opacity="0.06" flood-color="#000000"/></filter></defs><defs><filter id="my-svg-drop-shadow-small" height="150%" width="150%"><feDropShadow dx="2" dy="2" stdDeviation="0" flood-opacity="0.06" flood-color="#000000"/></filter></defs></svg>